{"glyphs":{"0":{"ha":638,"x_min":-42,"x_max":579,"o":"m 169 210 q 185 304 178 266 q 262 597 220 488 q 275 633 268 612 l 282 650 l 289 670 l 255 686 l 220 704 q 233 733 227 720 l 273 728 l 314 724 q 404 905 349 795 l 418 901 l 432 897 l 459 890 q 399 686 446 802 l 410 678 l 422 671 q 442 655 435 662 q 522 529 504 604 q 543 413 535 471 l 549 366 l 557 318 q 570 223 566 259 l 574 189 l 577 154 q 572 83 579 113 q 515 -22 555 19 q 405 22 459 -25 q 412 62 396 41 q 452 201 458 124 q 444 269 449 229 l 439 302 l 434 336 l 422 416 l 416 463 l 408 511 q 385 603 399 564 q 377 616 385 604 l 373 609 l 370 603 q 364 592 366 597 l 346 537 l 328 482 q 298 370 309 419 q 281 281 291 335 l 266 193 l 260 168 l 255 142 q 252 121 254 134 l 251 102 q 275 90 260 92 l 288 90 q 299 89 295 90 q 315 89 305 87 l 324 90 l 333 91 l 368 153 l 404 216 q 416 195 414 208 q 416 183 417 189 l 414 173 l 408 144 l 402 115 q 382 60 393 83 q 336 3 363 22 l 330 2 l 323 1 l 307 0 l 307 -4 q 307 -7 307 -6 l 324 -21 l 333 -28 l 343 -36 q 290 -48 319 -58 q 257 -36 277 -44 l 240 -29 l 221 -22 l 206 -75 q 191 -127 197 -106 q 172 -176 184 -145 l 162 -200 l 152 -225 q 84 -199 122 -214 q 75 -185 80 -193 l 66 -172 l 96 -96 l 126 -18 l 122 -9 l 118 1 q 108 18 113 12 q 89 81 82 50 q -30 351 2 180 q -38 465 -42 414 q 20 656 -29 588 q 42 685 28 668 l 54 700 l 66 715 q 86 703 77 712 l 95 695 l 102 686 q 142 663 123 664 q 153 668 146 664 l 159 671 l 163 675 q 189 671 177 684 q 165 639 185 650 q 147 631 159 635 l 137 627 l 127 623 l 125 618 l 124 612 l 121 597 l 117 592 l 111 587 q 58 481 73 559 q 94 192 33 355 q 109 158 99 177 l 117 142 l 125 125 q 154 115 134 108 l 169 210 z "},"1":{"ha":380,"x_min":109,"x_max":252,"o":"m 163 679 q 192 688 181 684 l 194 684 l 197 681 q 200 674 199 677 l 205 653 l 210 633 q 218 591 216 609 q 223 533 221 567 l 227 473 l 229 436 l 231 398 q 233 322 233 353 q 225 167 233 247 q 216 127 223 151 l 211 109 l 205 90 q 231 37 209 64 l 239 27 q 245 16 243 21 q 243 -15 252 2 l 237 -17 l 231 -20 l 217 -26 q 185 -39 199 -33 q 182 -50 184 -42 l 178 -64 q 171 -62 172 -62 l 155 1 q 136 64 144 39 q 124 128 127 90 l 120 192 q 115 298 116 233 l 115 351 l 114 403 l 113 425 l 111 448 q 109 492 109 475 q 111 556 109 519 l 115 621 q 137 671 116 645 l 163 679 z "},"2":{"ha":522,"x_min":2,"x_max":600,"o":"m 567 55 q 545 40 557 48 l 522 26 q 374 -27 473 -3 q 99 -117 208 -66 l 85 -124 q 71 -130 77 -127 q 39 -132 54 -135 q 12 -95 20 -119 q 7 -73 9 -87 l 4 -62 l 2 -52 q 13 -42 7 -47 l 22 -34 l 24 -32 l 24 -31 q 87 75 32 26 q 104 96 96 82 q 118 120 111 104 q 142 182 130 145 q 202 311 159 235 q 243 450 245 386 l 243 477 l 275 522 q 308 568 295 550 l 312 552 l 317 536 q 327 506 321 518 q 342 478 332 494 l 350 464 l 359 449 q 406 534 387 484 q 421 580 414 553 l 435 625 q 467 627 450 631 q 481 622 472 625 l 494 617 q 454 460 500 557 q 355 326 408 363 q 304 229 342 292 l 289 205 l 274 180 q 246 126 257 151 q 264 133 254 129 l 272 136 l 279 139 q 306 151 296 145 q 398 159 355 176 q 405 157 401 158 l 410 157 l 414 156 l 412 143 l 410 131 l 413 130 l 416 128 q 543 152 478 123 q 581 152 568 163 l 585 139 l 589 126 q 600 96 595 109 q 567 55 589 74 m 414 669 q 332 677 372 685 q 313 667 326 674 l 291 656 q 243 633 262 643 q 138 505 171 597 l 132 490 q 125 475 129 481 q 104 450 117 459 q 41 479 67 443 q 54 497 50 492 q 121 644 64 574 q 276 742 171 705 q 334 741 305 752 l 364 729 q 395 716 382 722 q 453 681 429 700 q 414 669 439 660 z "},"3":{"ha":652,"x_min":-76,"x_max":658,"o":"m 391 273 l 374 271 q 342 264 354 268 q 278 266 309 255 q 203 220 232 238 q 149 227 163 220 q 97 277 136 234 l 96 283 l 96 290 q 95 306 96 299 l 102 312 l 108 319 q 122 330 116 326 q 316 483 248 402 q 345 459 327 473 l 359 447 q 374 434 368 439 l 389 437 l 406 441 q 439 448 425 446 l 462 450 l 485 451 q 531 448 511 452 q 602 393 568 441 l 606 387 l 610 380 q 633 385 627 383 q 651 351 651 374 l 650 341 l 650 332 q 652 314 650 321 q 649 278 658 298 l 641 260 q 634 243 636 250 q 611 160 650 199 q 552 92 584 133 l 525 55 l 498 19 q 481 2 492 11 l 472 -5 l 463 -13 q 433 -35 450 -22 l 402 -56 l 372 -56 q 191 -121 289 -136 l 189 -121 l 187 -119 q 183 -117 184 -118 l 153 -84 q 123 -52 136 -66 q 107 -26 111 -35 q 106 3 104 -17 l 161 3 q 168 18 165 10 l 174 31 l 208 36 q 243 41 229 39 l 255 56 l 267 70 q 291 100 282 87 q 350 186 316 135 l 380 231 l 410 276 l 391 273 m 482 764 l 492 745 l 503 728 q 522 694 514 708 q 525 640 536 669 q 494 568 513 611 l 479 532 l 463 496 l 439 497 l 413 498 l 410 516 l 408 533 q 402 566 404 555 q 410 631 398 604 q 381 635 399 642 l 331 618 l 281 600 q 189 576 231 581 q 161 570 177 576 l 132 561 l 126 568 l 121 575 l 111 589 l 108 589 q 104 590 106 590 q -19 534 58 579 q -54 529 -39 523 l -59 538 l -64 549 l -76 570 q -55 604 -74 593 l -31 621 q -5 635 -16 631 q 73 691 29 650 q 220 737 141 757 q 279 736 245 731 q 355 749 307 741 l 393 757 l 431 763 q 456 764 441 765 l 469 764 l 482 764 z "},"4":{"ha":624,"x_min":12,"x_max":566,"o":"m 559 666 l 553 617 l 541 541 q 541 534 541 536 q 541 436 551 474 q 566 408 551 425 l 551 387 q 536 363 543 374 q 520 197 524 292 q 519 113 519 163 l 519 29 l 518 15 q 516 1 517 7 q 501 -23 513 -14 l 436 -23 q 408 -33 419 -34 q 362 -16 395 -31 l 360 26 l 358 68 q 356 152 355 117 q 361 237 357 186 l 366 280 l 370 324 q 312 315 347 321 l 283 311 l 253 307 l 246 303 l 239 298 q 224 290 229 292 q 203 288 216 288 l 193 289 l 182 289 q 144 279 159 290 q 111 291 131 285 l 94 296 l 77 300 q 14 330 37 312 l 12 349 q 40 370 24 358 q 70 517 54 438 l 128 517 l 128 550 q 58 568 87 562 q 56 655 58 603 l 55 698 l 54 743 q 63 749 56 744 l 69 753 l 76 757 q 93 756 83 758 l 110 754 q 144 757 130 752 q 204 732 182 768 l 205 711 l 208 690 q 211 644 210 661 l 210 639 l 209 633 l 206 621 q 201 595 203 606 l 217 590 l 263 578 q 273 482 275 536 q 269 433 273 462 l 267 409 l 264 384 l 279 389 l 294 394 q 323 404 312 400 q 377 429 355 416 l 377 701 q 472 729 414 725 q 566 714 530 733 l 559 666 z "},"5":{"ha":796,"x_min":5,"x_max":747,"o":"m 608 182 l 602 191 l 597 199 q 583 213 590 208 l 583 303 q 564 313 575 312 l 555 313 l 545 313 l 458 313 l 370 315 l 328 315 q 286 315 304 316 q 236 310 247 313 q 187 286 222 307 l 164 248 q 136 262 143 243 q 122 296 127 284 q 115 318 119 304 l 113 324 l 111 331 q 106 346 108 339 q 106 378 105 363 q 111 418 106 399 q 121 474 117 442 l 124 503 l 127 532 q 126 551 128 539 l 122 570 l 33 570 q 26 644 5 596 q 147 702 66 707 q 166 731 163 726 q 181 733 172 732 l 194 735 q 218 737 209 737 l 235 739 l 252 740 q 285 739 271 741 q 423 756 336 734 q 546 746 491 773 q 606 731 577 731 q 660 723 638 732 q 711 688 680 714 l 700 678 l 694 673 l 688 669 l 692 663 q 697 658 695 659 l 722 638 l 745 620 l 745 574 q 706 584 728 578 q 642 641 684 604 q 612 637 631 640 l 597 635 l 581 633 q 545 595 570 622 q 530 607 538 600 l 517 617 q 340 616 442 632 q 290 593 323 601 l 275 591 l 260 588 q 231 582 241 585 l 182 570 q 184 515 178 548 l 186 502 l 189 490 q 190 464 191 475 l 229 464 l 267 463 l 435 460 l 605 455 q 647 451 622 454 l 669 448 l 692 445 q 718 405 709 435 l 732 356 l 747 307 q 711 232 729 256 q 643 165 696 210 q 608 182 623 162 m 186 -104 l 174 -96 l 163 -89 q 143 -73 151 -80 q 71 -12 102 -39 q 64 -1 68 -8 l 62 5 l 60 11 q 102 9 83 15 q 127 47 107 33 q 147 58 135 52 l 168 67 l 235 98 l 302 130 q 433 198 376 165 q 492 252 474 222 q 519 268 498 261 q 517 252 518 261 l 517 236 q 585 110 552 198 l 572 99 q 559 90 565 93 q 345 -26 426 7 q 267 -63 313 -39 l 227 -83 l 186 -104 z "},"6":{"ha":724,"x_min":31,"x_max":664,"o":"m 227 46 l 237 31 l 248 16 q 272 -12 262 -2 q 410 -12 353 -87 l 435 21 q 461 52 449 39 q 524 254 536 133 q 494 334 519 306 q 420 376 471 360 q 359 379 395 383 l 344 377 l 329 375 q 298 372 311 373 q 287 368 294 372 l 276 360 q 247 337 264 351 l 239 330 l 231 324 q 214 310 220 315 q 189 246 199 289 l 185 229 l 181 211 q 170 176 176 191 q 212 165 185 172 l 234 71 l 231 59 l 227 46 m 264 416 l 294 427 q 351 444 328 438 q 395 452 369 448 l 416 454 l 439 457 l 463 460 q 486 462 476 462 q 534 456 504 462 q 621 406 585 447 q 659 311 656 364 q 616 127 664 206 q 587 85 606 109 l 571 64 l 555 43 q 406 -83 494 -37 q 259 -125 323 -126 q 157 -80 193 -123 q 108 -11 136 -55 q 83 28 97 5 l 61 68 q 33 144 36 112 l 44 157 l 50 165 l 56 172 l 56 180 l 56 189 q 53 207 56 200 q 51 386 31 267 l 58 430 q 62 473 61 454 q 93 617 69 561 q 146 701 115 671 l 173 727 q 199 753 189 742 q 277 777 227 785 q 300 772 286 776 l 312 769 l 323 766 l 323 715 l 311 707 l 298 701 l 279 672 l 294 655 l 309 638 q 289 581 302 616 l 268 524 q 234 406 244 456 l 264 416 z "},"7":{"ha":522,"x_min":-87,"x_max":593,"o":"m 593 565 q 541 507 574 544 l 488 447 q 482 401 492 427 l 474 379 q 467 357 469 366 q 473 325 476 344 q 470 309 473 319 l 467 291 l 462 258 l 456 224 q 437 159 448 186 l 428 137 l 418 114 l 405 109 l 392 103 q 372 77 378 82 q 346 66 366 73 l 331 24 q 315 -18 321 -1 q 307 -39 311 -25 l 304 -50 l 300 -60 q 274 -94 292 -83 q 250 -67 256 -86 q 248 -50 249 -61 l 246 -41 l 245 -33 q 244 -24 244 -31 l 244 -13 q 256 58 237 28 q 264 77 260 65 l 273 96 q 245 124 258 111 q 274 211 259 161 l 287 254 l 300 298 q 362 471 332 408 l 383 473 l 404 475 l 412 499 l 421 523 q 418 532 421 524 l 407 528 l 395 525 q 210 495 310 505 l 71 480 l 40 476 q 9 473 21 473 q -20 475 -3 473 l -34 477 l -47 479 q -62 507 -60 498 q -64 550 -64 516 q -65 625 -87 577 q -34 637 -54 629 l 1 649 q 81 642 38 633 q 198 661 147 656 q 255 674 222 664 l 283 684 l 311 694 q 431 710 385 718 l 435 707 l 440 703 q 451 694 446 699 l 508 707 q 564 719 543 715 q 587 693 581 710 q 591 678 589 687 l 592 663 q 593 616 593 644 l 593 591 l 593 565 z "},"8":{"ha":522,"x_min":-59,"x_max":549,"o":"m 355 693 q 231 747 315 736 q 98 563 109 606 q 142 551 115 555 l 165 548 q 188 545 178 547 q 235 532 207 541 l 260 525 q 287 517 276 520 q 355 693 334 598 m 111 836 q 165 807 138 829 l 176 798 l 188 788 q 211 769 202 776 q 224 789 221 774 l 226 794 l 227 801 q 229 814 228 809 q 265 842 244 825 l 282 856 q 298 869 294 865 q 400 845 352 874 q 441 815 418 834 l 480 780 l 481 774 l 481 768 q 483 755 482 759 l 488 752 l 494 749 q 506 744 500 747 l 500 730 l 494 717 q 483 691 487 700 q 444 650 468 662 q 353 477 393 553 l 361 470 l 369 463 l 385 448 q 441 361 425 412 q 511 233 463 289 l 505 233 l 498 233 q 490 235 492 233 q 480 243 486 237 l 475 247 l 471 251 q 403 274 432 280 q 375 300 391 284 l 348 328 q 284 374 315 361 q 77 138 224 275 q 124 87 90 109 l 139 79 l 153 71 q 181 54 171 61 l 183 32 q 187 12 184 20 q 212 -22 194 -9 q 201 -33 206 -28 q 153 -31 180 -22 l 142 -34 l 131 -39 q 109 -45 117 -43 l 94 -43 l 81 -42 q 58 -39 65 -40 q -49 31 -18 11 q -59 94 -53 57 l -50 107 l -41 121 q -21 145 -30 136 q 37 168 3 170 q 138 275 90 208 q 180 337 157 300 l 201 368 l 221 400 q 134 422 188 414 l 88 429 q 43 437 62 432 l 26 451 q 37 538 31 492 q 1 549 19 544 l -11 574 q -24 600 -18 589 q -23 647 -37 623 q 94 819 28 735 q 102 827 97 823 l 106 831 l 111 836 m 549 115 q 486 18 533 56 q 389 -58 438 -22 q 377 -62 385 -60 l 370 -62 l 362 -64 q 361 -46 361 -55 l 361 -38 l 360 -31 q 307 -24 338 -24 q 278 -25 298 -24 l 263 -26 l 248 -26 q 288 19 268 -3 l 289 25 l 290 32 q 293 47 292 41 q 454 197 424 94 q 549 115 530 171 z "},"9":{"ha":522,"x_min":-31,"x_max":506,"o":"m 388 -18 l 387 -24 l 387 -30 q 378 -50 386 -43 l 374 -48 q 372 -47 372 -47 q 361 -16 368 -33 l 355 -1 l 347 14 q 327 77 330 53 l 323 98 q 321 120 321 112 q 334 278 320 215 q 336 317 336 293 l 335 338 l 334 359 q 279 333 313 349 l 224 307 q 193 329 203 312 q 164 423 163 377 l 175 431 q 189 440 182 437 l 254 475 l 319 511 q 357 572 336 532 l 366 589 l 375 607 q 395 642 385 627 q 358 637 378 640 l 351 641 l 342 644 q 323 651 332 648 q 178 657 252 676 q 138 618 146 650 q 131 505 118 553 q 132 457 137 485 l 127 434 l 123 410 q 120 399 122 406 l 118 393 l 116 386 q 77 363 94 374 q 56 388 64 379 q 47 380 53 385 l 40 373 q 34 352 37 365 l 31 341 l 26 329 l 23 336 l 20 343 q 16 355 16 350 q -8 439 11 405 q -21 551 -31 481 q 28 693 -9 639 q 121 764 61 740 q 140 766 127 767 l 150 766 l 161 765 q 323 800 230 818 q 353 794 343 797 q 383 785 370 790 q 428 749 418 770 q 425 689 437 728 q 456 663 444 682 q 465 644 459 656 l 475 625 q 506 549 496 587 q 484 459 488 522 q 475 375 481 422 l 465 290 q 425 92 454 219 q 410 43 420 72 l 401 18 l 392 -6 q 388 -18 389 -11 z "},"\u0000":{"ha":0,"x_min":0,"x_max":0,"o":""}," ":{"ha":345,"x_min":0,"x_max":0,"o":""},"!":{"ha":288,"x_min":-60,"x_max":218,"o":"m 90 366 q 86 429 106 399 q 88 399 87 418 l 89 382 l 90 366 m 64 565 q 64 564 64 564 l 73 511 l 77 485 l 81 458 q 88 485 91 470 l 82 515 q 75 545 79 532 l 75 549 l 75 551 l 73 557 q 65 567 71 564 l 64 565 m 7 789 q -12 847 -3 829 l -20 849 l -28 851 l -17 821 l -6 791 l 16 733 q 7 789 16 750 m 41 682 q 41 705 41 692 l 39 718 l 37 729 q 35 775 33 759 q 44 777 41 779 q 47 774 45 775 l 49 770 l 50 772 q 51 774 51 773 l 49 798 l 47 821 q 43 869 46 852 l 43 879 l 43 889 q 41 909 42 902 l 34 891 l 31 891 l 29 897 l 28 902 q 26 913 26 908 q 28 935 26 921 l 29 958 q 28 969 29 962 l 28 975 l 27 981 q 26 986 26 983 l 27 989 l 27 993 q 37 986 37 987 q 39 983 38 985 l 40 981 l 41 979 l 42 983 l 43 985 q 44 990 44 988 q 58 1050 46 1016 q 59 1063 60 1055 l 58 1071 l 57 1079 l 62 1080 l 68 1082 l 81 1084 q 98 1048 96 1069 q 102 991 99 1025 l 104 962 l 107 932 q 118 926 111 928 l 131 923 q 156 911 149 920 l 155 908 l 155 905 q 152 898 154 901 q 143 867 143 886 l 143 854 l 143 843 q 144 819 142 828 l 145 797 l 147 775 q 153 732 149 749 q 159 692 157 714 l 162 661 l 164 631 l 169 589 q 172 547 171 563 q 176 482 174 520 l 177 451 l 178 420 q 176 414 177 418 l 173 409 q 168 399 170 404 q 171 376 169 391 l 174 353 q 136 344 159 336 q 128 340 134 342 l 123 338 l 119 336 l 112 338 l 104 341 l 90 347 q 95 267 85 313 q 100 194 103 227 l 98 197 l 96 199 q 94 202 94 201 l 85 252 q 77 302 80 281 q 76 326 76 312 l 77 338 l 77 351 l 77 375 q 77 399 77 390 q 70 450 75 428 q 68 441 69 446 l 66 435 q 59 435 61 433 q 56 442 57 437 q 52 477 54 456 q 23 650 41 574 q -35 830 3 736 q -43 847 -37 837 l -51 864 q -56 873 -53 867 l -58 878 l -60 884 l -58 886 l -56 888 l -52 892 l -47 890 l -41 888 q -32 884 -35 886 l -33 879 l -35 874 q -37 865 -37 869 q -22 861 -30 864 l -15 860 l -8 858 q 6 836 1 848 q 10 823 8 830 l 13 811 l 27 747 l 41 682 m 100 -66 q 161 -66 135 -83 l 100 -66 m 71 22 q 57 -7 58 5 q 66 -3 60 -6 l 71 -1 l 75 1 q 89 14 85 6 q 71 22 83 26 m 47 5 q 69 37 58 20 l 74 35 l 77 35 l 85 33 l 88 33 l 91 31 q 97 31 95 31 q 120 34 106 36 l 126 33 l 132 33 q 144 31 140 31 l 149 26 l 154 22 l 158 7 q 161 -7 160 -1 l 172 -15 l 182 -22 q 188 -52 193 -33 l 215 -24 l 218 -25 l 218 -28 l 218 -31 q 216 -36 217 -34 q 154 -84 195 -73 q 115 -84 138 -89 q 47 -41 79 -77 l 47 5 m 186 68 l 176 74 l 165 79 q 108 95 140 93 q 60 89 79 97 q 28 56 33 79 l 18 58 q 34 86 18 73 q 85 106 56 104 q 185 85 136 111 q 190 82 187 84 l 193 80 q 195 77 194 79 q 186 68 191 73 z "},",":{"ha":295,"x_min":-12,"x_max":353,"o":"m 213 170 q 211 155 208 161 q 215 151 212 153 l 219 148 l 224 149 q 219 159 222 153 l 216 163 l 213 170 m 248 -75 l 255 -71 q 259 -68 258 -70 l 269 -57 l 278 -45 q 336 127 340 29 q 330 196 334 157 q 310 227 328 219 l 289 216 l 268 203 q 229 176 244 189 q 237 157 233 168 l 241 147 l 244 138 q 264 104 253 117 q 270 93 267 100 l 275 79 q 279 64 277 73 l 281 59 q 283 54 283 56 q 269 24 283 37 l 262 20 l 256 15 q 247 4 250 9 q 254 -2 249 2 l 258 -5 l 262 -7 q 269 -25 269 -14 l 258 -32 l 246 -39 l 247 -56 l 248 -65 l 248 -75 m 87 176 l 96 178 l 106 180 l 114 189 l 121 197 q 137 214 132 208 q 154 219 145 217 l 161 221 l 168 223 l 193 209 l 219 195 q 241 208 229 199 l 264 222 q 311 245 291 239 q 347 190 341 234 q 352 104 352 148 q 310 -31 353 25 l 296 -50 l 283 -68 q 254 -106 265 -92 q 218 -165 238 -127 l 209 -181 q 199 -196 203 -190 q 171 -218 186 -212 q 128 -233 153 -226 l 106 -240 l 84 -246 q 53 -235 70 -250 q 68 -166 41 -199 q 107 -31 113 -111 q 106 7 106 -16 l 107 27 l 107 47 q 75 28 95 40 l 43 9 q -12 78 8 26 l -5 84 l 3 90 l 16 101 l 29 112 l 41 123 q 68 172 69 146 q 87 176 75 174 z "},".":{"ha":178,"x_min":-15,"x_max":186,"o":"m 1 56 l 6 40 l 10 24 q 19 -6 15 5 q 65 -50 33 -45 q 125 -20 106 -54 l 139 4 l 152 28 q 152 34 153 31 l 151 40 l 145 41 l 132 13 q 115 9 125 12 l 107 6 l 99 3 q 66 -3 79 -5 q 53 26 56 5 l 52 35 l 50 42 q 43 56 48 51 l 1 56 m 176 119 l 177 121 l 178 124 l 180 121 l 182 119 q 185 115 185 117 l 186 100 l 186 85 q 181 55 186 68 l 173 34 l 164 14 q 142 -24 154 -9 l 137 -33 q 131 -40 134 -37 q 68 -65 104 -70 q 14 -24 31 -60 q -15 90 -14 38 q 33 173 -15 137 q 39 174 35 174 l 43 174 l 47 174 q 33 153 44 163 l 28 149 l 24 144 q 17 136 19 140 l 11 126 q 5 116 7 120 q 3 92 0 104 l 45 122 q 47 128 46 125 l 47 132 q 58 139 52 134 l 62 142 l 66 145 q 82 157 76 152 l 86 160 l 91 163 q 101 168 96 167 q 130 174 113 170 l 161 179 q 164 163 164 172 l 163 155 l 163 146 q 172 113 161 125 q 176 119 174 116 z "},"?":{"ha":502,"x_min":-59,"x_max":467,"o":"m 356 783 l 324 789 l 323 785 q 356 759 331 779 l 356 783 m 301 780 q 295 780 298 781 q 286 772 290 779 l 300 766 l 313 760 q 340 729 328 748 q 356 719 345 721 l 356 743 l 353 745 l 350 748 q 343 753 346 751 l 325 767 l 307 780 l 301 780 m 403 682 q 403 674 403 677 l 404 661 l 405 647 q 406 621 406 631 l 407 582 q 406 543 407 559 q 397 464 405 498 q 453 576 446 503 q 403 693 459 642 l 403 682 m 340 494 q 342 541 348 517 q 307 654 326 608 q 252 686 292 692 l 250 675 q 248 665 248 669 q 244 570 245 604 q 253 454 243 525 l 254 449 l 254 445 q 255 435 254 439 q 264 418 257 425 q 276 433 271 423 l 277 438 l 279 442 q 284 450 282 447 q 297 465 290 456 l 300 469 l 304 474 q 312 484 309 479 q 325 488 316 485 l 332 491 l 340 494 m 358 390 l 355 389 l 351 389 l 349 381 l 346 374 l 340 359 l 335 347 q 330 336 332 340 q 314 316 323 323 q 300 307 309 312 l 292 302 l 284 298 q 275 282 279 288 q 264 266 269 273 l 264 241 l 263 216 q 260 168 262 187 q 256 96 256 140 l 256 60 q 256 24 256 39 l 243 14 q 231 3 235 8 q 203 -6 220 -13 q 201 -19 200 -12 l 205 -31 l 208 -37 l 209 -44 q 208 -58 211 -52 l 205 -55 q 202 -52 203 -54 q 195 -34 199 -45 l 191 -24 l 186 -14 l 178 -13 l 169 -11 q 160 14 159 -3 q 156 59 160 33 l 152 81 l 149 102 l 144 131 l 140 159 q 138 216 136 192 l 138 219 l 138 222 q 139 227 138 225 q 142 241 143 233 q 138 254 142 245 q 151 265 145 263 q 175 269 156 267 q 199 247 189 262 q 191 277 205 262 l 186 281 l 182 286 q 180 294 178 290 q 203 322 199 317 q 211 366 208 349 q 229 371 221 368 l 235 381 q 222 478 222 442 l 221 498 l 220 518 q 219 557 219 543 q 220 606 219 578 l 223 654 q 224 670 223 661 l 226 678 l 227 686 q 203 701 214 694 q 135 654 176 691 q 107 622 121 641 q 95 604 102 614 l 83 587 l 79 588 l 76 589 q 69 591 71 590 q 52 549 60 574 l 45 528 l 39 507 q 12 462 33 486 q -20 467 -5 459 q -47 484 -30 471 q -43 498 -46 490 l -41 505 l -39 511 q -59 539 -46 521 l -53 545 l -47 551 q -17 584 -33 564 q -4 602 -12 591 l 8 621 l 22 640 l 35 660 q 66 696 52 682 q 102 724 81 710 q 157 768 138 747 q 112 750 136 762 q 92 740 104 747 l 71 730 q 33 704 56 722 l 24 696 l 16 689 q -3 675 5 681 q -9 688 -7 683 q 243 809 83 772 q 349 818 289 832 q 390 789 376 811 q 401 741 405 768 q 401 727 399 736 l 401 720 l 403 713 l 411 703 l 419 694 l 435 675 q 466 587 467 638 q 452 507 466 540 q 406 446 435 469 q 363 391 378 425 q 358 390 361 391 m 159 -244 l 157 -241 l 155 -239 q 153 -236 153 -237 q 142 -235 149 -235 l 137 -235 l 132 -235 q 113 -228 119 -235 q 117 -214 114 -224 q 166 -212 137 -214 q 169 -205 167 -211 l 159 -199 l 153 -197 l 147 -195 q 155 -174 149 -189 l 155 -171 l 155 -167 q 155 -158 155 -161 q 162 -138 158 -144 q 197 -95 180 -115 q 209 -85 201 -90 l 215 -80 l 220 -76 q 242 -85 232 -76 l 247 -89 l 251 -93 q 260 -100 256 -98 l 260 -115 q 249 -128 253 -123 l 248 -131 l 248 -134 q 245 -141 247 -138 q 213 -203 230 -173 q 197 -222 208 -214 l 187 -231 l 178 -238 q 169 -242 174 -241 l 164 -243 l 159 -244 m -28 617 l -30 619 l -31 621 q -35 625 -33 623 l -31 630 q -26 634 -28 633 q -14 637 -21 638 q -16 624 -12 629 q -22 621 -18 622 l -25 618 l -28 617 z "},"A":{"ha":534,"x_min":-9,"x_max":587,"o":"m 192 469 l 188 471 l 184 463 q 181 455 182 458 l 181 452 l 182 450 l 182 448 l 184 448 l 192 469 m 206 496 l 214 512 q 227 543 222 530 q 235 561 231 551 l 241 580 q 243 585 242 582 l 243 587 l 243 590 q 204 509 221 552 l 203 506 l 201 503 q 198 496 199 499 q 197 490 197 493 q 199 481 197 485 l 206 496 m 433 309 l 429 309 q 421 302 423 307 l 437 262 l 453 222 q 486 140 475 168 q 465 222 485 150 q 437 311 444 295 q 433 309 435 310 m 318 354 l 317 365 q 313 387 315 378 l 309 409 l 305 430 l 301 452 l 297 475 l 295 486 l 294 497 q 286 519 291 510 q 283 513 285 517 l 280 507 q 275 494 277 499 l 252 441 q 229 389 239 410 q 215 350 222 372 l 201 311 q 199 303 199 309 l 197 298 q 197 292 197 294 q 252 308 220 298 l 265 312 l 278 317 q 303 325 294 322 q 319 343 313 336 l 318 354 m 497 -60 q 505 -68 499 -63 q 502 -62 503 -66 l 501 -60 l 500 -57 q 492 -48 497 -50 q 478 -22 490 -35 l 480 -29 q 483 -36 482 -33 q 492 -48 486 -44 q 497 -60 495 -58 m 174 224 q 139 117 154 151 l 138 114 l 137 111 q 134 106 136 109 q 117 69 124 92 q 111 49 115 62 l 108 39 l 105 29 q 102 24 104 24 q 96 20 102 22 q 96 29 96 25 q 98 43 96 37 l 93 50 l 89 56 l 82 41 l 75 26 l 62 -3 l 60 -9 l 57 -16 q 49 -29 52 -27 q 33 -34 46 -32 l 29 -45 l 24 -56 q 14 -79 18 -69 q 5 -74 9 -76 l 9 -61 l 13 -47 l 20 -22 q 17 -18 18 -20 l 16 -16 l 15 -14 q 11 -8 12 -10 l 17 14 l 22 37 l 34 80 q 68 176 50 139 q 73 187 70 180 l 75 193 l 77 200 q 61 202 69 201 l 60 203 l 58 205 l 55 208 l 55 226 l 47 225 l 40 224 q 24 223 31 223 l 20 223 q -7 228 5 223 q -7 231 -7 229 l -9 234 q 101 269 26 257 q 108 288 107 275 l 109 317 q 112 347 111 334 l 113 361 q 119 376 115 370 q 120 361 120 370 q 119 335 120 351 q 117 313 117 321 l 117 308 q 119 292 117 299 q 127 355 124 323 l 129 379 q 132 404 130 393 q 142 451 135 431 l 143 455 q 144 459 144 458 q 151 465 147 463 q 158 460 153 464 q 140 403 144 437 l 139 388 l 137 373 q 136 360 136 366 q 138 343 136 351 l 157 390 l 159 393 l 160 397 q 172 456 172 418 q 170 475 172 464 l 168 495 l 168 496 l 170 497 q 174 500 172 499 l 176 492 l 177 484 q 180 469 178 475 q 185 475 183 471 l 186 478 l 188 481 q 228 578 207 534 l 240 605 l 252 631 q 257 643 254 636 l 258 646 l 259 648 q 260 653 260 651 q 260 660 260 656 l 259 667 q 258 677 258 673 q 262 682 260 680 l 265 684 l 268 686 q 275 696 274 690 q 279 707 277 701 l 280 713 l 282 720 q 290 722 285 722 l 295 724 l 300 725 q 323 770 308 739 l 323 767 q 321 751 323 760 l 319 747 l 318 743 q 315 734 316 738 l 319 737 l 322 743 q 323 736 323 740 l 323 732 l 330 728 l 333 726 l 336 724 q 376 840 361 770 l 380 840 l 384 841 l 386 825 q 387 810 387 817 q 379 812 385 810 l 372 789 q 365 766 368 777 q 345 721 355 741 q 348 716 346 720 q 350 713 349 714 l 352 709 l 351 703 l 351 696 q 348 683 349 688 q 329 625 342 652 q 324 604 324 614 q 328 585 324 595 q 338 555 332 574 l 342 541 l 347 526 l 348 523 l 349 521 q 351 517 349 518 q 355 511 353 515 l 357 507 l 359 503 q 361 496 359 500 l 363 494 l 365 491 q 405 347 376 424 l 411 346 l 416 346 q 425 351 421 347 q 355 610 372 512 l 359 608 q 362 606 361 607 q 369 581 366 592 q 399 463 383 514 l 434 356 l 436 351 l 453 355 l 470 359 l 490 364 l 509 369 q 513 370 511 370 q 526 366 519 370 q 527 354 526 361 l 527 347 q 528 339 528 342 q 515 330 527 333 q 460 317 494 326 q 455 315 458 317 l 452 315 l 448 313 l 463 264 l 476 216 q 505 117 494 153 q 519 124 512 124 q 525 123 522 124 l 528 116 l 530 109 q 535 95 534 102 q 538 73 538 83 q 538 64 538 68 l 534 60 q 528 54 530 56 q 534 35 530 45 l 538 25 l 542 16 q 554 -25 551 -7 q 547 -16 548 -17 l 536 8 l 526 32 l 524 35 l 523 39 q 516 44 521 43 l 515 42 l 515 41 q 514 38 514 39 l 514 37 q 519 19 515 27 q 522 6 521 14 l 523 -1 l 524 -7 q 526 -27 525 -15 l 526 -47 q 536 -85 528 -70 q 530 -90 534 -87 l 533 -96 l 580 -189 l 583 -195 q 585 -201 584 -198 q 587 -211 587 -206 l 587 -213 q 568 -182 578 -200 l 551 -151 q 514 -90 528 -112 l 520 -104 l 524 -111 l 525 -115 l 527 -119 q 519 -127 523 -123 q 500 -111 508 -123 l 496 -106 l 493 -102 q 486 -92 489 -95 q 473 -94 480 -93 l 467 -94 l 463 -95 q 447 -78 454 -90 l 445 -73 l 442 -68 q 437 -58 439 -62 l 435 -59 l 432 -60 q 424 -52 428 -57 l 421 -46 l 418 -41 l 412 -31 q 406 -20 409 -24 q 395 3 399 -12 l 390 16 q 386 28 388 23 q 383 35 385 31 l 380 43 q 375 59 378 54 q 368 81 371 68 l 366 93 l 363 104 l 355 145 l 347 186 l 341 215 l 336 244 l 334 255 l 332 267 q 330 272 332 269 l 329 275 l 328 279 l 317 275 l 306 271 l 284 264 l 205 237 l 198 235 q 191 233 193 234 q 182 229 187 231 l 178 227 l 174 224 z "},"B":{"ha":621,"x_min":-74,"x_max":639,"o":"m 543 308 l 542 300 l 545 299 l 545 300 q 546 303 545 302 l 547 305 l 548 307 q 549 310 549 309 q 545 317 549 314 q 543 308 544 313 m 483 141 l 455 98 l 456 96 q 486 140 469 110 l 483 141 m 195 448 l 198 425 l 201 401 q 202 411 202 406 q 199 448 202 427 l 197 459 l 195 471 q 191 494 192 486 q 195 448 191 474 m 398 585 l 403 574 l 408 565 q 417 561 412 564 l 421 559 l 426 556 q 431 568 430 564 q 401 587 411 581 l 398 585 m 178 566 q 165 569 173 569 q 155 568 161 569 l 157 554 l 157 541 q 160 514 158 525 q 169 472 163 497 l 173 451 l 178 430 q 189 413 180 418 q 178 566 180 473 m 178 640 l 180 639 q 182 638 181 638 l 241 619 q 248 618 243 618 l 250 618 q 290 610 267 618 l 336 593 q 382 576 365 584 q 387 575 385 576 l 390 574 l 393 574 q 370 602 389 594 l 359 608 l 347 613 q 324 623 334 619 q 250 641 281 641 l 245 641 l 242 640 l 239 641 q 216 643 229 643 l 209 643 q 194 642 203 643 l 178 640 m 191 556 l 192 547 q 195 530 193 537 l 200 498 l 205 466 q 208 450 206 460 l 209 434 l 214 383 l 216 368 l 217 359 l 218 351 l 231 359 l 245 366 q 270 380 260 374 q 307 409 296 397 q 382 473 340 442 q 393 488 390 478 l 396 495 l 399 503 l 397 505 l 397 506 q 395 508 395 507 l 382 515 l 370 522 q 346 534 357 530 q 233 560 292 556 q 212 563 224 561 l 201 564 q 189 566 194 565 l 191 556 m 229 267 l 231 252 l 234 237 q 240 207 237 218 l 258 135 q 274 63 268 94 q 301 24 277 43 l 302 24 l 304 25 q 307 27 306 26 l 329 52 q 351 77 342 66 l 372 102 q 394 127 384 117 q 441 173 418 155 q 448 181 446 177 q 481 235 462 203 l 481 238 l 481 239 l 477 237 l 473 235 q 467 231 469 233 q 463 227 465 230 l 462 226 l 460 224 q 456 222 458 222 q 452 223 454 222 l 452 227 l 454 231 q 454 237 454 235 l 454 239 q 454 248 454 243 l 454 252 l 454 258 l 454 267 q 460 285 454 276 q 466 294 463 288 l 469 298 l 471 304 l 467 306 l 463 308 q 456 311 459 310 l 424 321 l 391 332 l 374 339 l 366 342 l 357 345 l 355 350 l 354 355 l 351 365 l 336 351 l 321 337 q 292 311 304 321 q 261 289 280 301 l 229 267 m 337 -111 l 337 -93 l 338 -75 q 342 -41 339 -62 l 345 -24 l 347 -7 q 324 -29 338 -16 l 302 -51 q 305 -68 303 -58 l 309 -85 q 307 -107 307 -94 l 307 -113 l 307 -126 l 307 -142 q 317 -193 307 -164 q 302 -177 308 -189 l 292 -157 q 281 -136 286 -144 q 274 -125 279 -131 l 266 -114 q 252 -81 255 -100 q 245 -70 250 -73 q 142 -104 206 -87 q 141 -100 141 -102 q 142 -98 141 -99 q 144 -97 142 -98 l 146 -96 q 191 -68 163 -86 l 214 -53 q 237 -39 227 -45 l 238 -38 l 239 -37 l 239 -25 q 232 -16 238 -19 q 227 -22 231 -18 l 225 -24 l 222 -28 q 205 -7 216 -18 q 194 1 201 -4 l 189 5 l 184 9 q 147 68 153 35 q 144 77 146 72 l 143 81 l 141 85 l 143 85 l 146 85 q 149 85 148 85 q 160 80 154 83 l 163 79 l 166 77 q 173 74 170 75 l 174 73 q 177 71 176 71 q 183 65 180 68 q 184 68 184 67 q 180 77 184 74 q 176 81 179 79 l 172 85 q 175 100 175 92 q 172 115 175 107 q 155 162 163 135 l 148 186 l 141 210 q 140 214 141 212 l 139 216 l 138 218 l 131 215 l 124 212 l 116 214 l 107 216 l 102 227 l 100 227 q 99 227 100 227 l 47 185 l -4 143 q -26 130 -15 134 q -64 106 -48 119 q -68 102 -65 104 l -71 101 l -74 99 q -71 109 -73 104 q -68 113 -70 111 l -65 116 l -41 140 l -16 165 l -12 170 l -7 176 q 2 186 -1 182 q 54 231 25 206 q 75 247 62 237 l 85 255 l 96 264 l 86 328 l 76 391 q 59 521 64 468 q 48 512 54 517 l 43 509 l 38 505 l 37 507 l 36 508 q 35 511 35 510 q 35 523 35 515 l 33 534 l 33 540 q 35 559 33 551 q 66 601 43 585 l 75 606 l 84 612 l 88 625 q 92 637 90 632 q 103 653 96 648 q 122 659 110 658 q 127 659 124 659 l 132 660 l 139 661 l 145 661 q 155 648 149 656 l 172 650 l 189 650 l 197 651 q 203 652 201 652 l 222 650 q 241 649 234 650 q 326 631 281 649 q 345 623 333 627 l 363 614 l 369 613 q 327 646 353 631 q 231 677 281 671 q 153 684 191 684 q 132 683 142 684 q 87 668 109 682 q 82 665 85 667 l 79 666 l 81 669 q 82 672 81 671 q 130 692 104 692 l 144 692 l 157 692 q 184 692 173 692 q 326 655 273 685 q 378 614 359 636 q 404 593 392 598 q 412 588 408 591 l 420 583 q 437 574 430 577 q 457 614 446 593 l 464 615 l 469 616 q 481 617 476 616 q 486 614 482 616 l 490 609 q 495 580 495 594 q 480 532 495 555 l 481 525 l 483 518 q 486 507 485 511 l 486 504 q 484 493 486 499 l 481 499 l 479 505 q 475 519 477 513 q 471 512 473 516 l 469 509 l 467 505 q 459 492 462 498 q 450 473 455 485 l 444 463 q 439 452 441 456 q 441 437 440 447 l 442 429 l 444 420 q 467 415 459 417 q 490 406 480 411 l 495 403 l 499 400 q 541 381 522 383 q 572 284 570 345 q 585 304 576 292 l 591 314 l 597 324 q 621 362 612 347 q 626 374 624 366 l 628 379 l 630 385 q 623 403 629 394 q 618 410 621 406 l 612 418 q 639 384 635 408 q 618 338 636 366 l 589 294 q 560 249 572 267 q 541 218 551 235 l 522 186 l 513 170 l 505 155 q 487 123 494 136 q 469 99 479 113 l 460 87 l 452 76 q 431 53 444 65 q 422 45 428 50 l 418 42 l 414 38 q 408 32 412 36 l 401 25 q 399 28 401 26 l 396 30 q 408 43 399 37 l 411 46 l 414 49 q 420 54 418 52 q 406 67 416 58 q 356 -15 366 32 q 347 -113 347 -57 l 347 -137 q 342 -146 345 -142 q 337 -111 338 -131 z "},"C":{"ha":523,"x_min":-33,"x_max":556,"o":"m 64 412 q 68 422 68 417 q 64 432 68 427 l 64 412 m 77 321 q 79 337 79 330 q 77 351 79 345 q 74 338 74 345 l 74 336 q 75 329 75 333 l 77 321 m 79 477 q 75 463 75 471 q 77 452 75 458 l 82 463 l 87 473 l 97 494 q 79 477 83 486 m 87 326 q 87 307 87 319 l 86 296 l 85 286 q 102 233 88 269 q 112 201 108 221 l 115 185 l 118 169 q 129 130 121 155 q 143 116 132 120 q 186 99 159 110 q 200 94 192 97 l 207 92 l 214 90 q 203 87 207 87 l 202 87 q 186 92 199 87 q 159 98 170 96 q 199 68 182 76 q 264 83 224 68 q 274 87 267 84 l 279 90 l 285 92 q 319 100 305 98 q 338 102 326 100 l 348 104 l 357 106 q 370 108 358 106 q 359 95 359 96 l 357 93 l 355 90 q 351 84 352 87 q 332 68 344 70 q 326 62 332 67 q 392 75 369 67 q 414 95 404 79 q 453 144 436 130 q 473 156 463 152 l 485 176 l 496 195 q 519 235 510 218 q 530 258 524 243 l 534 269 l 539 281 q 548 296 542 287 l 556 300 q 536 227 543 272 q 533 208 536 220 l 531 199 l 529 190 q 526 167 526 177 q 528 154 526 160 l 520 136 l 513 119 q 498 85 505 99 q 445 22 479 43 l 443 20 l 440 19 q 397 -14 422 12 q 359 -48 374 -37 q 341 -58 352 -53 l 332 -62 l 322 -66 q 319 -67 321 -67 q 313 -65 317 -67 l 325 -58 q 337 -52 332 -54 q 394 -3 365 -38 q 395 -2 395 -3 l 395 0 q 387 1 391 1 q 375 -1 382 1 q 366 -3 371 -1 l 356 -5 q 309 -30 336 -11 q 264 -54 281 -49 l 260 -56 l 256 -58 l 249 -56 l 241 -55 q 212 -42 229 -53 l 191 -28 q 170 -14 178 -20 q 153 -1 163 -9 l 143 5 l 134 12 q 127 9 132 12 q 59 71 98 27 q 29 110 41 92 q 18 133 20 125 q 30 123 24 132 l 33 120 l 35 117 q 41 112 38 113 q 26 147 37 127 l 14 167 q 1 188 7 178 q -3 198 -1 191 l -5 203 l -7 210 q -8 189 -8 198 l -10 189 l -12 192 l -14 195 q -16 201 -16 199 q -32 282 -29 252 q -33 307 -33 294 q -31 351 -33 328 q -1 466 -26 399 q 43 549 15 510 q 81 580 57 567 q 113 595 99 590 q 131 610 125 601 q 135 616 132 612 l 140 621 q 152 624 145 622 l 157 626 l 163 628 q 182 631 174 631 l 187 631 l 193 636 q 198 641 196 639 q 216 625 205 634 q 225 626 220 625 l 230 627 l 235 628 q 248 611 246 625 l 248 596 q 251 581 249 587 q 260 562 253 571 q 293 522 276 541 l 310 503 l 328 485 q 361 448 349 460 q 376 430 368 441 l 382 420 l 390 412 q 369 398 383 401 l 357 396 q 345 393 349 395 l 355 376 l 365 361 l 385 330 l 386 317 l 387 304 q 390 276 389 286 l 390 275 l 391 275 l 392 272 l 393 270 l 395 267 l 392 267 l 383 276 l 374 286 q 356 304 363 297 q 323 346 338 322 q 313 361 318 353 l 308 370 l 303 377 q 298 378 301 378 l 294 378 l 290 377 q 285 376 288 376 q 278 378 281 376 l 279 383 q 281 388 281 386 q 281 393 281 390 l 281 398 q 273 404 277 401 l 273 406 q 275 411 275 409 q 273 416 275 414 l 266 431 l 258 445 q 219 517 245 471 q 217 521 218 519 l 216 522 l 215 524 l 213 524 q 203 515 206 524 q 195 489 197 498 q 193 476 195 484 l 193 470 l 192 463 l 187 432 l 183 400 l 176 334 l 175 322 l 174 311 l 174 307 q 184 235 174 281 q 185 229 184 233 l 185 226 l 186 222 q 180 228 182 224 l 178 232 l 177 235 q 168 286 168 263 l 168 309 q 168 332 168 321 q 171 359 169 344 l 174 386 l 178 412 l 182 439 q 189 481 186 458 l 189 493 l 186 492 l 184 491 q 180 488 182 490 l 163 472 l 146 455 q 113 421 127 435 q 78 361 92 399 q 87 326 87 347 z "},"D":{"ha":555,"x_min":-37,"x_max":607,"o":"m 450 189 q 460 199 460 189 l 450 189 m 214 22 l 224 22 q 231 31 227 24 q 214 22 220 26 m 547 262 l 522 262 l 522 260 l 520 259 q 517 256 519 256 q 513 253 516 254 l 511 252 l 508 252 q 509 241 508 248 q 517 248 513 244 l 522 252 l 524 254 l 526 254 q 536 250 532 254 l 538 248 l 541 245 q 545 242 543 243 l 549 245 l 551 248 q 557 255 555 252 q 547 262 549 261 m 148 97 q 159 29 148 62 q 161 61 161 49 q 160 75 161 69 q 149 114 158 88 q 148 97 148 105 m 382 73 l 308 26 q 314 25 311 25 l 317 26 l 334 26 q 359 49 345 36 l 384 72 l 382 73 m 267 546 l 264 549 q 260 553 262 551 q 218 585 235 572 q 183 610 203 597 q 179 612 182 612 l 174 614 l 173 612 l 214 575 l 254 538 q 269 543 259 540 l 267 546 m 182 502 l 189 498 q 201 491 196 494 l 207 488 l 213 484 q 225 476 220 479 q 231 473 228 475 l 233 471 l 237 469 q 250 465 243 465 l 240 475 l 231 484 q 211 504 219 496 q 169 541 189 526 q 176 506 169 526 q 182 502 178 504 m 488 288 l 481 295 q 474 302 477 299 l 439 331 l 435 334 l 430 338 q 421 345 425 342 q 389 361 401 358 q 328 381 355 367 q 212 446 266 412 q 197 456 206 450 l 188 460 q 179 466 182 463 l 180 459 l 180 453 q 182 441 181 446 l 183 419 q 185 397 184 406 l 189 361 l 194 326 l 197 294 l 200 271 q 203 248 202 257 q 205 214 203 234 l 206 179 l 206 177 q 207 175 206 176 q 209 159 209 169 l 209 152 q 210 144 209 147 l 210 137 l 211 130 q 212 119 212 123 l 212 114 q 205 62 210 88 q 203 46 203 54 q 205 29 203 38 l 213 33 l 220 37 q 234 46 229 41 l 228 59 q 222 71 224 66 q 219 85 221 77 l 216 100 q 222 104 219 102 q 227 109 224 106 l 227 111 l 226 113 q 225 118 225 117 q 231 125 225 123 q 252 98 242 117 l 257 90 l 261 81 q 271 66 267 73 q 303 86 284 71 q 320 100 310 92 l 328 108 l 336 115 l 371 147 l 376 152 l 382 157 q 393 166 388 163 q 441 205 422 185 q 445 201 443 204 l 447 199 l 448 196 l 450 199 l 452 201 q 456 205 454 203 q 460 208 458 207 l 462 210 q 463 210 463 210 q 465 217 464 213 l 466 222 q 467 233 467 229 q 486 283 470 268 q 488 286 487 284 l 488 287 l 488 288 m 541 186 q 523 142 534 160 l 515 127 l 507 114 q 489 87 497 99 q 431 25 465 54 q 378 -14 399 -2 q 351 -29 366 -22 q 330 -47 334 -37 q 328 -50 330 -48 l 326 -52 q 316 -53 321 -52 q 312 -44 314 -48 l 302 -43 l 293 -43 l 293 -41 l 302 -37 l 311 -33 q 305 -25 310 -28 l 303 -24 l 301 -23 q 297 -21 298 -22 q 271 -36 281 -29 l 270 -36 l 269 -37 l 267 -36 l 264 -35 q 261 -34 262 -34 q 259 -35 260 -34 q 218 -45 245 -40 l 217 -47 l 216 -48 l 220 -50 l 224 -52 q 234 -56 231 -54 q 247 -71 243 -61 q 234 -81 242 -77 l 227 -85 l 219 -89 q 212 -90 216 -90 q 195 -85 205 -90 l 189 -83 l 183 -81 q 171 -76 176 -77 l 161 -69 l 152 -62 l 132 -46 l 129 -44 l 126 -41 l 90 -7 q 54 28 69 13 q 44 39 50 32 l 40 45 l 36 52 l 28 62 l 21 73 q 3 92 12 85 q -5 100 0 96 l -10 104 l -15 107 l -26 98 q -37 120 -37 106 l -37 121 q -22 153 -36 136 l -10 153 q 38 117 15 141 q 58 94 47 108 l 66 83 l 76 71 l 76 75 q 74 96 76 83 l 72 108 q 70 120 71 115 q 66 144 69 130 l 64 157 l 62 170 l 59 195 l 56 220 l 54 243 l 51 268 l 47 293 l 43 317 l 40 342 l 37 368 l 35 380 l 33 392 q 33 403 33 397 q 34 417 33 410 l 40 387 l 46 356 q 58 290 53 321 q 61 263 59 279 l 64 236 l 73 166 l 77 142 q 80 117 78 127 q 85 90 82 105 l 90 63 q 116 28 94 44 q 125 22 119 25 l 131 19 l 136 16 q 141 49 141 35 l 141 55 q 138 75 140 64 l 135 96 l 131 121 q 126 146 128 136 q 123 175 123 161 l 123 184 l 126 186 l 129 189 l 129 193 l 127 209 l 126 226 q 109 321 123 287 q 103 347 105 332 l 100 361 l 98 375 q 109 373 104 374 q 113 351 111 365 l 118 330 l 119 330 l 119 337 l 119 360 l 117 382 l 111 444 l 110 467 l 108 489 l 111 494 l 114 498 l 114 500 q 113 503 113 503 l 104 508 q 94 513 98 511 l 83 518 l 71 523 q 47 533 55 530 q 40 537 43 534 l 37 540 l 34 542 q 36 554 35 546 l 37 559 l 39 566 q 43 568 41 567 q 48 572 45 570 l 75 564 q 101 556 91 559 q 109 540 106 547 q 124 551 118 544 q 129 558 126 554 l 133 566 q 131 588 132 572 l 134 589 l 137 591 q 144 594 142 593 l 152 587 l 159 581 q 165 562 160 575 q 212 520 186 546 l 235 498 l 258 475 q 287 455 268 466 q 283 463 286 458 l 280 466 l 277 469 l 275 472 l 272 475 q 267 481 269 479 l 219 530 q 170 577 191 558 l 155 592 q 139 607 145 601 q 104 633 120 623 l 98 635 l 93 639 q 81 642 87 642 q 77 645 79 643 l 74 646 l 72 648 q 73 652 73 650 l 74 656 l 69 660 l 64 664 l 73 673 l 82 682 q 161 665 132 675 q 197 646 178 659 q 213 635 204 642 l 229 624 q 295 572 266 597 q 334 536 309 561 l 350 522 l 395 477 q 425 440 411 461 l 434 428 q 436 424 435 427 l 437 422 l 437 419 l 435 418 l 433 418 l 428 416 q 528 326 488 367 q 574 292 548 304 q 594 275 589 286 q 588 260 592 271 l 585 252 q 581 242 583 247 q 604 263 593 246 l 605 259 l 606 256 q 607 250 606 252 l 584 233 l 579 235 l 575 236 l 574 235 l 572 235 q 524 184 547 218 l 519 178 l 497 155 l 475 132 q 446 115 461 117 l 441 110 l 436 105 q 426 95 430 98 l 412 83 l 399 71 q 372 47 382 56 q 356 31 366 40 l 348 22 l 340 13 q 336 6 338 11 l 334 2 l 332 -2 q 336 -12 334 -5 l 341 -22 q 366 -3 351 -17 l 371 3 l 377 8 q 391 18 384 14 l 389 13 q 387 9 388 11 q 377 1 383 6 l 374 -1 l 372 -3 q 366 -8 368 -6 q 417 22 381 -8 q 471 76 448 49 q 534 191 515 130 q 541 186 538 189 m 61 374 l 72 305 l 82 237 q 100 98 94 156 l 97 102 q 96 106 96 104 q 90 137 92 122 l 85 163 l 81 191 l 74 239 l 71 263 l 67 287 l 63 314 l 58 341 q 56 368 57 353 l 56 371 l 56 373 l 57 374 l 61 374 z "},"E":{"ha":656,"x_min":-75,"x_max":749,"o":"m 198 36 l 209 36 q 218 40 212 36 q 210 43 213 43 l 210 43 q 198 36 206 43 m 195 87 q 198 87 197 87 q 203 88 200 87 l 206 90 q 210 92 208 92 q 201 141 207 109 q 198 113 200 130 l 197 100 l 195 87 m 749 -7 q 744 -12 749 -10 l 743 -12 l 741 -12 q 738 -13 739 -12 q 728 -27 734 -18 l 717 -26 l 706 -25 l 702 -24 l 697 -24 q 675 -27 686 -27 q 639 -19 655 -27 q 630 -17 635 -18 l 627 -16 l 625 -16 q 618 -15 621 -16 q 605 -18 614 -16 l 598 -20 l 591 -21 q 562 -26 574 -25 q 530 -27 545 -27 q 490 -24 509 -27 q 416 -9 463 -21 q 370 -5 397 -5 q 338 -6 355 -5 q 323 -9 332 -6 l 317 -12 l 310 -14 l 272 -25 l 235 -37 q 218 -21 223 -31 q 213 -11 216 -17 l 209 0 q 180 -9 197 -3 l 178 -7 l 176 -4 q 184 11 178 3 q 191 18 187 14 l 197 24 q 189 25 193 25 q 169 20 178 25 q 152 16 163 16 l 149 16 q 146 26 148 20 l 144 31 l 142 35 q 138 52 138 45 l 138 54 l 143 59 l 146 63 q 154 72 151 68 q 172 120 165 87 q 179 181 178 153 q 180 195 179 186 l 181 208 l 181 212 q 174 229 181 222 l 152 248 q 131 266 140 258 q 84 302 111 283 q 72 311 79 307 l 66 315 l 60 319 q 23 351 33 336 q 10 368 18 359 l 3 376 l -5 384 q -1 387 -4 387 q 2 386 1 387 q 56 376 26 380 q 82 366 70 374 q 115 345 96 357 l 146 323 q 154 319 147 323 q 153 323 154 321 l 153 326 q 151 330 152 328 q 138 372 145 347 l 125 415 q 99 500 110 468 q 83 546 93 517 l 68 591 q 50 615 62 606 q -19 673 9 644 q -71 759 -54 711 q -73 764 -72 761 l -74 768 l -75 771 l -73 772 l -71 772 q -66 773 -68 773 q -20 692 -42 718 q 52 625 3 665 q 24 680 44 652 q 17 688 21 684 l 10 696 q -11 709 1 707 l -13 713 q -15 717 -14 715 l -15 722 l -16 724 q -21 732 -17 727 l -27 739 q -35 757 -33 748 l -26 750 l -18 743 q 1 729 -8 736 l 4 730 l 8 732 q 17 736 13 734 q 40 722 28 733 q 92 642 72 693 l 101 619 l 109 597 q 112 593 110 595 l 113 590 l 115 587 q 126 591 123 590 l 125 597 l 123 604 q 121 616 121 611 q 120 625 120 621 q 122 640 120 633 l 123 640 q 131 635 127 640 l 132 633 l 134 631 q 138 629 136 629 l 138 628 l 140 628 q 149 629 144 629 q 203 604 174 629 q 247 564 228 585 q 294 534 267 544 q 389 509 338 517 q 445 505 414 505 q 483 506 463 505 q 564 519 530 509 l 581 524 l 597 528 l 601 529 q 606 530 604 530 l 608 530 q 637 540 622 530 q 667 553 646 547 l 665 545 q 606 485 633 502 q 564 469 589 473 q 484 458 519 460 l 473 458 l 460 457 q 437 456 446 456 q 420 458 431 456 l 404 459 q 395 456 399 459 l 400 454 l 406 452 q 417 450 413 450 l 418 450 q 455 437 434 450 q 440 427 451 430 l 436 426 l 432 425 q 425 420 428 422 q 408 400 414 407 l 402 401 l 397 401 q 387 404 391 403 q 299 453 338 424 q 271 474 288 462 l 243 495 l 235 501 l 227 507 l 220 513 q 214 517 217 515 l 196 526 l 178 536 q 176 527 176 532 q 177 521 176 524 l 184 520 l 189 520 q 194 513 193 517 l 194 505 q 205 404 195 460 q 214 372 208 393 q 224 326 220 354 q 241 293 228 305 q 256 279 248 288 l 269 266 l 270 266 q 269 264 269 265 l 269 264 q 286 241 275 250 l 288 241 q 289 243 289 242 l 289 243 l 288 247 q 339 196 316 219 l 345 203 q 349 208 348 205 q 401 265 369 232 q 445 288 425 275 q 427 269 437 278 q 404 245 418 260 l 393 233 l 380 220 q 410 222 391 222 q 395 191 408 201 q 338 163 372 171 q 319 161 330 161 q 305 162 313 161 q 285 151 296 151 q 273 154 279 151 q 266 155 271 155 l 262 156 l 258 156 l 258 153 q 262 121 258 139 l 265 104 q 269 86 268 93 q 291 75 277 79 l 296 74 l 302 73 q 313 69 309 71 q 328 72 319 71 l 342 74 q 371 78 359 76 l 389 80 l 408 81 l 412 81 q 420 80 417 81 q 427 71 424 78 l 431 64 l 434 58 q 429 46 434 52 l 427 43 l 425 41 q 422 35 423 37 l 432 34 l 441 33 q 461 32 454 32 l 519 30 l 576 28 l 586 28 l 596 26 q 616 26 608 26 q 646 27 629 26 l 675 28 q 679 30 677 28 q 680 28 680 28 q 698 21 688 25 l 699 20 q 743 -3 716 11 l 749 -7 m 283 261 l 283 257 q 284 248 283 253 q 274 262 278 254 q 283 261 279 262 z "},"F":{"ha":473,"x_min":-33,"x_max":505,"o":"m 178 248 l 178 254 q 179 256 179 255 q 178 257 179 256 q 177 259 178 258 l 175 260 l 174 262 l 174 256 q 176 253 174 255 l 177 251 l 178 248 m 188 250 l 202 250 q 189 256 191 255 q 189 253 189 254 l 189 252 l 188 250 m 256 270 q 247 266 250 270 q 252 264 249 264 q 255 265 253 264 q 258 267 256 266 l 260 269 l 262 269 q 256 270 259 270 m 110 283 q 113 281 112 282 q 117 281 115 281 q 122 282 119 281 q 118 283 120 283 l 114 285 q 108 286 111 286 l 110 283 m 77 581 l 47 581 l 47 578 l 77 578 l 77 581 m 189 277 l 191 277 l 192 277 l 195 278 l 195 285 q 189 291 193 289 l 189 277 m 208 237 q 203 235 206 235 l 200 234 l 197 234 q 188 228 191 233 q 189 221 188 226 q 208 237 203 229 m 210 264 l 210 260 l 224 255 l 227 256 l 229 257 l 235 260 q 222 265 230 264 q 216 264 220 265 l 210 264 m 180 277 l 180 289 l 179 300 q 171 307 179 307 q 172 300 172 304 l 173 296 l 173 292 q 175 277 173 282 l 180 277 m 110 617 l 112 612 q 115 604 114 607 q 126 591 119 595 l 134 591 l 140 590 q 154 591 149 590 q 125 617 140 604 l 121 618 l 118 619 q 109 622 113 621 l 110 617 m 198 517 q 181 519 190 518 q 178 515 180 517 l 176 512 l 174 510 q 173 505 173 508 q 179 484 173 496 q 203 402 193 452 q 203 394 203 399 l 203 376 q 195 390 197 381 l 194 397 q 193 405 193 402 l 188 420 l 184 435 q 174 466 178 454 l 174 460 l 173 455 l 170 351 l 170 335 q 176 348 176 339 l 177 355 q 178 361 177 359 q 180 374 180 366 l 180 389 q 187 383 186 385 q 186 363 186 376 l 184 345 l 188 342 l 191 338 l 191 308 l 201 300 l 210 293 q 229 277 221 284 q 296 290 259 277 q 361 323 338 303 q 367 322 363 323 l 368 321 l 370 321 q 375 320 373 321 q 381 322 378 321 l 385 324 l 389 326 q 400 329 395 329 q 406 328 403 329 l 408 326 l 409 325 l 412 321 l 412 306 q 389 292 404 298 l 376 288 l 364 283 l 333 269 l 301 256 q 292 251 297 254 l 287 248 l 281 245 l 284 232 l 287 218 q 273 206 282 212 l 265 201 l 257 197 q 224 180 244 190 l 208 172 l 191 163 l 188 161 l 186 159 l 185 158 l 188 142 l 192 124 l 195 106 q 202 69 200 85 q 203 49 203 61 l 203 37 l 203 26 q 178 61 188 40 q 170 81 174 70 l 167 90 l 164 100 l 163 95 q 164 90 163 92 l 166 74 l 168 58 q 175 26 171 39 q 187 -18 180 8 l 199 -61 q 200 -70 199 -64 l 202 -81 l 203 -94 l 203 -96 q 201 -107 203 -102 q 157 3 174 -56 l 136 3 q 139 29 139 18 q 137 48 139 39 q 134 33 136 45 q 127 46 127 38 l 125 58 l 124 69 l 124 83 l 130 134 l 132 151 l 128 153 l 125 154 q 117 157 121 156 q 55 190 85 162 l 52 193 l 47 196 q 41 203 43 200 q 33 217 34 212 q 28 241 31 221 l 18 253 q 8 264 12 260 l 3 270 l -3 275 q -14 286 -10 282 q -15 292 -15 289 q -14 296 -15 294 q -12 300 -14 298 l -10 304 q -5 321 -5 313 q -8 334 -5 328 q -11 347 -10 339 q -10 350 -11 347 l -9 352 l -8 354 l -4 350 l -1 346 q 5 338 3 340 q 16 340 9 339 q 90 289 52 315 q 100 298 96 294 q 109 296 104 297 l 113 296 l 117 295 q 118 310 118 301 l 118 352 l 115 354 l 113 356 q 107 359 109 358 l 81 372 l 55 385 l 52 387 q 48 388 50 387 q 44 395 45 391 l 52 395 l 79 382 l 106 370 q 111 368 108 369 l 114 367 q 117 365 116 366 q 111 442 117 399 q 104 480 108 458 l 98 518 l 94 519 l 92 519 l 85 520 q 24 545 52 526 q 12 554 18 548 q -6 565 5 560 l -26 573 l -33 589 l -31 591 q -28 593 -29 593 q -5 595 -19 593 l 7 597 l 18 599 q 24 600 21 600 q 30 599 26 600 l 35 598 l 41 598 l 56 597 l 72 597 q 75 598 73 597 l 75 599 l 77 600 l 73 614 l 71 627 q 85 637 76 633 l 101 643 l 105 642 l 109 641 q 117 640 113 640 l 119 640 q 131 645 126 640 q 201 636 161 636 q 248 639 223 636 q 290 646 275 642 l 296 648 q 302 650 300 649 q 314 659 310 654 q 317 661 315 660 l 319 661 l 321 661 q 323 653 323 658 q 323 647 323 650 l 321 644 l 321 640 l 321 638 q 321 633 321 635 q 282 616 307 621 q 260 613 275 615 l 250 612 l 238 610 q 248 608 242 609 l 254 607 l 258 606 q 275 603 269 604 l 290 601 q 304 600 298 600 q 332 604 315 600 l 354 609 l 376 614 q 418 623 401 621 l 432 626 l 446 629 q 473 635 461 632 q 483 637 478 637 q 505 628 494 637 l 505 616 l 501 608 l 498 600 q 490 583 494 591 q 443 563 479 568 q 365 557 404 557 l 351 557 q 324 553 340 557 l 311 549 l 298 545 l 275 538 l 252 532 q 205 522 226 526 q 197 516 198 522 l 198 517 m 221 92 l 224 92 l 227 65 l 229 38 l 227 37 l 220 37 q 216 79 216 61 q 216 93 216 87 q 221 92 218 92 m 197 516 l 203 513 l 203 510 q 194 479 203 488 q 191 486 191 481 q 192 489 191 487 l 193 491 l 193 493 q 195 498 195 496 q 196 507 195 501 l 198 517 l 197 516 z "},"G":{"ha":490,"x_min":-20,"x_max":543,"o":"m 165 509 l 165 508 q 169 513 167 511 q 172 519 170 515 q 178 528 176 526 q 165 509 165 525 m 205 578 l 210 580 q 217 589 216 583 q 212 589 215 589 q 205 588 209 589 l 195 584 q 200 576 197 580 q 205 578 202 578 m 146 471 l 135 448 q 134 444 134 447 l 134 439 l 138 439 q 142 438 140 438 q 157 493 153 465 l 146 471 m 131 144 l 130 151 q 128 164 128 159 l 126 183 l 125 202 q 124 206 125 204 l 123 210 q 116 239 117 223 l 115 252 l 114 264 l 114 272 q 115 290 114 283 q 116 302 116 294 l 116 307 l 117 313 q 118 326 117 319 l 119 332 l 119 338 q 109 347 111 345 q 97 349 106 348 q 98 335 98 343 l 97 321 q 100 294 97 304 l 102 286 q 104 277 103 280 l 104 274 q 100 258 104 265 q 100 256 100 258 l 100 253 l 102 241 q 103 230 102 235 q 119 153 111 189 q 132 137 121 142 l 131 144 m 335 38 l 323 35 l 311 32 q 286 27 296 28 q 261 26 273 26 q 225 30 241 26 q 169 52 191 39 l 161 55 q 178 29 165 41 q 190 20 182 26 l 196 16 l 203 12 q 184 9 192 10 q 189 4 186 7 l 193 -1 q 200 -10 197 -7 l 229 -10 l 243 -9 l 256 -8 q 345 39 302 -5 l 335 38 m 356 203 l 338 212 l 302 231 l 268 250 l 233 269 l 216 279 l 198 290 q 163 311 176 303 l 162 302 l 165 281 q 168 260 167 269 l 174 182 l 175 176 l 178 161 l 181 146 q 189 119 185 130 l 192 110 l 195 101 q 202 85 199 92 q 246 57 214 60 l 260 56 q 271 55 265 55 q 317 73 298 55 q 343 116 333 87 q 349 136 345 123 l 353 146 l 356 155 q 374 193 364 179 l 356 203 m 264 592 q 258 593 262 593 l 252 595 q 233 585 239 591 q 251 586 243 586 q 273 583 263 586 l 272 581 l 272 578 q 246 576 262 578 l 235 575 l 223 574 q 179 508 200 553 q 153 431 159 465 l 203 405 l 254 378 q 311 359 279 366 q 341 352 323 355 l 372 347 l 393 342 l 414 338 q 419 328 418 331 l 419 326 q 418 318 419 323 l 416 304 l 414 291 l 418 293 q 460 374 450 336 q 463 397 463 386 q 442 449 463 426 l 437 433 l 431 418 q 406 410 419 410 q 391 412 398 410 l 388 422 l 385 431 l 378 448 l 377 452 l 376 456 q 374 465 376 462 q 336 530 363 501 q 291 571 319 549 l 287 575 q 283 578 285 578 q 274 583 279 583 l 273 583 q 264 592 270 589 m 315 638 q 320 624 317 631 l 321 623 l 323 623 l 327 621 q 393 577 364 606 q 404 565 398 572 l 408 557 l 413 551 q 439 481 433 520 l 439 477 q 439 474 439 475 l 441 469 l 443 464 q 467 430 460 446 q 471 401 471 416 q 467 370 471 387 q 433 302 458 333 q 427 295 431 299 l 425 291 l 422 287 l 438 273 l 446 267 l 453 260 q 454 256 454 258 q 450 242 454 249 l 448 238 l 446 234 q 442 227 443 230 l 455 218 l 467 210 l 492 193 l 517 177 l 543 161 q 526 159 537 159 l 519 159 q 509 159 513 159 q 491 162 501 160 l 474 166 q 439 172 453 170 q 433 173 437 172 l 429 174 l 425 174 q 414 142 421 163 l 404 111 q 376 50 391 74 q 384 47 380 47 q 389 49 387 47 l 393 50 l 395 52 q 401 54 399 54 q 411 60 405 56 l 422 66 q 423 58 423 63 q 422 48 423 54 l 419 41 l 417 33 q 413 18 414 24 q 410 10 413 14 l 408 7 l 405 3 q 328 -38 380 -26 q 298 -43 309 -43 q 267 -55 287 -44 q 199 -75 233 -75 l 192 -75 q 145 -60 161 -73 q 107 -18 132 -37 q 99 -12 103 -16 l 96 -7 l 92 -3 q 92 0 92 -3 l 91 2 l 91 5 q 129 -11 106 -4 q 149 -16 136 -13 l 159 -18 l 170 -20 q 161 -12 162 -12 q 117 50 138 9 q 83 89 104 74 q 52 137 65 102 q 35 217 36 177 l 35 254 q 35 277 35 263 l 33 289 l 33 300 l 33 359 q 34 372 33 363 l 35 378 l 35 385 l 35 393 q 21 404 30 397 l 14 409 l 6 414 q -18 439 -10 427 q -19 446 -19 442 l -19 449 l -18 454 l -17 458 q -16 465 -16 462 q -20 476 -16 472 q -11 502 -16 490 q -6 503 -9 503 q 5 499 -1 503 q 26 486 14 494 l 47 475 l 50 473 l 52 473 l 54 471 l 55 477 l 57 483 l 60 494 q 100 583 75 549 q 208 651 143 640 q 243 654 222 654 q 260 653 251 654 q 274 651 266 653 l 281 649 l 288 647 q 301 643 294 646 l 315 638 z "},"H":{"ha":396,"x_min":-44,"x_max":427,"o":"m 156 251 q 146 254 151 253 l 145 251 q 144 248 144 249 q 145 241 144 248 q 156 251 150 245 m 242 530 q 243 522 242 525 q 252 458 247 486 q 254 442 252 451 l 257 427 q 258 424 258 425 l 260 421 l 264 422 q 255 479 262 446 l 249 509 q 243 537 245 526 l 242 530 m 151 321 q 157 319 153 320 l 159 318 l 161 317 q 172 313 165 315 l 176 311 l 182 310 q 192 305 186 308 l 201 300 l 205 303 l 210 307 q 214 315 213 311 l 201 318 l 189 321 q 164 329 174 326 q 151 332 157 332 q 143 330 147 332 q 151 321 146 324 m 248 418 q 236 504 237 459 q 235 521 236 511 l 233 537 q 220 614 225 587 q 215 641 218 625 l 210 667 q 209 673 210 669 l 209 679 l 217 679 q 227 642 227 656 q 233 606 228 623 l 231 629 q 230 653 231 644 l 230 702 q 239 697 237 698 q 238 680 238 688 q 253 542 238 623 q 255 549 254 545 q 254 555 255 551 q 252 585 252 568 l 252 600 l 251 615 l 250 655 q 249 694 249 677 q 252 758 249 725 q 255 770 252 762 l 257 776 l 260 783 l 267 783 l 273 784 l 287 784 q 296 770 291 778 l 306 756 q 308 742 307 751 l 310 726 q 326 701 326 720 l 326 697 l 323 675 l 322 652 l 322 607 q 325 576 323 594 l 328 546 l 330 528 l 332 510 q 334 493 332 503 l 335 488 l 336 484 q 338 474 337 478 q 352 494 343 481 l 359 505 l 366 514 q 397 549 381 536 q 408 552 399 550 l 408 550 l 409 548 l 409 546 q 404 528 409 538 q 347 436 373 471 l 347 425 q 347 414 347 418 q 354 393 349 402 q 356 386 356 390 q 355 382 356 384 q 355 374 355 378 q 355 364 355 369 l 357 356 l 358 347 q 360 333 359 341 l 361 319 q 365 275 364 291 l 367 245 q 368 215 368 228 q 367 193 368 205 l 366 171 q 365 164 365 168 q 367 148 365 157 l 370 137 l 372 126 q 408 -15 386 58 l 414 -35 q 420 -56 418 -47 q 424 -82 423 -66 l 424 -106 q 426 -130 425 -120 q 427 -136 427 -132 q 426 -144 427 -140 l 425 -153 l 423 -161 q 395 -127 408 -148 l 389 -118 q 384 -109 387 -113 q 356 -43 370 -89 l 353 -34 l 351 -24 q 344 -5 347 -13 l 344 -49 l 341 -49 l 338 -34 q 335 -18 336 -24 l 332 9 q 328 38 330 28 q 323 68 326 51 l 317 98 q 303 172 309 141 q 287 251 294 218 l 273 313 l 271 317 q 241 294 254 298 q 237 309 239 300 l 230 300 l 222 293 q 208 278 214 284 l 193 262 q 178 248 184 254 q 162 234 172 242 l 146 221 l 146 135 q 137 70 146 106 q 131 43 134 59 l 125 16 l 125 14 q 125 12 125 12 l 118 -8 l 115 -18 l 111 -29 q 106 -22 107 -26 l 105 -18 l 104 -14 l 100 12 l 94 38 l 93 46 l 92 54 q 89 69 90 63 q 86 130 86 105 q 76 187 85 165 q 73 192 75 189 l 69 197 q 58 227 58 210 q 54 299 57 256 q 53 315 54 305 l 52 322 l 51 331 q 41 334 49 334 q -31 350 7 336 q -37 353 -34 351 l -41 355 l -44 356 q -26 416 -41 383 q -15 418 -21 418 l -4 418 q 17 420 9 418 q 8 454 10 433 l 12 459 l 15 464 q 22 473 20 469 l 26 473 l 31 472 q 41 470 37 471 l 43 471 l 44 473 q 43 481 44 476 l 43 490 q 42 506 43 500 l 39 541 l 37 576 l 35 595 l 33 615 l 31 638 l 28 661 q 27 669 27 664 l 27 677 q 47 691 32 686 q 20 821 43 769 q 24 825 24 825 l 28 827 q 52 738 45 788 q 56 743 55 739 q 58 746 57 744 l 58 749 q 66 758 59 758 l 79 760 q 82 770 82 764 q 80 780 82 774 l 79 784 l 77 789 q 77 795 77 792 l 77 799 l 80 799 q 81 798 81 799 q 92 763 90 786 q 96 753 93 760 l 101 745 q 115 741 109 743 l 116 732 l 119 703 l 123 671 l 128 640 l 130 623 q 132 606 131 612 q 134 565 134 590 l 134 528 q 135 503 134 513 q 137 467 136 488 l 139 449 l 140 431 l 140 414 l 144 412 l 149 411 q 154 410 153 410 l 162 410 l 169 411 l 195 411 l 209 412 q 235 415 224 412 q 241 416 238 415 l 245 417 l 248 418 m 226 738 l 224 738 l 222 737 l 221 746 l 223 746 q 229 739 229 746 l 226 738 z "},"I":{"ha":248,"x_min":-27,"x_max":241,"o":"m 192 134 l 193 125 l 193 117 l 195 119 l 199 127 l 201 136 q 196 151 198 145 q 192 134 192 144 m 225 358 l 224 358 l 220 335 q 216 301 218 315 l 215 274 l 213 247 q 212 240 213 244 l 211 238 l 210 236 q 209 231 210 233 q 208 240 208 235 l 208 248 q 205 262 208 258 q 199 232 203 250 l 194 201 q 193 192 193 197 q 203 153 193 174 l 207 159 q 214 213 210 184 l 215 229 q 217 245 216 239 q 223 307 222 281 q 224 316 223 310 l 224 320 l 225 325 l 225 358 m 231 41 q 233 49 233 45 q 231 60 233 54 q 220 90 227 73 l 209 119 q 193 68 197 102 l 193 54 l 194 47 l 195 39 q 218 28 207 33 q 231 41 229 34 m 197 269 l 203 297 q 208 325 206 313 q 213 352 210 336 l 216 379 l 218 391 l 220 403 q 223 426 221 417 q 227 435 224 430 l 229 440 l 231 445 l 233 486 l 233 528 l 234 530 l 235 530 l 236 531 q 241 516 241 526 l 241 486 l 240 456 q 237 392 240 431 q 231 298 234 335 q 225 234 229 258 l 220 188 q 211 142 216 161 q 210 138 210 140 q 212 129 210 134 l 224 96 l 237 63 q 241 43 241 52 q 239 31 241 36 q 231 18 235 22 q 218 15 226 15 q 212 16 216 15 l 207 16 l 199 18 l 194 18 l 190 18 l 189 16 l 189 13 l 189 8 l 186 -23 l 183 -54 l 181 -77 l 180 -100 l 179 -107 l 179 -114 q 170 -119 175 -116 l 165 -121 l 160 -123 l 157 -121 l 153 -119 q 145 -114 149 -117 l 145 -96 q 144 -65 144 -83 l 142 -49 q 142 -32 142 -39 q 136 -50 138 -40 l 134 -59 q 132 -66 134 -64 q 132 -74 132 -70 l 132 -82 q 125 -96 131 -92 l 122 -94 q 119 -75 122 -86 l 116 -66 l 113 -58 l 110 -44 l 106 -31 q 102 -3 103 -15 q 96 61 100 34 q 94 101 94 78 l 94 161 q 82 201 94 182 q 22 314 45 259 q -15 418 0 363 q -27 486 -22 444 q -22 491 -24 488 q -9 477 -14 490 l -12 474 l -14 471 q 26 330 -14 428 q 93 205 65 231 l 94 221 q 91 236 93 230 q 89 245 90 240 l 87 256 q 85 301 85 274 l 84 324 l 83 347 q 82 382 83 361 l 81 400 l 80 417 l 83 421 l 87 425 q 94 433 92 430 l 94 447 l 92 460 q 91 490 92 477 q 92 508 91 496 l 92 517 l 92 526 l 93 553 l 93 580 q 92 585 93 582 l 90 589 l 88 591 q 107 602 95 600 l 113 602 l 130 602 l 133 650 q 137 696 136 680 q 152 716 143 705 l 171 716 q 182 693 177 703 l 182 682 q 183 676 183 679 q 182 670 183 673 q 186 642 182 656 q 191 610 191 629 q 192 576 192 597 l 192 543 l 195 280 l 195 269 l 197 269 z "},"J":{"ha":552,"x_min":-39,"x_max":548,"o":"m 362 538 l 361 542 l 359 545 q 351 534 355 540 q 366 530 353 534 q 362 538 364 534 m 532 486 l 530 485 l 530 347 q 539 374 539 359 l 539 406 q 536 437 539 424 q 534 461 535 447 l 533 473 l 532 486 m 399 234 l 397 232 l 395 230 q 392 226 393 228 q 370 170 374 191 q 350 119 366 146 q 332 94 343 108 l 321 82 l 311 70 l 304 62 l 296 53 q 281 36 286 42 l 277 31 q 273 25 275 28 q 271 17 271 21 q 272 12 271 14 q 286 6 282 7 q 298 11 290 6 q 346 46 326 26 q 372 81 367 66 q 370 91 370 87 l 370 92 q 373 102 370 95 q 382 145 382 126 q 384 153 382 149 q 386 161 385 157 l 389 172 l 393 182 q 397 208 397 192 l 398 221 l 399 234 m 297 -77 l 294 -79 q 289 -82 292 -81 q 257 -92 269 -90 q 236 -95 246 -95 q 208 -89 221 -95 q 191 -75 197 -84 q 169 -38 180 -60 l 159 -19 l 149 0 q 124 49 132 32 q 77 131 108 85 q 6 285 31 200 l 1 300 l -3 315 q -9 345 -7 332 q -11 353 -10 349 l -11 358 l -12 363 l -7 366 l -3 370 q 5 375 2 374 l 14 378 l 23 382 q 40 391 33 387 q 45 391 41 391 l 47 391 l 51 391 q 195 89 81 227 l 209 71 q 224 54 218 60 q 258 22 241 34 l 260 25 l 262 29 l 266 35 l 274 54 l 282 73 q 300 111 292 96 q 348 187 323 157 q 353 192 350 190 q 361 197 353 193 q 359 192 360 195 l 358 190 l 357 189 q 354 182 355 184 q 292 74 313 123 q 286 54 286 62 l 297 66 q 307 78 303 73 l 327 102 q 344 127 338 115 q 361 174 358 153 q 365 192 362 181 l 368 201 l 370 209 l 376 215 q 380 220 378 218 q 399 255 389 235 q 401 265 401 260 l 401 281 l 401 297 q 400 330 401 316 l 398 351 l 396 372 q 389 414 393 395 q 379 462 385 433 l 374 486 l 370 509 q 368 515 370 511 l 367 517 l 366 520 l 353 522 l 348 524 l 342 525 q 336 521 339 524 l 332 519 l 330 517 q 319 515 325 515 l 315 515 q 280 550 297 533 l 275 547 l 271 544 q 263 538 267 541 l 235 511 l 206 484 l 202 481 q 198 477 200 479 q 188 474 193 474 q 186 480 186 477 q 187 487 186 484 q 222 543 201 522 l 234 555 l 247 568 l 245 569 l 243 570 q 239 572 241 571 q 173 611 206 581 q 146 634 161 623 q 143 636 145 635 l 140 637 l 138 637 l 106 650 l 102 651 q 98 653 100 652 q 94 660 95 655 q 95 662 94 661 l 97 665 q 111 661 102 663 l 117 659 l 124 656 l 123 661 l 122 664 q 145 669 131 666 l 157 671 q 170 673 165 672 l 172 675 l 173 677 q 175 681 174 679 q 181 690 178 686 l 184 690 q 186 689 186 690 q 272 633 238 655 q 290 628 279 628 l 294 628 q 302 635 296 630 l 307 634 l 311 633 q 323 632 318 633 q 327 636 324 633 l 330 639 l 332 642 l 318 671 q 309 694 311 685 q 305 711 305 703 q 307 722 305 718 q 309 728 309 724 l 309 734 q 321 743 313 740 l 324 744 l 328 745 q 334 747 332 746 q 338 747 336 747 l 346 747 q 349 737 348 743 l 350 732 l 351 727 q 360 709 354 715 q 363 717 363 714 q 358 726 363 719 l 358 728 l 360 732 l 361 734 l 363 736 q 378 743 373 742 q 389 746 384 746 q 393 745 391 746 q 405 733 401 743 l 406 730 l 408 726 q 413 720 410 722 q 441 792 441 760 l 441 795 l 454 797 l 467 799 q 483 800 476 800 q 492 800 488 800 l 492 798 l 493 798 q 492 796 493 796 q 484 773 486 787 q 481 762 482 768 l 481 749 l 480 737 l 479 725 l 482 724 l 486 722 l 489 711 l 490 707 l 487 705 l 485 703 l 483 701 q 478 712 479 709 l 474 698 l 470 683 q 463 655 465 667 l 462 652 q 461 648 462 649 q 456 623 456 636 q 457 610 456 616 q 462 591 458 602 l 465 583 l 468 573 l 507 573 q 490 564 500 566 q 481 564 487 564 l 477 564 l 473 563 q 471 556 471 559 q 472 551 471 553 l 474 545 q 475 539 475 541 l 479 523 l 482 506 q 487 472 486 487 l 488 463 l 490 454 q 492 435 492 442 q 493 416 493 427 l 493 397 q 486 370 486 389 l 486 363 q 485 336 486 351 l 484 320 l 481 303 q 478 255 478 278 l 478 243 q 466 161 478 201 l 466 154 l 469 159 l 470 162 l 471 165 l 477 176 l 483 186 q 495 206 490 198 q 514 259 507 226 q 521 326 521 290 l 521 475 q 517 543 520 512 q 513 569 516 555 l 511 582 l 508 594 l 490 673 q 488 682 489 676 l 486 687 l 484 692 q 490 692 488 692 q 498 678 496 687 q 500 671 499 675 l 502 663 q 507 640 504 655 l 509 629 l 512 617 l 513 612 q 514 608 513 610 q 520 602 515 604 q 534 516 525 555 q 545 441 545 473 l 547 414 l 548 387 l 548 382 q 539 342 548 364 q 536 340 538 342 l 532 338 l 530 336 l 530 309 q 515 229 526 256 l 512 222 l 509 214 q 501 199 505 205 q 478 157 490 182 l 469 136 l 459 115 l 451 96 l 443 78 q 424 43 433 58 q 379 -2 406 14 l 363 -12 q 348 -21 355 -17 q 325 -33 338 -26 l 301 -44 q 295 -47 299 -45 l 291 -48 q 287 -50 289 -49 q 288 -44 288 -47 l 288 -42 l 289 -40 l 269 -39 q 248 -39 256 -39 q 246 -41 246 -40 q 250 -46 246 -43 l 255 -51 l 261 -55 q 273 -62 268 -60 q 286 -67 278 -65 l 292 -69 l 299 -71 l 300 -75 l 297 -77 m 5 192 l -3 201 q -10 211 -7 207 q -20 229 -14 218 l -25 238 l -30 247 q -33 260 -33 253 q -32 268 -33 264 l -30 266 l -28 264 q -25 261 -26 262 q -5 220 -16 243 l 7 194 l 5 192 m 146 -27 l 144 -29 q 142 -32 143 -31 l 136 -31 q 130 -28 132 -29 q 106 -12 118 -23 q 93 9 96 -1 l 96 9 l 98 9 q 101 9 100 9 q 147 -24 116 -12 q 146 -27 146 -26 m 12 182 l 26 182 q 41 171 37 176 q 47 155 45 166 q 12 182 27 170 m -34 302 q -28 298 -29 299 q -27 292 -28 296 l -28 291 l -30 290 l -32 290 q -39 298 -38 290 q -34 302 -37 300 z "},"K":{"ha":618,"x_min":-7,"x_max":752,"o":"m 100 258 l 96 260 l 92 252 l 94 250 l 100 258 m 205 239 l 205 234 l 205 229 q 205 220 205 223 l 210 190 l 214 159 q 221 76 220 122 q 222 48 221 64 l 223 34 l 224 20 q 219 14 222 17 l 214 7 l 214 -42 q 202 -70 208 -52 l 198 -85 q 192 -99 195 -93 l 191 -99 l 190 -100 l 189 -100 l 176 -71 l 174 -68 q 172 -65 172 -66 q 162 -50 165 -59 q 160 -41 161 -45 l 159 -32 l 158 -26 l 157 -21 q 157 -14 157 -17 l 157 -11 q 153 14 157 -1 l 151 26 q 149 37 149 33 l 148 47 l 146 57 q 144 77 144 70 q 140 105 144 89 l 136 119 l 133 134 q 127 153 131 141 l 125 159 l 123 164 q 120 175 121 170 q 119 170 120 173 l 119 165 q 118 156 118 159 l 117 156 q 110 160 113 156 l 109 162 l 108 164 q 104 168 106 166 q 100 165 103 167 l 97 164 l 94 163 q 100 102 100 130 q 99 79 100 90 q 92 100 92 88 q 84 161 92 124 q 66 169 76 161 q 48 178 60 174 q 33 193 41 185 l 33 202 q 41 205 36 203 l 44 207 l 47 208 q 68 239 57 223 l 67 244 l 66 250 q 64 260 65 256 l 33 371 q 3 482 15 438 q -5 529 -4 510 q -5 548 -5 536 l -7 557 l -7 567 q -6 574 -7 568 l -2 572 q 1 568 0 570 q 2 565 2 567 l 2 561 q 19 459 3 515 l 66 292 l 76 251 q 81 258 81 253 q 81 262 81 260 q 71 316 74 292 q 80 292 76 307 l 82 285 l 83 278 q 87 264 85 270 q 97 279 97 271 l 94 282 l 91 286 l 85 292 l 85 303 l 85 313 l 85 319 q 84 334 85 328 l 77 366 q 68 397 72 384 q 26 534 48 464 q 3 579 19 558 l -1 585 l -4 592 l -2 595 q 0 598 -1 597 l 9 587 l 17 574 q 33 550 27 561 l 32 553 l 31 555 q 30 561 31 559 l 30 600 q 33 607 31 602 l 35 611 q 38 616 37 614 l 36 626 l 33 637 q 28 661 30 650 q 26 671 26 667 l 26 674 q 28 682 26 679 q 30 704 30 690 l 30 721 l 29 738 q 24 771 28 757 q 24 776 24 773 l 24 781 q 26 787 24 782 q 35 768 30 779 l 39 758 l 43 747 q 64 712 53 724 q 75 715 71 714 l 77 712 q 79 710 78 711 q 90 681 85 698 l 98 651 l 103 630 l 106 619 l 109 608 l 117 608 l 121 607 l 125 607 q 130 604 127 606 l 132 602 l 134 600 l 134 596 q 132 585 132 590 q 134 577 132 581 q 136 563 135 572 l 136 556 q 138 549 137 552 q 147 507 141 534 l 157 465 l 166 427 l 174 388 q 176 381 175 385 l 177 378 l 178 374 l 181 376 l 183 378 q 187 382 186 380 l 199 397 l 212 411 q 237 440 227 429 q 274 490 258 464 l 278 496 l 281 502 l 288 515 l 295 528 q 309 553 303 543 q 324 576 315 563 l 332 589 l 340 600 q 366 611 356 607 l 371 620 l 376 628 q 385 645 382 638 q 409 666 391 656 q 411 665 410 666 l 412 665 l 413 665 q 414 652 414 659 q 405 614 414 634 q 396 587 400 603 l 393 573 l 390 559 q 389 551 389 555 q 391 541 389 546 q 392 534 392 538 q 385 515 392 525 l 365 487 l 345 459 l 309 410 l 273 361 q 285 348 277 355 l 292 342 l 300 337 l 324 319 l 349 300 q 399 264 382 277 q 416 250 406 258 l 424 241 l 433 233 q 429 233 431 233 q 425 234 427 233 q 422 235 424 235 l 420 237 l 387 260 l 355 283 q 324 306 342 292 l 309 317 l 292 329 l 296 319 q 299 309 298 313 l 302 306 l 304 304 l 307 302 q 315 295 312 298 q 334 275 322 288 l 342 265 l 351 256 q 393 212 367 239 l 399 210 q 389 239 395 221 q 400 227 395 235 q 404 222 401 224 l 406 219 l 408 216 l 414 208 l 420 198 q 448 172 430 184 l 460 165 l 471 157 q 494 141 485 148 l 497 138 l 500 134 q 506 128 503 130 q 591 70 551 96 l 614 55 l 635 41 q 680 11 663 23 q 724 -26 710 -10 q 727 -30 725 -28 l 730 -33 l 741 -39 l 752 -47 l 752 -52 l 751 -53 l 750 -53 l 749 -54 l 734 -47 q 720 -43 726 -44 q 688 -36 701 -37 q 629 -13 656 -33 q 587 15 614 -2 l 566 28 l 545 42 l 508 68 q 471 93 484 85 q 450 106 463 99 l 428 119 l 423 121 q 418 123 420 123 q 389 135 404 126 q 375 143 383 138 l 362 152 q 328 170 344 163 q 212 236 271 194 q 209 237 211 237 l 208 238 l 205 239 z "},"L":{"ha":475,"x_min":-7,"x_max":552,"o":"m 479 -52 q 493 -28 486 -42 l 498 -16 l 503 -5 q 505 0 505 -3 l 507 5 l 498 -4 l 489 -14 q 475 -33 480 -24 l 476 -36 l 477 -38 q 478 -42 478 -40 l 479 -52 m 184 38 q 202 31 191 35 l 220 23 q 256 11 240 14 l 254 13 l 252 14 l 250 16 q 248 18 248 17 q 161 64 212 46 l 155 66 l 148 68 q 135 73 140 71 q 111 87 120 79 q 110 81 110 83 q 111 77 110 79 l 112 75 l 113 73 q 115 70 114 71 l 132 62 l 150 54 q 184 38 170 43 m 140 210 q 134 188 134 195 q 139 175 134 180 q 140 192 140 182 l 140 201 l 140 210 m 146 229 l 146 186 q 148 175 146 181 l 149 163 q 155 173 155 168 l 158 191 l 160 208 q 164 242 163 228 q 166 281 165 259 l 168 319 l 168 353 l 168 416 l 166 416 l 162 371 l 159 332 l 155 294 q 153 281 155 289 l 151 268 l 149 248 q 146 229 147 237 m 550 82 l 519 13 q 488 -56 501 -28 q 485 -75 485 -64 l 485 -81 l 489 -87 q 493 -93 491 -90 q 505 -103 498 -100 q 509 -116 507 -104 l 505 -114 l 501 -112 l 495 -109 q 490 -113 492 -112 l 492 -119 l 494 -126 q 498 -138 496 -134 q 508 -152 502 -144 l 513 -159 l 519 -165 q 526 -172 521 -168 l 528 -175 l 532 -178 q 533 -182 533 -179 l 534 -185 q 534 -188 534 -186 l 530 -186 l 526 -184 l 519 -180 q 503 -171 511 -175 l 503 -178 l 503 -186 l 503 -201 q 504 -229 503 -217 q 508 -255 505 -239 l 512 -280 l 522 -340 q 524 -347 522 -342 l 526 -351 q 528 -355 527 -353 q 512 -340 517 -351 q 472 -235 496 -304 q 465 -218 470 -229 l 461 -210 l 458 -201 q 448 -167 452 -186 q 432 -142 444 -150 l 406 -127 l 380 -111 q 328 -82 351 -94 l 317 -76 l 305 -70 q 282 -58 291 -62 q 227 -33 261 -48 l 172 -9 l 120 16 l 83 33 l 45 50 q 30 60 39 53 l 12 72 l -7 84 q -4 98 -5 94 q 3 106 -3 100 l 9 106 q 35 102 21 106 q 50 96 41 100 l 58 92 l 65 89 l 68 96 q 69 102 69 100 l 69 120 q 67 138 69 131 q 66 156 66 146 l 66 174 q 62 199 66 186 q 22 336 41 258 q 16 361 19 346 l 14 375 l 12 388 q 9 395 11 391 l 8 400 q 7 405 7 403 q 14 410 9 406 l 16 405 l 17 401 q 20 393 19 396 q 68 208 29 326 l 71 213 q 72 217 72 216 l 73 231 q 72 246 73 240 q 63 337 68 291 l 59 370 l 54 404 l 53 423 l 51 443 l 50 454 l 48 466 q 45 488 46 479 q 41 553 43 519 q 27 636 40 595 q 34 641 29 637 l 37 644 l 41 647 l 41 680 q 45 712 43 698 l 45 720 l 43 728 q 43 734 43 731 q 45 746 43 741 q 54 726 51 739 l 56 720 l 57 715 q 61 706 59 710 q 68 688 65 699 l 71 678 q 73 669 72 672 l 98 667 q 100 678 100 671 l 100 710 q 102 717 101 713 l 104 723 q 108 735 106 730 q 119 739 111 739 l 125 739 q 131 742 128 739 l 133 739 l 134 735 q 137 730 136 732 l 142 716 l 146 702 q 154 673 152 686 l 155 665 l 157 656 q 158 639 158 646 q 159 608 159 625 q 158 572 159 591 q 155 494 157 531 l 152 448 l 149 402 l 147 372 l 146 342 l 143 296 q 144 290 143 294 q 153 361 151 326 q 155 387 153 372 l 157 401 l 158 414 l 159 417 l 160 450 l 162 482 l 165 511 q 167 538 166 529 q 168 556 168 545 l 168 565 l 168 574 q 172 606 169 588 q 174 609 172 607 l 176 611 l 177 613 l 180 608 q 177 557 177 587 l 176 439 q 177 402 177 419 q 176 372 177 385 q 173 265 176 317 q 171 231 172 250 l 168 197 q 165 186 167 193 l 164 181 l 163 176 l 162 165 l 161 161 l 161 155 l 168 150 l 176 145 l 192 136 l 199 131 l 207 126 q 222 117 215 121 q 263 81 245 106 q 309 40 279 58 q 401 -24 357 12 q 407 -28 403 -25 l 410 -31 l 412 -34 q 420 -38 413 -35 q 425 -41 421 -40 q 429 -42 427 -42 q 444 -39 435 -41 q 457 -32 450 -36 q 473 -19 465 -27 l 474 -20 l 479 -16 l 503 20 q 524 56 515 40 l 532 71 l 540 85 l 542 89 q 544 92 543 91 q 551 95 547 95 q 552 90 552 93 q 550 82 552 87 z "},"M":{"ha":690,"x_min":-8,"x_max":708,"o":"m 635 453 q 641 467 640 459 q 640 483 641 471 q 638 478 639 481 l 637 474 q 635 468 635 471 q 634 461 634 465 l 635 453 m 351 275 l 361 286 q 370 297 367 292 q 374 304 371 300 l 376 307 l 378 310 q 385 327 385 318 q 348 277 368 304 l 351 275 m 353 220 q 367 252 360 231 q 374 280 374 273 l 374 281 q 355 264 366 276 l 351 260 l 347 255 q 338 245 342 250 q 353 220 340 231 m 392 378 l 380 362 l 367 345 l 340 313 l 313 280 q 316 275 315 279 l 317 273 l 318 271 q 327 265 321 267 l 331 271 l 389 348 q 421 409 414 382 q 392 378 408 397 m 640 233 q 698 376 686 310 q 703 418 703 399 q 699 448 703 435 q 695 460 698 453 l 694 465 l 692 471 q 684 475 688 475 q 680 474 682 475 l 677 473 l 673 473 q 667 472 670 472 l 669 475 l 670 477 q 672 480 671 479 q 677 482 674 481 l 681 483 l 684 484 q 699 471 694 481 q 703 463 701 468 l 704 458 l 705 453 q 708 418 708 440 l 708 404 q 691 321 707 363 q 669 269 679 289 q 646 229 659 246 q 631 190 635 214 l 626 159 l 621 128 q 607 66 614 93 q 602 44 605 58 l 597 22 q 595 16 597 20 l 594 14 l 593 10 q 591 19 591 14 q 592 26 591 22 l 593 33 q 595 40 595 37 q 599 61 596 48 l 604 81 l 610 115 l 616 147 l 620 167 l 623 186 q 630 225 627 210 q 636 258 633 239 l 639 275 l 641 292 l 643 310 l 646 328 q 649 362 648 347 l 650 376 l 650 391 q 648 418 650 406 q 646 433 646 424 l 646 447 q 640 439 642 445 q 639 435 640 438 l 638 433 l 638 431 q 625 380 633 412 l 613 328 q 602 290 608 311 q 588 225 591 258 q 584 193 587 212 l 579 162 l 579 158 q 585 133 579 146 l 578 128 l 576 126 l 576 116 l 574 106 l 572 85 l 568 49 l 564 12 q 562 -11 563 4 l 562 -22 l 560 -34 l 557 -56 l 555 -79 l 551 -113 l 549 -131 l 546 -148 l 542 -180 l 539 -203 l 536 -226 l 534 -235 l 532 -245 q 530 -264 531 -256 q 521 -308 528 -283 q 517 -321 519 -313 l 515 -327 l 514 -333 l 512 -340 q 507 -346 510 -344 l 505 -344 l 503 -300 q 502 -257 503 -275 q 500 -226 502 -243 l 498 -210 l 497 -195 q 496 -178 496 -188 l 496 -167 l 498 -153 l 498 -138 l 498 -90 l 496 -89 l 493 -87 q 488 -84 490 -86 q 484 -79 486 -83 l 481 -73 l 476 -73 q 469 -72 472 -72 q 466 -66 467 -69 q 463 -62 465 -64 l 464 -51 l 465 -41 l 468 -20 q 471 10 470 0 l 473 33 q 475 56 473 47 l 477 74 l 479 92 q 488 127 483 112 l 492 140 q 496 153 494 149 q 505 203 505 180 l 507 208 l 508 206 l 509 204 q 511 201 511 202 l 513 184 l 514 168 l 517 132 l 519 132 l 523 155 l 526 179 q 536 254 532 218 l 537 275 l 539 296 l 542 322 l 545 349 l 545 353 l 547 385 q 549 416 547 403 q 551 437 549 424 l 553 449 l 553 460 q 554 470 554 464 l 554 481 l 551 479 l 549 477 q 545 472 547 474 q 492 383 514 420 q 489 376 490 379 q 487 369 487 372 l 487 366 q 484 348 487 357 l 481 338 l 477 328 q 458 280 467 298 q 389 172 424 205 l 389 170 q 397 155 389 163 q 407 143 403 148 q 414 127 412 136 q 427 91 416 114 l 431 83 l 434 75 q 441 57 439 64 l 438 59 q 434 62 435 60 l 425 70 q 416 77 420 74 q 396 90 406 85 q 388 93 393 91 l 386 94 l 383 94 q 378 96 380 96 l 370 104 l 365 109 l 361 114 q 341 134 349 125 q 338 135 340 134 l 335 137 l 327 141 l 326 142 q 324 142 325 142 q 319 142 321 142 q 310 145 314 142 q 305 150 308 146 l 303 153 l 301 155 q 279 182 292 166 l 269 197 l 258 210 l 249 222 l 239 233 q 221 255 229 246 q 210 266 217 260 l 204 271 l 198 275 l 198 279 q 194 303 198 294 q 173 325 189 317 q 178 326 175 326 l 182 327 q 189 329 186 328 q 171 359 184 345 q 159 372 166 364 l 152 378 l 145 384 l 144 382 l 142 380 q 140 376 140 377 q 139 366 139 370 q 140 359 139 362 q 142 337 142 348 q 140 315 142 326 q 139 311 139 313 l 139 292 l 138 279 q 136 253 138 263 q 133 219 133 237 q 134 192 133 206 q 136 156 136 176 l 136 138 l 136 81 q 137 71 136 77 l 138 66 l 138 60 l 138 60 q 130 68 132 60 l 125 88 l 121 109 l 117 123 l 114 130 l 112 138 q 104 127 106 133 q 102 121 103 124 l 101 115 l 93 111 l 88 102 l 83 95 q 74 79 78 85 l 71 81 l 66 84 l 63 81 l 60 77 q 58 45 59 64 l 57 30 l 56 14 q 69 17 64 16 q 60 8 62 9 q 49 5 57 7 q 47 25 47 11 q 48 47 47 39 q 50 57 50 52 q 48 64 50 61 q 47 69 47 67 l 47 74 q 50 87 50 79 q 49 94 50 90 l 47 103 l 47 127 q 47 153 47 141 q 43 189 45 168 l 38 224 l 31 280 q 27 306 31 289 l 23 332 l 16 387 l 12 414 l 8 442 l 6 453 q 4 463 5 459 q -3 486 0 479 q -8 506 -8 496 q -7 514 -8 510 l -5 514 q -1 513 -3 514 q 0 510 0 512 l 0 509 q 3 494 0 502 l 6 487 l 9 479 q 15 458 13 471 q 19 433 17 448 l 22 408 l 26 379 l 31 349 l 35 323 l 38 296 l 42 270 l 46 243 q 50 216 48 227 l 50 205 l 52 194 q 54 173 52 181 q 56 138 56 158 l 57 102 l 60 92 q 63 102 63 97 q 62 110 63 106 q 60 125 60 117 q 62 141 60 133 q 62 146 62 143 q 64 176 63 159 l 64 182 l 64 189 q 65 202 65 198 q 62 214 64 207 l 58 224 q 54 244 55 236 l 54 246 q 55 254 54 250 l 56 260 l 57 265 q 59 288 59 279 q 58 299 58 292 l 56 310 l 54 334 l 51 357 q 50 370 50 362 l 50 385 l 50 403 l 49 421 q 47 458 48 443 q 37 528 44 488 l 36 538 q 34 547 35 543 q 25 564 31 557 q 23 569 24 565 l 22 574 q 41 589 32 582 l 49 587 l 57 585 q 75 581 66 583 q 77 578 76 580 l 79 575 q 83 568 82 571 q 96 548 85 557 q 106 538 100 544 l 111 532 l 117 527 l 119 530 l 121 533 q 123 538 123 536 l 125 543 l 127 547 q 131 557 130 553 q 136 564 132 559 l 138 568 l 140 571 q 149 568 144 568 l 153 567 l 158 567 q 172 556 170 566 l 170 549 l 169 543 q 165 530 166 536 q 165 522 165 526 q 165 515 165 518 q 195 447 180 480 q 208 424 199 436 q 216 413 212 419 l 224 403 q 296 307 268 350 q 300 301 298 304 l 302 298 l 305 294 q 322 319 317 312 q 330 316 325 317 l 335 321 q 340 328 338 326 l 370 366 q 399 404 388 389 q 409 415 404 409 l 420 425 q 440 455 433 438 q 466 502 454 485 q 472 514 469 506 l 477 526 q 482 522 481 524 q 485 512 483 520 l 505 539 q 523 566 516 556 l 529 566 q 555 600 541 582 l 562 602 q 570 602 568 602 q 573 617 572 608 l 575 633 q 583 662 578 650 l 609 662 l 612 680 l 616 698 q 625 734 621 718 q 641 760 629 751 q 665 755 654 758 q 673 728 673 745 q 671 712 673 720 q 665 676 668 694 l 656 616 l 654 602 l 652 588 l 651 578 l 650 569 q 647 549 648 557 q 646 537 647 544 l 644 525 q 642 509 642 515 q 643 500 642 504 q 645 491 644 496 l 646 486 l 648 481 l 652 482 l 657 484 q 659 479 659 481 q 657 475 659 477 l 656 473 l 654 472 q 652 469 652 470 l 654 452 l 655 435 q 656 422 656 430 l 656 386 q 655 349 656 364 q 653 327 655 340 l 652 316 l 650 305 l 644 256 l 642 244 l 640 233 z "},"N":{"ha":571,"x_min":-45,"x_max":557,"o":"m 115 174 l 116 174 l 117 180 l 117 189 l 116 194 l 115 193 l 115 174 m 431 372 l 433 372 l 433 391 l 431 391 l 431 372 m 434 396 l 436 396 l 436 415 l 434 415 l 434 396 m 52 447 q 56 429 52 435 q 59 444 59 438 l 59 446 q 54 462 58 453 q 52 447 52 454 m 406 217 l 406 220 l 406 224 q 404 238 406 233 l 392 264 l 380 290 q 402 220 391 250 q 401 213 401 214 l 406 209 l 406 217 m 68 488 q 63 528 68 509 q 58 549 61 536 l 54 569 q 50 558 50 564 l 50 530 l 49 503 q 66 458 49 487 q 68 488 68 473 m 329 366 l 329 321 l 338 308 q 347 294 343 300 q 370 267 358 279 q 355 320 367 293 q 344 344 351 330 l 338 355 l 332 367 l 329 366 m 283 447 l 286 443 l 290 439 q 298 430 294 434 q 325 397 321 421 q 331 379 327 389 l 335 370 l 340 362 q 346 351 342 358 l 349 346 l 353 340 q 353 346 353 343 q 351 356 353 351 l 339 391 l 328 427 l 326 431 l 328 435 q 329 439 328 437 l 322 452 l 315 467 l 301 496 l 303 495 l 305 494 q 307 492 307 493 q 338 439 327 473 q 351 399 343 425 l 363 360 q 379 313 371 334 q 391 283 385 300 l 404 254 q 408 249 404 254 q 409 260 408 254 l 410 271 q 412 292 412 283 l 415 319 l 418 347 l 420 365 l 421 382 l 425 413 l 428 444 l 429 451 l 431 458 q 433 473 433 468 l 433 481 l 433 486 q 432 492 432 490 q 438 505 436 496 q 439 513 439 507 l 441 521 l 450 557 l 458 595 l 462 608 q 464 621 463 616 q 467 669 466 642 l 469 715 l 471 762 l 472 795 q 474 827 473 814 l 475 842 l 477 857 q 485 886 479 874 l 487 887 l 490 887 q 492 880 492 884 q 492 874 492 878 l 490 871 l 490 868 l 490 862 q 492 859 490 861 l 494 858 l 495 857 l 495 842 q 519 838 503 841 q 534 841 528 841 q 556 831 547 841 l 556 817 l 557 802 q 554 773 557 785 q 551 745 552 762 l 549 731 l 547 717 l 543 688 l 538 660 l 534 627 l 529 593 l 524 568 l 520 543 q 518 526 519 536 l 517 508 l 514 489 l 511 470 l 511 467 l 511 463 l 509 446 l 508 429 q 505 372 506 404 l 504 354 l 503 337 q 500 302 503 317 q 499 278 499 294 l 498 266 l 498 254 q 497 246 498 251 l 496 242 l 496 238 q 497 234 496 237 l 498 231 l 500 229 l 501 234 l 502 258 l 503 282 q 505 330 503 311 q 506 346 505 337 l 506 361 q 510 393 507 380 q 511 396 511 394 l 511 400 q 516 458 511 420 l 517 467 l 518 477 q 520 497 519 490 q 526 532 523 513 l 534 567 q 541 600 536 581 q 549 612 543 607 l 550 610 l 550 608 q 551 606 551 607 q 550 604 551 605 q 538 558 543 584 l 534 534 l 530 511 q 526 479 528 498 l 524 463 l 522 448 l 514 362 l 514 361 l 511 244 l 511 242 q 512 233 511 239 q 522 301 517 262 l 526 335 l 530 370 q 549 509 541 458 q 553 500 553 502 q 548 469 550 488 l 544 439 l 542 422 l 539 406 q 535 377 536 391 l 534 358 q 532 339 532 346 l 528 311 l 524 282 l 522 269 l 520 256 l 514 215 l 508 174 q 505 140 506 161 q 501 82 502 102 q 505 66 501 75 q 507 52 507 60 q 506 45 507 49 q 499 46 503 45 l 498 43 l 496 39 q 495 32 495 35 l 495 28 q 493 8 495 19 l 488 -15 q 482 -61 482 -43 q 483 -71 482 -66 l 487 -71 q 491 -70 489 -70 l 493 -72 l 494 -75 q 498 -81 496 -79 l 494 -86 l 492 -88 l 501 -112 l 511 -136 q 513 -146 513 -140 q 512 -155 513 -150 q 507 -152 509 -155 q 506 -149 507 -151 l 505 -148 l 505 -146 q 497 -129 502 -140 l 490 -111 q 477 -100 486 -102 l 474 -119 l 471 -138 l 469 -149 l 467 -158 l 463 -177 l 459 -197 q 455 -213 458 -203 l 451 -229 q 446 -262 446 -248 q 439 -275 446 -262 l 437 -266 l 437 -237 q 435 -207 437 -223 l 433 -187 l 431 -168 l 431 -167 q 430 -165 431 -165 q 425 -140 425 -155 l 425 -115 q 425 -48 425 -79 l 425 -42 l 426 -37 q 427 -28 427 -32 l 427 -25 q 426 -12 427 -20 l 424 3 q 419 7 422 4 l 416 9 l 413 12 l 412 16 l 411 20 q 409 29 410 26 l 408 35 l 406 40 q 401 50 404 46 q 387 71 395 59 l 374 91 l 370 95 l 368 100 q 361 109 364 105 l 342 132 q 321 155 330 145 q 294 189 304 172 q 231 293 253 256 q 203 342 220 312 l 174 391 q 171 395 174 393 l 169 398 l 167 401 l 165 399 l 164 396 q 163 391 163 393 q 157 326 160 363 l 157 285 q 157 258 157 269 q 154 233 156 248 l 153 220 l 151 207 l 151 204 l 148 146 l 144 100 q 139 54 142 73 q 138 42 138 49 l 139 31 q 127 27 134 27 q 118 30 123 27 l 113 71 l 111 71 l 111 59 l 111 43 l 109 30 l 108 22 l 108 15 l 107 8 l 107 2 q 99 -1 103 -1 l 98 -1 q 93 -1 96 -1 l 89 1 l 83 -1 l 77 -4 q 65 -1 75 -3 l 64 2 l 64 4 q 62 9 62 7 l 61 18 l 60 26 q 58 44 60 37 q 56 58 57 49 l 56 65 l 55 72 q 46 100 53 89 l 47 107 l 47 115 l 49 130 l 50 146 l 51 162 l 52 166 l 52 170 l 52 304 l 52 308 l 52 313 l 49 317 l 47 319 l 46 321 l 46 357 q 47 372 47 366 q 46 385 47 380 l 45 406 l 43 426 q 41 458 41 445 l 41 467 q 33 505 41 486 q 25 522 30 512 l 15 538 q -43 663 -26 606 l -43 664 l -43 665 q -45 668 -45 667 l -45 669 q -41 674 -45 672 q -37 668 -38 672 l -35 665 l -34 661 q 5 571 -20 614 q 22 542 11 559 l 31 527 l 39 511 l 39 516 l 40 520 l 40 539 l 41 551 q 42 576 41 566 q 54 611 45 593 l 58 610 q 62 608 60 609 q 59 590 59 600 q 60 580 59 585 q 62 566 60 574 l 64 559 l 66 553 l 69 587 l 66 596 q 64 606 64 602 q 78 623 68 614 l 86 630 q 94 637 91 635 l 104 637 l 127 610 l 138 596 l 149 583 q 156 588 153 583 l 157 589 l 158 591 q 161 595 159 593 q 157 606 159 599 l 159 608 q 161 610 160 609 q 168 610 165 610 q 188 604 179 610 q 202 582 201 595 l 202 579 q 201 572 202 576 l 200 567 l 199 562 l 198 558 l 197 554 l 195 541 l 194 534 l 193 526 q 295 372 247 456 q 298 382 298 377 q 298 386 298 384 l 297 389 l 296 391 q 295 397 295 395 q 296 409 296 402 l 296 419 q 289 434 293 425 l 283 448 l 283 447 z "},"O":{"ha":498,"x_min":-39,"x_max":490,"o":"m 39 426 l 40 426 l 40 448 l 39 448 l 39 426 m 328 -98 q 345 -81 339 -93 q 328 -98 332 -90 m 102 413 l 102 495 q 98 463 98 481 l 98 454 q 100 433 98 446 l 100 423 l 102 413 m 434 304 l 434 309 q 431 319 433 314 l 430 325 q 428 331 429 328 q 427 309 428 321 l 427 298 l 426 288 q 425 270 425 278 q 427 248 425 257 q 434 304 434 287 m 275 566 l 277 568 l 218 595 l 218 595 l 216 595 l 221 581 l 275 566 m 437 377 q 435 399 437 387 l 433 411 q 429 422 431 417 q 429 427 429 424 l 429 430 l 428 432 q 422 441 427 439 l 422 425 l 423 418 l 424 410 q 425 396 425 401 l 425 394 q 437 355 425 376 l 437 377 m 202 618 l 209 614 l 216 609 q 245 595 233 598 q 193 641 220 625 l 192 637 l 191 634 q 187 627 189 629 q 202 618 194 623 m 448 149 l 444 142 q 437 130 440 135 l 414 96 l 391 62 l 387 54 q 433 109 415 79 q 452 154 452 137 l 452 155 l 448 149 m 276 556 l 255 561 l 234 566 l 227 568 l 226 566 l 247 555 l 269 543 q 312 519 294 529 q 276 556 302 550 m 415 -3 q 414 -5 414 -3 l 414 -9 q 461 104 461 28 l 461 106 q 415 -3 444 52 m 182 87 l 197 57 l 210 27 q 225 14 215 17 q 248 2 237 11 q 259 -3 254 -3 q 272 3 266 -3 q 282 16 279 9 q 298 38 290 29 q 321 73 313 52 q 340 125 332 96 q 367 303 367 212 l 367 369 q 363 435 366 406 q 355 459 362 450 q 311 505 336 485 q 242 545 290 522 q 209 568 220 556 l 205 572 l 202 575 q 179 551 186 571 q 170 511 171 530 l 168 499 l 166 487 q 164 462 164 471 l 163 429 l 163 396 q 166 330 163 358 q 168 304 168 321 l 168 292 l 170 278 l 176 215 q 192 139 180 179 q 200 119 195 131 l 205 109 l 210 98 l 207 94 l 204 89 q 198 79 201 84 q 183 92 189 87 l 182 87 m 67 582 l 70 581 l 73 578 l 75 581 q 76 585 76 583 q 102 634 83 608 l 109 642 q 115 650 113 647 l 126 666 l 132 674 l 138 683 l 140 683 q 153 678 146 683 q 160 673 156 677 l 167 667 l 172 671 l 178 673 q 191 680 185 677 q 216 689 204 686 q 224 690 220 690 q 245 682 234 690 q 273 669 257 674 q 309 647 292 664 l 324 632 l 332 625 l 340 616 q 374 625 358 625 q 380 624 376 625 q 391 608 388 620 q 410 529 406 562 q 416 481 413 505 q 418 475 416 479 l 420 469 l 435 475 q 448 480 444 478 q 458 473 454 478 q 462 465 460 471 q 479 412 473 432 q 484 386 483 399 q 486 369 484 378 l 488 360 l 489 351 q 490 335 490 345 l 490 326 l 490 318 q 481 250 490 286 q 481 245 481 248 l 480 239 q 488 231 484 235 l 486 217 l 484 203 q 479 177 481 187 q 471 110 471 140 l 471 99 q 459 37 471 68 q 424 -13 450 10 q 378 -60 391 -42 q 326 -113 349 -98 q 311 -121 320 -117 l 303 -125 l 296 -129 q 290 -127 295 -129 l 291 -123 q 292 -119 292 -121 l 310 -102 q 327 -84 320 -92 q 365 -52 347 -64 q 406 -1 390 -33 q 452 112 431 48 l 452 118 l 451 119 q 383 37 433 81 q 372 22 375 30 q 311 -46 353 -17 q 278 -77 288 -62 q 272 -83 277 -80 l 269 -86 l 265 -89 l 254 -85 l 243 -80 q 246 -72 245 -77 l 248 -63 q 258 -49 251 -54 q 252 -47 254 -47 q 246 -49 249 -47 l 244 -51 l 243 -52 q 239 -55 241 -54 l 218 -55 l 214 -52 l 212 -50 l 210 -47 l 211 -40 l 212 -36 l 212 -31 l 210 -30 l 207 -28 l 201 -24 l 194 -20 q 186 -14 189 -17 q 176 3 176 -6 q 180 14 176 8 l 174 28 l 168 43 q 154 71 161 59 q 148 69 151 70 l 143 68 q 133 80 134 72 q 130 96 132 90 l 128 102 l 126 107 q 121 117 124 114 q 86 186 98 151 l 82 191 l 82 185 l 83 180 q 84 176 84 178 q 81 168 84 172 l 79 173 l 78 178 q 75 186 76 183 q 62 228 70 203 l 55 248 l 48 269 q 44 287 45 277 l 42 296 l 41 306 q 37 354 38 326 l 37 403 q 35 408 37 406 l 35 287 l 26 287 l 26 402 q 28 429 26 412 l 30 444 l 31 457 q 37 504 33 479 l 42 528 q 47 553 45 543 q 54 569 50 559 l 58 577 l 62 586 q 67 582 64 584 m 193 -80 q 145 -65 168 -80 q 102 -18 122 -51 q 62 69 82 16 q 50 109 56 85 q 47 118 48 113 l 46 127 q 33 170 44 142 l 13 217 l -7 264 q -34 347 -28 315 l -36 358 q -38 369 -37 365 q -39 377 -39 373 q -37 392 -39 385 q -33 401 -35 397 l -30 406 l -26 410 q -22 416 -25 413 l -20 419 l -18 422 l -16 419 l -14 416 q -33 378 -31 399 l -31 372 l -30 366 q -28 351 -28 357 q -12 295 -24 328 q 13 235 -1 270 l 38 175 q 40 171 39 174 l 41 168 l 43 165 q 44 174 44 170 q 43 182 44 178 l 42 186 l 41 190 q 39 197 39 195 l 37 208 l 34 220 q 31 242 31 233 l 31 261 q 37 263 34 262 l 42 265 l 43 264 l 43 262 q 44 260 44 261 q 43 250 43 256 q 47 224 43 239 l 49 215 l 51 206 q 54 189 53 195 q 66 149 57 172 l 74 130 q 81 111 78 119 q 123 7 100 50 q 159 -43 143 -28 q 177 -55 166 -48 l 186 -62 q 196 -68 192 -66 q 197 -70 197 -69 l 198 -71 l 199 -73 q 203 -79 202 -77 q 193 -80 198 -80 m 197 469 l 197 466 q 198 463 198 465 q 197 460 198 462 q 195 445 196 454 l 194 437 l 193 429 q 187 393 191 407 l 183 402 q 186 445 184 421 l 189 458 q 197 472 190 467 l 197 469 z "},"P":{"ha":487,"x_min":-32,"x_max":519,"o":"m 45 282 l 50 282 q 51 289 51 286 q 50 296 51 292 l 47 304 l 45 311 l 45 282 m 174 443 q 174 437 174 440 q 177 433 175 435 q 179 433 178 433 q 182 433 180 433 q 183 445 183 442 q 178 456 182 448 q 174 443 174 451 m 52 447 q 39 443 43 444 l 39 393 q 47 389 41 391 q 49 418 47 399 l 50 432 l 52 447 m 55 465 q 57 479 56 474 l 59 513 l 60 547 l 61 555 l 62 564 q 64 574 64 569 q 61 591 64 583 l 57 556 q 54 521 55 536 q 52 480 52 499 q 53 451 52 465 l 55 465 m 81 192 l 79 193 l 77 195 q 70 205 71 199 l 73 212 l 76 219 l 69 241 q 62 263 65 253 q 60 241 60 252 q 66 202 60 220 q 97 161 77 174 q 92 176 94 167 l 87 189 q 81 192 85 191 m 171 260 l 171 250 l 172 239 q 183 243 177 239 l 188 246 q 193 250 191 248 q 195 270 195 258 l 195 280 l 195 290 l 193 290 q 184 287 189 290 l 182 286 l 180 284 q 175 281 177 282 q 171 260 172 273 m 132 707 q 131 692 131 699 q 136 657 131 671 q 155 654 149 655 l 155 677 q 187 686 172 682 q 159 696 176 690 l 145 701 l 132 707 m 48 572 q 58 644 54 616 l 60 657 q 62 671 62 666 l 64 685 l 66 699 q 66 714 66 707 q 66 727 66 721 q 53 730 60 730 q 45 730 50 730 l 45 723 q 44 717 44 719 q 36 646 37 676 q 37 619 36 635 l 37 606 l 38 593 l 39 569 l 39 542 q 39 539 39 540 q 44 534 40 536 l 48 572 m 116 47 q 103 79 116 64 l 105 95 q 106 111 106 104 l 106 115 q 101 144 106 131 l 94 151 l 87 157 q 75 171 80 165 q 56 203 61 187 l 56 197 q 77 106 56 158 q 130 26 101 48 q 126 36 128 31 l 125 40 l 124 44 q 116 45 119 45 l 116 47 m 400 638 l 365 639 q 330 642 345 640 q 216 675 269 652 q 207 678 213 676 l 202 680 l 197 681 l 199 673 l 201 667 q 205 652 203 658 q 208 637 207 647 l 208 630 q 208 623 208 625 q 214 573 214 593 l 214 562 q 220 497 220 522 l 220 488 q 212 467 213 472 l 212 463 q 212 451 212 458 l 218 454 q 222 457 220 456 l 238 465 q 254 472 248 469 q 264 474 258 473 l 275 475 l 309 510 q 344 545 330 531 q 391 600 366 566 l 397 608 q 404 615 400 612 q 421 625 412 623 l 434 618 q 446 612 441 614 q 463 627 452 618 q 400 638 431 637 m 263 297 l 266 297 q 269 298 268 298 q 336 349 311 326 l 347 358 l 357 368 q 378 386 370 378 q 436 458 418 426 q 454 490 444 471 l 471 522 l 472 515 l 460 488 q 449 463 454 473 q 403 397 433 428 q 323 325 357 350 q 279 294 305 311 l 257 279 l 235 264 l 227 259 l 220 254 l 220 235 q 219 220 220 229 l 218 204 q 216 180 216 190 l 216 173 l 214 170 q 207 186 209 176 l 206 195 q 205 203 205 200 q 200 220 203 210 l 197 229 l 195 238 q 171 220 178 231 l 171 200 q 165 130 171 175 q 165 123 165 127 q 168 104 165 115 q 195 -18 180 43 q 221 -120 207 -66 q 223 -132 223 -127 q 221 -142 223 -138 q 217 -155 219 -146 l 215 -161 l 214 -167 q 212 -171 213 -168 l 210 -172 l 209 -174 l 201 -166 l 193 -157 q 176 -144 184 -149 q 173 -139 174 -142 l 172 -136 l 171 -134 q 146 -49 159 -101 l 142 -28 q 137 -9 139 -17 q 124 16 135 4 l 116 26 l 109 35 q 94 55 100 46 q 52 157 63 101 q 47 180 50 166 l 46 192 l 45 203 q 39 250 41 233 q 36 288 38 264 q 34 315 35 299 l 33 328 l 32 342 q -16 375 7 359 q -17 380 -17 378 q -16 388 -17 384 q -12 394 -14 391 l -9 401 q 0 401 -5 401 q 29 395 14 401 l 29 412 q 26 528 27 463 l 26 643 q 32 699 26 665 q 34 717 33 706 l 35 726 l 36 734 q 16 739 27 736 l 5 742 l -5 744 l -14 753 q -13 762 -14 756 l -12 767 l -12 773 q -20 783 -12 778 l -24 784 l -26 786 q -32 791 -30 789 l -29 798 l -26 804 q -18 817 -22 812 q -1 811 -9 815 q 7 806 3 809 l 14 802 q 66 783 36 788 l 114 773 l 117 772 q 176 749 138 762 l 191 743 l 205 738 q 235 727 222 732 q 326 701 271 712 q 369 696 349 696 q 389 697 379 696 q 384 704 387 700 l 378 710 q 370 724 372 717 q 368 726 369 725 q 364 729 366 728 l 349 739 l 334 747 l 334 748 q 342 755 334 754 l 347 755 l 353 755 q 363 754 359 755 q 382 752 372 752 l 401 752 q 438 734 422 752 q 466 697 451 719 q 488 680 475 684 q 499 676 493 680 l 505 674 l 510 671 q 517 661 515 665 l 518 659 l 518 656 l 519 627 l 519 624 q 505 591 519 604 l 498 587 l 492 581 q 480 571 486 575 q 457 550 469 564 l 447 538 l 437 526 q 416 501 428 516 l 406 489 l 395 477 l 391 471 l 387 465 q 379 452 381 458 q 374 448 377 451 l 369 444 q 378 437 372 441 q 376 434 378 435 l 374 431 q 371 428 372 429 q 338 394 355 416 q 324 376 332 387 l 317 366 l 310 356 l 299 342 l 288 327 q 264 299 275 311 q 264 298 264 299 l 263 296 l 260 299 q 256 302 258 301 l 271 319 q 284 336 279 330 q 309 372 300 356 q 228 313 276 349 q 224 309 225 311 q 222 305 222 307 q 220 286 220 295 q 222 268 220 276 l 232 274 l 241 280 q 260 292 252 287 q 262 294 261 292 l 262 296 l 263 297 z "},"Q":{"ha":474,"x_min":-26,"x_max":491,"o":"m 115 43 l 116 33 q 121 14 118 21 q 132 30 129 26 l 127 35 l 122 41 q 113 54 117 48 q 115 43 113 49 m 122 -5 l 123 -13 q 125 -28 124 -22 q 144 -14 137 -23 l 139 -10 l 134 -6 q 121 4 127 -1 q 122 -5 121 1 m 77 500 l 78 509 q 83 527 81 519 q 73 518 73 518 l 65 507 l 57 495 q 41 473 47 481 q 28 437 30 458 l 28 418 l 29 408 l 30 399 q 31 395 30 397 l 33 393 l 34 390 q 75 493 41 460 l 77 500 m 1 357 q -1 353 -1 355 l -6 324 q -7 301 -7 311 l -7 295 l -6 272 q -5 250 -5 258 q 2 198 -5 228 q 34 125 11 157 q 66 87 46 108 q 84 69 73 81 l 94 60 l 103 51 q 102 54 103 52 l 102 58 q 102 63 102 61 l 98 77 q 93 89 96 83 q 87 117 87 103 l 87 120 l 83 128 l 79 136 q 41 239 52 189 q 19 302 31 279 q 12 317 16 308 l 10 325 l 8 333 q 5 347 7 339 l 5 355 q 3 363 4 360 l 1 357 m 342 8 q 342 12 342 10 q 340 15 341 14 l 338 18 l 332 26 l 326 34 l 302 65 q 281 98 290 83 q 224 243 239 177 q 220 281 220 262 q 221 299 220 289 l 222 307 l 223 316 l 226 334 l 227 336 l 227 338 q 231 340 229 339 l 232 342 l 233 343 q 245 345 239 345 l 257 347 q 266 338 263 345 q 269 327 268 334 q 273 311 269 319 l 275 304 l 278 296 q 281 285 280 290 q 297 224 285 254 q 326 155 309 194 q 332 143 328 150 l 334 137 q 338 130 337 133 q 340 134 339 132 l 340 136 l 341 138 q 342 144 342 142 l 352 198 l 362 252 q 371 326 370 299 l 371 336 q 374 373 374 355 q 368 420 374 398 l 365 433 l 361 447 q 355 473 357 463 q 327 560 339 526 q 307 593 319 582 q 271 556 289 563 l 267 560 l 264 564 q 258 572 260 569 q 250 578 254 575 l 245 582 l 241 585 q 229 553 231 567 q 223 527 226 536 q 205 395 208 471 q 204 341 204 366 q 207 278 204 304 q 222 183 212 218 l 222 182 l 221 181 l 220 180 l 220 179 l 218 179 q 215 177 216 178 l 214 180 l 212 182 q 211 185 211 184 l 208 197 l 205 208 q 201 231 201 221 q 200 244 201 237 l 198 256 q 196 281 196 272 l 195 319 l 195 357 q 198 433 195 401 q 213 525 202 486 q 216 544 216 536 q 225 576 218 562 q 228 583 227 578 l 230 589 q 216 593 223 593 l 214 593 q 207 591 211 593 l 203 591 l 201 589 q 159 525 178 567 q 139 469 150 503 q 122 378 127 433 q 121 362 121 371 q 130 301 121 335 q 168 184 143 242 l 172 177 l 175 169 q 180 153 179 160 q 183 127 180 142 l 186 115 l 189 102 q 189 95 189 98 q 187 85 189 90 q 180 100 184 92 l 176 107 l 173 115 q 165 96 170 106 q 229 23 190 62 q 266 -1 242 9 q 299 -9 282 -9 q 341 3 319 -9 q 342 8 342 5 m -20 353 l -18 352 l -16 351 q -13 351 -14 351 l -12 352 l -11 353 l -7 372 l -3 390 q -2 405 -2 399 l -2 408 q -5 446 -5 429 q -1 483 -5 466 q 1 494 -1 488 l 3 500 l 5 506 l 8 507 l 12 509 q 18 508 14 509 l 22 507 l 25 507 q 26 489 26 500 l 26 469 q 28 472 27 471 l 30 473 q 33 477 32 475 q 83 544 55 511 q 92 559 87 550 l 100 576 q 138 625 117 611 q 142 629 140 625 l 144 631 l 146 633 l 150 632 l 154 631 q 163 629 159 630 l 165 631 l 167 633 l 170 638 l 173 642 l 176 647 l 171 649 q 166 651 168 650 l 166 652 q 172 660 166 657 q 191 664 180 664 l 202 673 l 214 682 q 236 700 227 692 q 241 707 239 702 q 254 720 245 714 l 269 728 q 272 728 270 728 l 278 728 q 316 704 293 718 q 326 708 320 705 l 330 711 l 334 714 q 353 722 344 722 l 354 722 l 364 694 l 374 667 q 394 610 387 633 q 416 521 412 555 q 418 499 417 513 l 418 488 l 420 477 q 422 456 420 469 l 425 436 l 429 410 l 432 396 l 434 382 q 444 379 438 381 l 450 377 l 456 376 l 456 392 q 457 409 456 402 q 459 425 458 416 l 460 434 l 462 444 l 464 441 l 465 439 q 468 435 467 437 l 473 412 l 479 389 q 490 344 486 363 q 491 331 491 338 q 482 286 491 311 l 473 259 l 465 233 l 463 228 l 462 222 l 452 191 l 443 159 q 437 140 440 151 l 433 119 q 404 59 426 92 l 401 55 l 397 51 q 395 43 395 47 l 395 41 q 429 -41 420 -7 l 446 -107 l 446 -108 l 446 -109 q 447 -127 446 -116 l 449 -147 q 450 -168 450 -159 q 449 -186 450 -178 q 448 -205 448 -194 l 448 -216 l 447 -226 q 446 -233 447 -231 q 440 -240 445 -235 l 436 -222 l 432 -205 q 422 -170 427 -183 q 419 -174 420 -171 l 419 -176 l 418 -178 q 413 -185 418 -184 l 410 -178 q 408 -171 408 -174 q 393 -142 406 -154 q 386 -123 387 -135 q 361 -10 378 -56 l 359 -7 l 359 -5 l 357 -3 q 349 -11 355 -6 l 342 -18 q 326 -21 335 -18 l 319 -23 l 311 -26 q 283 -31 295 -31 l 278 -31 q 282 -39 280 -34 l 283 -42 l 286 -45 q 311 -55 297 -47 q 324 -62 317 -58 l 336 -69 l 332 -71 q 328 -71 330 -71 l 323 -71 q 286 -76 309 -71 q 275 -77 281 -77 q 257 -75 267 -77 q 157 -24 212 -63 l 150 -28 l 142 -33 q 127 -37 134 -37 q 117 -34 121 -37 q 114 -14 115 -25 l 113 -3 l 111 7 q 103 47 108 33 q 54 88 77 61 q 34 113 45 98 l 24 125 l 14 138 l 14 134 q 15 127 14 131 l 16 121 l 18 115 q 20 100 20 106 q 19 92 20 96 l 18 94 l 16 95 q 14 98 15 96 l 1 144 q -12 190 -7 170 q -16 214 -14 199 l -18 225 l -20 237 l -23 260 q -25 283 -25 273 l -26 314 q -23 345 -26 332 q -22 349 -23 347 l -20 353 z "},"R":{"ha":524,"x_min":-49,"x_max":629,"o":"m 159 407 l 161 390 l 163 373 q 168 368 163 372 l 168 370 q 165 388 168 378 l 163 397 l 159 407 m 88 366 q 87 374 88 370 l 87 380 l 85 386 q 83 397 84 393 l 83 386 l 83 374 q 85 350 83 361 q 88 366 88 357 m 111 552 q 85 565 101 561 q 90 500 87 542 q 98 513 97 509 l 99 529 l 100 536 l 101 544 q 106 548 103 546 l 111 552 m 189 349 l 193 346 l 196 342 q 210 338 202 338 q 215 338 212 338 q 218 360 218 346 q 212 417 218 381 q 187 508 202 475 l 158 519 q 157 509 157 515 q 164 446 157 490 q 182 356 173 387 q 189 349 185 354 m 322 482 l 287 492 l 252 500 q 246 494 248 497 q 235 496 241 494 l 229 499 l 224 501 q 205 507 213 507 q 201 506 203 507 l 205 486 l 211 465 q 220 425 217 441 q 224 383 222 408 l 227 361 q 228 340 227 349 l 241 344 l 255 348 q 281 357 270 353 q 338 391 315 370 q 364 418 349 402 l 391 444 q 394 448 392 446 l 395 450 l 397 452 q 347 491 380 490 q 322 482 330 485 m 486 455 l 481 449 l 476 443 l 476 441 q 477 439 476 440 q 486 397 486 421 q 482 365 486 382 q 477 353 480 357 q 461 330 471 343 l 453 318 l 445 307 l 442 313 q 439 318 440 316 q 434 323 437 320 l 431 325 l 428 328 l 412 328 q 402 334 409 330 l 397 337 l 392 341 l 389 340 l 387 338 q 380 336 383 337 q 276 292 332 302 q 264 288 271 290 l 258 287 l 252 285 q 291 249 264 268 l 301 241 l 311 235 q 331 220 323 226 q 349 205 338 215 l 359 197 l 368 189 q 406 155 385 176 l 440 118 q 507 65 467 91 l 538 46 q 568 27 555 35 l 575 22 q 582 18 579 20 q 593 5 590 12 l 624 -17 q 617 -19 621 -19 l 616 -19 q 612 -18 614 -18 l 609 -16 l 599 -12 q 588 -9 593 -10 q 572 -6 580 -6 q 566 -7 569 -6 l 565 -7 l 564 -7 l 572 -18 l 579 -27 q 594 -47 589 -39 q 629 -88 602 -60 q 621 -89 623 -89 l 619 -89 q 614 -87 617 -88 l 610 -84 q 555 -62 592 -73 q 539 -53 549 -60 q 521 -37 532 -48 l 501 -19 q 481 -1 488 -8 l 451 24 l 420 51 l 394 74 l 368 97 l 347 115 l 325 134 l 305 151 l 286 167 l 270 180 q 254 192 261 186 q 220 228 231 210 q 214 188 216 208 l 209 195 l 211 229 l 212 235 l 212 243 l 208 248 l 203 254 l 203 259 l 202 264 q 183 275 196 275 q 169 273 177 275 l 169 267 l 168 262 l 169 208 l 169 203 q 180 118 169 163 q 181 109 180 115 l 182 80 q 184 51 183 63 q 186 36 184 45 l 189 28 l 190 22 l 199 -34 l 202 -47 l 205 -61 q 201 -62 203 -62 q 198 -60 199 -62 q 196 -58 197 -60 l 195 -56 l 195 -55 q 183 -31 190 -45 l 172 -5 q 157 26 168 3 q 158 16 158 22 l 159 7 q 159 -9 159 -3 l 159 -16 l 160 -24 q 157 -39 159 -33 l 147 -41 q 137 -43 142 -42 q 132 -6 134 -29 l 131 3 l 130 13 q 127 32 129 23 q 119 54 121 38 q 117 72 119 61 l 114 90 q 113 100 113 94 l 113 139 q 110 165 113 151 l 106 182 l 102 200 q 96 236 98 222 q 93 254 94 243 l 92 273 l 90 297 l 88 321 q 82 336 87 330 l 82 308 l 81 294 l 81 281 q 80 263 80 271 l 80 256 q 82 197 82 233 l 82 178 q 79 130 81 161 l 78 106 l 77 83 l 77 66 l 76 50 q 79 17 76 31 q 81 -5 80 8 l 83 -17 l 84 -28 q 76 -22 79 -27 q 75 -18 75 -20 l 73 -14 q 67 41 67 18 l 67 78 q 71 179 71 119 l 71 321 l 71 334 l 72 347 q 73 372 73 363 q 70 449 73 407 q 68 461 70 454 l 66 467 l 64 473 q 58 513 58 495 l 58 519 q 58 529 58 524 q 52 567 58 546 l 55 569 l 58 571 q 64 576 61 574 q 39 588 54 581 l 14 600 l 12 605 l 9 610 l 14 625 l 16 631 l 19 639 l -3 657 l -18 669 l -31 681 q -44 703 -43 690 q -45 709 -44 705 l -47 711 l -49 715 q -38 732 -43 724 q -32 734 -35 734 l -30 734 l -22 732 q 15 713 -5 730 l 39 694 l 63 675 q 109 633 90 652 q 172 594 136 606 q 259 563 210 581 q 275 559 268 559 q 292 565 285 559 l 294 567 l 297 568 q 304 568 301 568 q 327 563 317 568 q 353 551 338 557 l 367 546 l 380 541 q 420 507 399 533 l 444 503 q 466 528 452 513 l 477 541 l 489 554 q 492 540 492 548 l 492 536 l 491 532 l 490 528 l 489 520 q 485 490 487 506 q 496 468 490 480 q 486 455 491 462 z "},"S":{"ha":396,"x_min":-30,"x_max":408,"o":"m 239 617 l 241 621 q 224 633 236 629 l 220 635 l 215 636 q 205 640 209 637 q 178 632 197 637 q 210 625 193 629 l 224 621 l 239 617 m 299 38 l 296 39 l 283 15 l 269 -9 q 269 -12 269 -10 l 269 -14 l 269 -15 l 278 -9 q 287 -1 283 -5 q 299 15 296 6 l 299 38 m 312 115 q 309 136 312 125 l 307 125 l 304 114 q 298 92 301 101 q 285 50 292 68 q 312 115 312 83 m 166 646 q 119 627 138 646 q 125 604 121 621 q 138 618 131 610 l 143 624 l 149 630 l 156 633 l 164 637 q 181 644 174 641 q 166 646 174 646 m 330 208 q 321 148 326 168 q 320 134 320 141 q 326 105 320 119 q 346 171 346 134 l 346 178 q 332 212 345 196 l 330 208 m 246 310 l 243 309 q 259 281 248 297 l 268 268 q 277 254 273 260 l 292 227 l 308 198 q 312 212 312 203 l 312 220 q 314 227 313 224 l 308 233 l 302 238 q 292 250 296 244 q 287 268 287 258 q 289 280 287 273 l 246 310 m 134 541 l 139 537 q 147 529 144 532 l 152 528 l 157 528 l 161 522 l 166 517 q 175 505 172 511 q 205 449 189 483 q 207 441 207 445 q 205 434 207 437 q 204 425 204 429 q 206 416 204 420 q 213 411 209 414 l 218 406 q 229 397 225 401 l 233 394 q 236 391 235 392 l 257 379 l 279 367 l 287 361 l 295 356 l 301 353 l 307 351 l 311 349 l 313 348 q 319 345 317 347 q 352 309 343 328 q 359 296 355 304 l 366 284 l 374 283 q 382 282 379 282 q 381 271 381 277 q 382 259 381 265 q 385 248 383 254 l 388 237 q 401 164 401 192 l 401 156 q 401 136 401 148 l 400 123 l 399 109 q 407 111 404 110 l 408 110 l 408 109 l 408 108 q 400 84 401 96 q 393 64 400 74 q 381 45 389 56 l 378 41 l 374 35 q 368 25 370 29 q 354 10 360 20 q 349 1 351 6 l 345 -8 l 337 -14 l 331 -19 q 318 -28 322 -25 q 333 -23 326 -28 l 339 -18 l 345 -14 q 357 -5 350 -10 l 363 1 l 369 7 l 369 3 l 370 1 l 370 -4 q 364 -16 368 -9 l 359 -28 q 334 -52 354 -41 q 264 -72 300 -72 q 243 -70 254 -72 q 237 -69 240 -69 q 229 -70 233 -69 q 216 -71 223 -71 q 174 -64 197 -71 q 96 -23 134 -52 q 65 2 77 -9 q -5 101 26 37 q -11 125 -9 111 q -24 184 -14 157 l -27 189 q -29 195 -28 193 q -30 201 -30 198 q -29 208 -30 205 q -22 202 -25 207 l -20 199 q -18 195 -19 196 q -12 189 -16 193 l -10 185 l -7 182 q -1 175 -5 179 l 2 172 l 5 168 q 7 176 7 172 q 5 184 7 180 q -3 250 -3 211 q -1 286 -3 267 q 16 364 2 325 l 17 366 l 18 368 q 19 371 18 370 q 32 391 26 378 l 36 402 q 41 412 39 408 l 44 415 l 46 415 l 49 414 q 55 414 52 414 q 43 398 47 407 q 38 381 41 392 q 46 376 41 377 l 51 375 q 55 374 54 374 q 68 363 60 369 l 74 358 l 80 353 q 65 296 69 323 q 60 232 60 253 q 75 165 60 199 q 146 54 104 101 q 186 9 167 29 q 197 1 191 6 l 203 -3 l 210 -7 q 215 1 213 -4 l 216 5 l 218 10 q 225 27 220 22 l 249 27 q 281 68 270 40 q 291 102 286 83 l 296 119 l 299 137 q 302 158 302 149 l 302 164 q 289 214 302 187 q 269 248 281 228 l 259 265 l 249 282 l 241 294 l 234 305 q 210 319 225 319 q 203 319 206 319 l 196 317 l 189 315 l 174 334 l 158 352 l 127 388 l 120 396 l 113 405 q 98 421 103 415 q 64 465 75 448 q 55 492 55 479 q 56 500 55 496 q 56 505 56 503 l 56 511 q 66 519 62 516 l 61 552 l 56 585 l 52 585 l 50 585 l 47 585 l 47 587 l 49 589 l 50 593 l 52 596 l 53 598 l 54 600 l 53 602 l 52 605 q 51 610 52 608 q 42 656 43 627 l 42 667 q 45 703 42 683 q 49 715 45 708 l 55 726 q 83 732 64 731 l 90 733 l 98 734 q 115 738 107 735 q 153 748 129 748 q 184 745 167 748 q 245 728 218 737 q 321 681 275 718 q 327 674 323 678 l 330 670 l 332 667 q 352 636 345 647 q 376 592 361 620 q 389 550 387 570 l 390 533 l 391 517 l 391 515 q 386 497 391 510 q 382 504 382 500 l 382 525 q 372 510 375 518 q 362 476 369 503 l 360 477 l 359 477 q 357 479 357 478 q 349 494 355 486 q 343 499 347 496 l 336 505 l 336 507 q 328 543 336 526 q 307 576 321 556 l 302 582 q 297 588 299 585 q 284 595 291 593 l 283 595 l 281 596 l 281 597 l 273 599 l 267 601 q 254 604 259 602 l 215 615 q 176 621 193 621 q 170 623 174 621 l 165 624 q 149 614 157 621 q 143 608 146 612 l 137 600 q 132 588 132 594 q 135 577 132 583 l 138 572 l 140 568 q 130 546 136 560 l 134 541 z "},"T":{"ha":642,"x_min":-83,"x_max":747,"o":"m 235 595 l 236 587 l 237 579 l 250 579 q 261 582 256 579 q 258 593 258 592 q 241 612 252 601 q 238 613 240 612 l 232 613 q 235 595 233 606 m 631 679 q 686 691 653 679 q 735 720 722 705 q 730 718 732 719 l 725 716 q 717 713 720 715 q 647 689 681 695 l 645 689 l 642 688 q 636 688 638 688 q 627 679 630 686 l 631 679 m 368 427 l 366 473 l 363 495 l 361 517 l 357 550 l 353 583 q 354 587 353 585 l 354 590 l 355 593 l 358 594 l 361 595 l 365 597 l 369 598 l 368 602 l 368 606 q 360 606 363 606 q 351 605 355 606 q 336 597 345 604 q 348 505 336 559 l 353 483 l 359 460 q 368 415 365 433 l 368 427 m 351 79 l 352 79 l 353 83 l 354 86 q 356 93 355 90 l 357 119 l 359 146 l 363 214 l 363 216 q 368 261 368 233 l 369 272 l 369 283 q 371 306 370 296 l 371 311 q 370 321 371 315 l 370 330 l 368 338 l 367 355 q 365 371 366 364 q 353 433 359 401 l 347 463 l 340 492 l 339 480 l 338 467 q 340 442 338 454 q 340 426 340 435 l 340 404 l 340 391 q 338 372 340 383 l 336 362 l 335 353 l 335 349 l 336 344 l 336 336 l 338 327 l 338 319 q 338 312 338 315 l 340 299 l 342 286 q 347 260 345 270 q 349 235 348 250 l 350 222 l 351 210 l 352 208 l 353 206 l 357 202 q 353 197 355 199 l 351 193 l 351 79 m 250 349 l 249 355 l 248 362 l 245 379 l 242 395 q 235 429 239 415 q 229 450 234 437 l 225 459 l 222 469 q 218 487 220 477 l 215 505 l 210 534 l 205 562 q 201 564 204 563 l 199 564 l 197 566 q 193 573 193 568 l 193 574 l 195 575 l 197 576 q 203 578 201 578 q 199 602 201 589 l 197 614 l 195 626 l 193 627 l 190 629 q 184 631 186 631 q 148 638 165 638 q 135 637 141 638 q 96 631 114 635 q 39 625 73 625 q -22 621 16 625 q -52 616 -34 619 l -67 614 q -83 612 -77 612 q -80 614 -81 613 l -79 616 q -75 619 -77 618 l -61 624 q -47 628 -54 627 q -30 630 -41 629 l -22 631 l -13 631 l 28 636 q 30 646 30 641 q 27 656 30 651 q 30 662 28 659 l 33 668 l 45 669 l 59 669 q 54 675 57 673 q 50 677 52 676 l 47 677 q -22 694 5 686 q -37 698 -28 696 l -45 699 l -52 699 l -54 700 l -56 701 q -59 707 -59 704 q -55 714 -59 711 l -33 716 l -12 718 q -2 718 -7 718 q 26 715 11 718 q 45 711 34 714 l 63 707 l 82 703 l 100 698 q 138 689 125 692 q 151 688 144 688 q 162 689 157 688 q 196 698 176 692 l 231 708 l 237 710 l 243 711 q 256 715 252 713 q 291 728 269 722 l 309 733 q 326 739 319 736 q 356 760 347 748 l 369 774 l 382 790 l 404 816 q 425 841 416 831 q 481 871 444 861 q 486 871 484 871 q 500 865 493 871 l 501 854 l 503 844 l 503 840 q 504 836 503 838 q 507 823 507 829 q 500 804 507 812 l 489 793 l 479 781 q 456 759 467 768 q 426 734 444 748 l 410 723 l 395 711 q 384 705 391 709 l 379 702 l 374 699 l 370 696 q 367 693 368 694 q 362 684 363 689 q 414 699 388 692 q 416 707 415 703 l 419 714 q 433 724 424 720 q 441 727 436 726 l 450 730 q 456 732 452 731 l 463 733 q 487 745 479 736 q 516 758 498 757 l 568 760 l 620 761 l 624 761 q 668 752 650 761 l 669 750 l 671 747 q 675 743 673 743 q 672 716 673 727 q 663 705 669 713 q 668 705 665 705 l 672 706 q 680 708 677 707 q 709 720 695 714 q 734 727 722 727 q 743 726 739 727 l 745 724 q 747 720 746 722 q 739 707 746 713 q 664 675 714 688 q 627 668 648 671 l 608 665 l 589 663 q 543 660 570 661 q 498 653 524 659 l 475 648 q 454 643 462 645 q 446 638 449 642 q 437 630 443 634 l 432 627 l 427 624 l 425 623 l 422 622 q 418 620 420 621 q 389 608 408 612 l 385 608 l 383 607 l 381 606 l 380 593 q 381 581 380 586 q 390 513 389 538 q 397 445 393 468 q 399 416 399 433 l 399 387 q 403 260 403 331 q 402 212 403 237 q 401 174 401 196 l 399 137 l 398 127 l 397 117 q 396 98 396 106 l 396 92 q 394 64 396 80 l 392 47 l 390 31 q 385 19 389 24 q 373 10 381 14 q 361 20 363 16 q 358 41 359 24 l 357 43 q 355 44 356 43 q 350 50 353 47 l 350 22 q 351 -3 350 7 q 342 -39 351 -21 q 338 -51 340 -44 l 337 -58 q 336 -64 336 -62 l 334 -62 l 332 -60 q 330 -56 330 -58 q 323 -38 328 -48 l 319 -29 q 316 -20 317 -24 q 310 7 310 -4 q 311 27 311 16 q 310 51 311 38 l 309 99 q 307 147 308 127 q 302 186 305 163 l 298 224 l 295 252 l 292 280 l 287 309 q 283 337 284 327 q 281 357 282 345 l 279 378 l 277 405 l 274 431 l 273 436 l 272 466 l 270 495 q 267 513 269 502 l 267 522 l 265 532 q 264 544 264 536 l 264 556 q 263 563 264 559 l 262 566 l 262 570 l 256 569 l 251 568 q 240 565 244 566 l 242 552 l 244 540 q 248 516 246 526 l 250 498 q 252 480 252 488 q 252 464 252 471 q 251 444 252 453 q 250 428 250 437 q 250 414 250 422 l 252 399 q 254 384 253 390 l 254 367 l 254 360 q 254 349 254 354 l 250 349 z "},"U":{"ha":541,"x_min":-13,"x_max":555,"o":"m 339 -12 l 338 -7 l 338 -3 q 337 3 338 -1 l 336 7 l 336 11 q 304 -1 326 -1 l 284 -1 q 286 -3 285 -2 l 288 -5 q 290 -9 289 -8 q 296 -10 292 -9 l 303 -11 q 302 -16 303 -13 l 301 -21 l 303 -22 l 313 -9 q 326 -10 318 -9 l 333 -11 l 339 -12 m 189 34 l 178 53 l 167 71 l 157 89 q 138 125 146 109 l 132 142 q 124 157 127 151 q 104 186 115 174 l 104 181 q 163 57 138 99 q 200 14 180 27 l 189 34 m 528 357 l 523 345 l 517 332 q 507 307 511 315 l 479 248 q 450 188 460 210 q 439 155 445 175 l 437 145 l 435 136 q 429 117 432 123 q 427 97 427 108 q 427 87 427 92 q 429 73 428 82 l 431 65 l 431 57 l 433 58 l 435 59 q 437 61 437 60 l 449 71 q 460 81 456 77 l 467 89 l 475 96 q 488 111 483 104 q 507 146 499 125 q 513 165 510 154 l 519 184 q 531 244 527 210 q 534 274 533 257 l 537 304 q 547 376 541 350 q 528 357 533 368 m 7 435 l 5 435 l 2 433 l 1 446 l -1 459 l -3 478 l -5 497 q -7 513 -6 504 l -10 530 q -13 559 -13 547 l -13 564 l -11 575 q -4 553 -5 565 q -1 526 -3 538 q 1 522 0 524 l 3 520 l 4 518 l 5 508 q 5 498 5 502 q 32 389 13 446 q 42 354 36 376 l 47 336 l 52 319 l 57 300 l 63 282 q 77 245 70 261 q 79 250 79 248 q 79 253 79 252 l 77 256 q 76 259 77 258 l 68 293 q 61 327 64 312 l 45 387 l 30 446 q 26 460 28 452 l 24 475 l 21 493 l 18 510 q 15 517 17 513 l 14 519 l 13 521 q 10 526 12 524 l 10 537 l 9 550 q 8 577 9 566 l 8 581 q 24 613 8 600 l 26 615 l 28 617 q 32 618 30 618 q 43 614 37 618 l 46 613 l 50 612 q 57 610 54 610 l 58 606 l 58 596 q 54 571 54 584 q 57 548 54 559 q 61 526 59 539 l 62 514 l 64 503 l 69 492 q 71 510 70 499 l 71 518 l 71 527 q 73 559 73 546 l 75 606 q 77 652 76 635 q 79 668 77 659 l 81 676 l 83 684 q 85 691 83 687 l 87 694 l 89 699 q 99 697 93 698 l 104 696 l 110 696 l 109 683 l 106 671 q 104 647 105 656 q 103 622 103 637 l 103 610 l 102 596 l 104 595 l 107 593 q 113 589 110 591 l 112 570 l 111 550 q 109 508 110 528 q 113 512 111 510 l 114 513 l 115 515 q 120 520 118 518 q 125 500 125 509 q 129 471 125 488 l 132 456 l 135 442 q 142 418 137 432 l 146 406 l 149 393 q 146 383 146 389 q 151 370 146 377 q 159 347 156 361 l 162 334 q 165 322 164 327 l 170 308 l 174 294 q 182 265 178 277 q 192 254 185 257 q 205 249 196 251 q 210 248 208 248 l 214 249 l 216 249 l 219 242 l 222 235 q 227 222 225 227 q 244 164 233 197 l 264 109 q 286 56 272 88 q 292 47 288 52 l 295 41 l 298 36 l 300 38 l 302 40 q 304 44 303 42 q 329 142 319 89 q 343 185 334 170 q 351 202 348 192 l 353 212 l 355 220 q 363 275 363 253 q 363 281 363 278 l 365 288 q 368 313 368 299 l 368 325 l 369 361 q 368 385 369 374 q 366 409 368 395 l 364 421 l 363 433 l 362 436 l 361 466 l 359 495 l 357 511 l 356 526 l 356 527 q 365 555 356 539 q 377 557 369 555 l 377 572 l 387 574 l 395 577 q 411 548 406 566 l 414 532 q 418 515 416 521 q 424 527 421 520 l 429 538 q 434 570 431 555 q 443 582 435 572 l 444 581 l 446 578 q 448 576 448 577 l 454 559 l 458 543 l 465 524 l 471 505 l 472 501 l 473 497 l 473 484 l 475 469 q 475 441 475 452 q 473 415 475 431 l 472 402 l 470 389 l 467 357 l 465 337 q 463 317 465 325 l 460 288 l 455 259 l 452 233 q 450 214 450 222 l 450 210 l 467 242 q 482 275 476 261 q 502 319 489 290 l 512 342 l 522 365 q 532 380 525 372 q 547 387 539 387 q 551 387 549 387 q 555 374 555 381 q 554 366 555 370 q 549 337 551 353 l 547 323 l 547 308 l 543 274 q 540 240 541 254 q 525 173 534 202 q 507 123 518 151 q 487 94 501 109 q 462 68 477 84 l 449 56 q 436 42 441 47 q 435 35 435 39 q 436 26 435 31 l 437 22 l 438 17 q 439 8 439 12 l 439 0 q 433 -34 439 -22 q 433 -54 433 -43 q 422 -40 427 -50 l 418 -33 q 414 -26 416 -29 q 405 -14 410 -22 l 400 -7 l 395 -1 q 374 -27 386 -9 l 372 -30 l 371 -32 q 368 -36 370 -35 q 356 -50 361 -41 l 352 -58 l 347 -66 q 329 -84 340 -79 q 316 -87 323 -87 q 304 -85 310 -87 l 296 -83 l 290 -81 q 276 -77 281 -79 q 264 -71 271 -75 l 259 -66 l 254 -63 l 252 -61 l 250 -59 q 246 -56 248 -56 q 220 -35 233 -49 q 210 -22 216 -30 l 200 -9 l 193 0 l 185 10 q 170 29 176 22 q 141 77 154 54 q 113 135 127 101 l 101 165 l 89 194 l 83 206 l 78 218 q 67 243 71 234 q 36 338 53 279 q 22 386 31 358 l 8 433 l 7 434 l 7 435 z "},"V":{"ha":570,"x_min":-74,"x_max":597,"o":"m 209 218 q 205 243 209 228 q 204 234 204 239 q 209 213 204 224 l 209 218 m 189 68 q 196 50 189 58 q 201 59 201 54 q 201 64 201 61 l 199 69 l 194 70 l 189 70 l 189 68 m 206 292 q 199 335 206 307 q 185 380 192 366 q 206 290 199 322 l 206 292 m 173 427 l 167 451 q 150 499 159 480 q 116 566 125 551 q 98 587 108 581 q 119 541 106 569 l 130 517 l 140 494 q 179 401 165 440 q 173 427 176 411 m 109 527 l 113 509 q 119 490 116 498 q 132 455 125 470 q 158 393 146 423 q 167 364 161 382 l 171 350 l 175 335 l 187 298 l 200 260 q 180 370 193 317 q 102 553 163 435 l 109 527 m 536 680 l 540 679 l 543 677 q 549 677 546 677 q 556 679 553 677 l 563 677 q 569 675 566 675 q 578 667 576 672 q 577 648 578 660 l 576 630 q 582 627 578 629 l 585 625 l 588 623 q 597 612 595 618 l 595 604 l 591 596 q 584 579 587 586 l 572 554 l 561 530 q 534 481 547 500 q 509 437 518 457 l 502 420 q 494 401 497 409 q 485 381 492 392 q 412 245 446 320 l 397 211 l 382 177 l 353 110 l 323 43 q 295 -21 310 12 l 292 -29 q 289 -37 290 -33 q 287 -48 287 -43 q 288 -54 287 -52 l 282 -59 l 277 -64 l 273 -71 l 270 -77 q 249 -98 257 -83 q 235 -119 243 -106 l 228 -130 l 220 -141 q 198 -134 212 -138 l 198 -132 l 197 -129 l 197 -125 l 205 -92 q 214 -59 210 -74 q 216 -49 216 -54 q 214 -39 216 -43 q 208 -17 212 -29 l 199 5 q 184 47 189 32 q 178 65 183 55 l 170 83 l 151 123 q 132 164 139 148 q 97 245 115 203 q 88 269 93 256 l 80 293 q 79 298 79 294 l 78 301 l 78 305 q 91 285 85 297 l 95 275 q 99 264 98 268 q 113 234 105 252 l 119 218 q 125 202 123 208 q 127 210 127 206 q 126 216 127 213 q 124 222 125 218 l 122 228 q 92 325 113 264 q 73 382 84 345 l 63 410 l 54 439 q 42 470 49 452 l 36 487 q 29 504 32 497 q 30 509 30 507 q 26 524 30 515 l 24 529 l 22 534 q 18 545 19 541 q -18 637 2 589 q -35 677 -24 652 l -52 716 l -59 732 q -64 747 -62 741 q -66 756 -66 751 l -65 761 l -65 765 l -64 768 l -64 771 q -63 777 -63 775 l -64 789 l -66 802 q -71 827 -67 816 q -72 832 -71 829 l -73 836 q -74 840 -73 838 q -64 833 -68 838 l -61 829 l -58 826 l -54 820 l -50 814 q -42 804 -45 807 l -39 800 l -37 796 q -30 790 -33 792 q 10 739 -7 776 l 26 706 q 41 673 34 687 q 55 637 47 657 l 68 602 l 80 572 l 92 543 q 94 539 92 541 l 96 536 q 87 581 94 551 q 73 627 79 614 l 75 627 l 77 628 l 79 629 q 90 607 85 617 l 89 606 l 90 606 l 90 604 q 92 603 91 604 q 117 580 106 600 q 138 542 126 565 l 150 522 q 161 503 157 510 q 164 500 161 502 l 167 500 l 170 498 q 169 493 170 496 q 168 489 168 491 l 176 458 l 185 427 q 202 367 196 391 q 212 327 207 349 l 216 307 l 219 286 q 231 214 228 243 q 233 186 233 203 l 235 171 l 235 157 l 236 144 l 237 132 l 238 127 l 238 123 q 237 106 237 115 q 239 80 237 94 q 244 59 241 71 l 250 39 q 252 34 250 38 l 254 39 l 256 44 q 260 54 258 50 q 300 159 279 91 q 309 184 303 170 l 318 208 q 322 216 319 212 l 328 222 q 339 245 333 231 l 349 268 q 361 297 353 277 l 367 311 l 374 326 q 418 425 402 391 q 437 463 425 439 l 456 500 q 487 591 473 535 q 513 668 496 624 q 530 682 518 680 q 536 680 532 682 m 460 245 q 486 308 473 271 q 497 351 497 341 l 497 353 l 495 351 l 494 349 l 483 330 l 472 313 q 451 276 459 292 q 400 179 429 236 q 392 151 392 163 q 460 245 430 184 m 541 485 l 544 483 l 547 481 l 551 480 q 551 473 551 477 q 549 462 551 468 q 505 334 528 416 q 476 254 494 292 q 435 184 458 215 q 411 157 426 173 q 361 73 377 119 l 357 63 l 354 54 q 351 49 353 52 l 347 43 q 345 49 345 47 l 342 47 q 341 46 342 47 q 312 -25 325 14 l 305 -45 q 298 -52 304 -48 q 296 -45 296 -49 q 298 -37 296 -42 q 351 84 319 30 q 386 165 371 119 q 421 241 397 200 l 429 255 l 437 270 q 454 299 448 290 q 475 335 461 313 l 496 371 q 519 421 512 397 q 529 452 522 434 l 534 468 l 541 485 z "},"W":{"ha":551,"x_min":-22,"x_max":549,"o":"m 185 289 l 185 292 q 182 287 184 290 l 180 284 l 179 281 q 178 276 178 279 q 179 269 178 273 q 185 289 185 279 m -7 539 q 2 496 -3 518 l 18 488 q -5 540 9 507 l -7 539 m 408 191 q 404 218 408 205 q 391 229 399 222 q 395 212 393 222 l 397 203 l 399 195 q 406 163 403 176 q 408 191 408 178 m 389 187 l 389 190 l 389 193 q 389 197 389 195 l 386 208 l 383 218 q 378 238 380 230 q 363 266 376 251 q 356 275 361 270 l 351 281 q 346 287 348 284 q 389 187 365 227 m 309 433 l 309 429 q 310 423 309 426 l 313 403 q 317 383 315 392 l 321 369 l 326 355 q 333 328 330 338 q 345 302 336 315 q 354 290 349 297 l 363 279 q 341 355 363 290 q 310 437 319 420 l 309 433 m 505 741 l 517 741 l 520 732 q 522 724 522 728 q 521 707 522 717 l 519 690 l 519 682 q 520 673 519 676 q 528 671 523 672 l 536 671 q 549 663 545 669 l 546 643 q 544 623 544 631 q 539 591 543 610 l 532 559 l 526 524 l 519 489 l 515 470 l 511 452 q 505 413 507 429 l 503 400 l 500 387 q 500 375 500 380 q 501 359 500 367 q 511 353 506 357 l 511 353 l 511 351 q 512 349 512 350 q 511 339 511 344 q 524 288 511 313 q 528 275 526 283 l 531 267 l 534 260 q 531 256 533 258 l 528 251 q 513 245 523 249 l 506 243 l 498 240 l 495 231 l 493 222 q 488 203 490 210 l 483 183 q 476 165 479 172 q 464 115 468 148 q 463 101 463 109 l 462 87 q 460 59 461 69 q 458 44 458 52 l 458 30 q 454 1 457 12 q 454 -8 454 -2 l 454 -12 l 454 -17 l 454 -28 q 453 -40 454 -35 q 441 -102 441 -72 q 442 -118 441 -110 l 446 -121 l 450 -123 q 458 -130 454 -127 q 437 -146 450 -142 q 425 -150 432 -149 l 418 -151 l 412 -152 q 405 -161 408 -157 l 402 -161 q 400 -160 401 -160 q 395 -153 397 -157 l 393 -151 l 393 -148 q 390 -143 391 -144 q 378 -121 382 -135 q 376 -109 377 -117 l 375 -103 l 374 -97 q 363 -33 370 -76 l 357 -3 l 353 28 l 348 58 l 342 87 q 328 164 334 134 l 318 212 l 308 258 q 291 319 299 300 l 282 343 l 273 366 q 271 369 272 368 l 270 370 l 269 372 q 262 362 264 368 l 262 360 l 261 357 q 260 351 260 354 q 269 353 267 353 l 269 345 q 262 313 269 325 q 240 257 250 289 q 231 229 236 244 l 223 199 l 222 193 l 220 186 q 217 173 218 178 q 214 153 214 163 q 217 131 214 142 q 224 79 224 104 q 224 67 224 73 l 223 61 q 222 56 223 58 q 220 47 220 52 q 222 36 220 42 q 224 19 224 27 q 222 2 224 10 q 214 20 219 6 q 208 43 210 34 l 204 47 l 201 52 l 198 55 l 196 58 q 193 53 193 56 q 194 50 193 52 l 195 48 l 195 46 l 195 42 q 189 14 189 31 q 194 -18 189 0 q 195 -24 195 -22 q 188 -37 195 -33 q 167 -39 180 -37 l 166 -37 l 165 -35 q 163 -30 163 -32 l 159 -5 q 159 13 159 5 l 159 26 q 155 45 159 37 q 154 52 154 47 l 154 54 l 155 59 q 155 62 155 60 q 155 64 155 63 l 153 75 q 151 85 153 81 q 142 106 148 98 q 137 102 140 105 l 135 100 q 132 98 133 99 q 124 123 128 106 l 121 136 q 117 149 119 143 q 109 173 113 157 l 104 185 l 100 197 q 81 247 91 224 q 71 271 77 257 l 61 295 l 57 295 q 36 303 43 295 l 34 316 l 33 329 q 29 357 31 345 q 25 374 28 369 q 7 406 18 388 l -10 438 q -22 440 -14 439 l -22 448 l -22 454 q -15 460 -18 457 l -14 460 l -12 460 q -10 458 -11 459 l -3 447 q 4 435 1 440 l 14 414 l 19 404 l 24 393 l 24 397 q 24 403 24 401 q 16 421 23 406 q 1 450 7 439 q -5 463 -1 455 l -9 470 l -14 477 q -6 490 -11 482 l -7 496 l -9 502 l -12 515 l -16 533 l -19 551 q -20 555 -20 553 q -14 568 -20 563 q -12 569 -13 569 q -4 562 -7 569 l 8 532 l 20 505 q 26 496 20 504 q 18 551 21 530 q 41 563 24 562 q 42 571 41 566 l 42 580 q 49 595 43 589 q 56 595 54 595 q 62 593 58 595 l 60 567 q 87 625 75 589 l 90 626 l 93 627 q 96 627 94 627 q 98 627 97 627 q 105 625 100 625 l 109 625 l 113 625 q 128 617 123 625 l 126 612 l 123 606 l 117 591 q 110 576 113 583 q 94 499 94 547 q 94 481 94 490 q 100 456 95 468 q 132 387 118 414 q 165 304 146 357 q 168 297 165 301 l 169 294 q 170 290 170 292 q 193 326 184 309 q 244 422 221 382 q 256 441 252 434 q 266 460 262 448 q 269 470 267 464 l 271 480 l 271 484 l 271 488 l 270 517 l 275 518 l 280 519 q 289 524 286 522 q 296 530 292 526 l 299 534 l 302 537 q 307 538 304 538 q 315 531 313 538 q 310 525 313 528 l 307 522 l 304 517 q 309 513 306 515 l 311 509 l 314 507 l 310 500 l 307 494 q 306 490 306 492 q 311 467 306 480 l 331 412 q 351 357 343 379 q 366 310 357 340 l 373 287 l 380 264 q 401 233 387 245 l 401 252 l 393 305 q 383 358 387 335 q 361 453 372 420 q 340 480 356 470 l 341 484 l 342 488 q 368 458 360 481 q 380 416 374 441 l 389 374 q 404 295 397 338 q 408 271 406 286 l 409 258 l 411 245 q 416 228 412 235 l 420 250 l 423 273 l 437 363 l 440 381 q 441 400 441 392 q 440 410 441 405 l 439 416 l 437 421 l 408 508 q 378 595 389 561 q 374 614 376 603 l 372 623 q 370 632 371 629 q 380 639 374 639 q 385 638 382 639 q 414 581 401 620 l 433 528 l 451 475 l 456 464 l 458 474 l 459 479 l 460 483 q 463 499 462 493 q 484 611 473 564 q 486 629 486 618 l 488 646 l 490 667 l 493 687 l 494 691 l 495 704 q 497 717 496 712 q 500 728 498 722 l 503 734 l 505 741 z "},"X":{"ha":546,"x_min":-9,"x_max":555,"o":"m 174 277 q 170 270 173 274 l 166 262 q 161 247 161 254 l 180 273 l 178 274 l 174 277 m 96 157 l 90 149 l 79 133 l 60 106 q 40 80 48 91 q 14 54 28 64 q 8 49 12 52 l 5 46 l 1 43 q -1 45 0 44 l -3 47 l -5 48 l -2 51 l 1 54 q 5 59 3 57 q 38 93 25 75 l 58 123 l 79 153 q 121 214 106 191 q 144 250 131 228 l 156 268 l 168 287 l 167 288 l 166 290 q 164 294 165 292 q 94 367 126 340 q 59 394 79 379 l 23 420 q 9 432 16 425 l 2 439 l -5 446 q 2 449 -3 449 q 7 448 5 449 q 22 432 12 440 l 31 426 l 41 419 l 99 375 q 168 304 129 353 q 175 297 168 303 q 174 302 174 299 l 174 305 q 172 311 173 309 l 159 334 l 146 357 l 129 387 l 112 417 q 89 448 103 433 q 76 461 83 453 l 64 475 q 57 490 57 482 q 58 494 57 492 q 63 497 60 495 l 68 500 q 63 526 63 514 q 68 550 63 538 q 48 584 58 567 l 48 592 q 71 610 56 604 l 74 608 q 75 607 75 608 l 114 554 q 153 501 137 522 l 155 498 l 158 494 q 163 486 161 488 q 180 477 170 477 l 209 437 q 238 397 226 414 q 248 411 243 401 l 278 467 q 361 592 313 532 q 406 635 374 610 q 412 640 409 637 l 416 644 l 419 647 l 422 644 l 426 642 l 426 640 l 425 638 l 417 629 q 409 622 412 625 q 372 579 391 610 q 358 559 368 571 l 351 549 l 344 538 q 290 456 310 488 q 273 428 282 445 l 255 399 q 252 389 252 394 l 257 394 l 260 399 q 302 460 278 427 l 324 490 l 347 519 q 380 566 361 538 l 397 590 l 414 614 q 471 705 447 659 q 475 711 472 707 l 479 717 l 492 717 q 504 711 497 714 l 510 707 l 517 704 q 522 700 518 703 l 523 699 l 524 696 l 528 693 l 515 677 l 503 661 q 473 616 489 642 l 459 593 l 445 571 l 439 560 l 433 549 q 420 527 425 534 q 415 521 418 524 l 412 517 l 409 514 l 401 505 l 393 496 q 377 479 384 486 q 358 460 370 473 q 353 454 356 458 l 349 448 l 349 444 q 330 393 349 422 q 309 363 322 380 l 298 348 l 288 333 l 288 331 q 289 323 288 327 q 292 319 290 321 l 294 315 l 323 273 q 353 230 340 246 q 374 199 361 217 l 397 170 l 400 165 q 403 161 401 163 q 405 154 405 157 q 404 150 405 152 l 401 147 l 399 144 q 393 138 395 140 q 456 52 432 81 q 479 13 472 33 q 487 -2 481 6 l 492 -9 l 496 -16 q 508 -31 500 -22 l 514 -39 l 519 -46 q 522 -52 520 -46 l 519 -51 l 517 -50 q 514 -49 515 -50 l 508 -42 l 502 -35 q 489 -22 494 -27 q 458 7 471 -3 q 435 29 441 19 q 432 34 434 31 l 430 37 q 428 40 429 39 q 427 32 427 36 q 429 20 427 26 l 431 16 l 432 11 q 435 2 434 6 l 430 -2 l 425 -6 q 415 -13 419 -11 q 403 -16 409 -16 q 389 -12 396 -16 l 383 -5 q 378 1 380 -1 q 368 22 368 10 q 366 37 368 28 l 366 45 l 364 52 l 370 60 l 369 61 l 369 62 l 360 73 l 351 84 q 333 104 341 96 q 300 138 317 117 l 286 157 q 272 176 277 170 q 251 199 260 191 l 272 159 l 294 120 q 304 100 298 113 l 310 90 l 315 81 q 341 43 328 58 q 336 35 337 37 l 332 36 q 309 66 319 45 q 223 216 269 144 q 220 219 222 217 l 219 221 l 218 223 l 216 221 l 214 220 q 211 217 212 218 l 194 190 l 177 163 q 143 109 157 130 q 100 45 128 85 l 58 -18 q 44 -41 52 -28 l 37 -54 l 30 -65 q 8 -90 19 -84 q 1 -96 5 -92 l -1 -100 l -5 -104 l -7 -102 l -9 -100 l -7 -86 q -3 -72 -5 -77 q 5 -52 -1 -62 q 45 35 26 -15 q 55 54 49 43 l 60 63 l 66 72 q 89 108 75 87 l 113 144 l 114 146 l 116 151 l 113 154 l 109 157 q 102 165 105 161 l 96 157 m 347 336 l 349 338 q 351 342 350 341 l 368 359 l 384 375 q 424 422 405 395 q 458 463 442 450 q 467 471 463 466 l 471 475 l 475 479 l 475 482 l 473 486 l 472 493 l 481 500 l 490 507 q 507 519 499 514 q 535 547 520 528 l 536 547 q 548 541 544 547 l 549 538 l 551 535 q 555 530 553 532 q 555 524 555 527 q 547 504 555 512 l 496 456 l 491 451 q 434 406 469 428 q 384 361 402 385 q 370 347 379 355 l 361 340 l 353 334 l 345 334 l 347 336 m 394 471 l 397 475 q 426 463 410 474 q 431 458 430 461 q 433 455 433 457 q 431 451 433 453 q 423 450 427 450 q 410 453 417 450 l 408 454 l 405 455 q 399 457 401 456 q 392 469 393 461 l 394 471 m 344 397 q 365 372 360 391 l 358 366 q 343 376 349 368 q 338 382 341 378 l 336 387 l 334 390 l 344 397 z "},"Y":{"ha":338,"x_min":-52,"x_max":375,"o":"m 213 419 l 213 412 q 220 427 215 416 q 213 419 214 420 m 12 544 q 19 535 12 538 l 12 548 q 12 544 12 546 m 240 479 q 229 466 233 471 q 223 450 224 458 q 233 464 229 457 q 237 471 235 467 l 240 479 m 124 260 l 125 255 l 126 251 q 133 233 129 239 q 134 240 134 237 q 121 268 134 254 q 124 260 123 264 m 375 762 q 372 749 375 756 l 369 746 l 367 742 q 363 734 364 737 l 364 728 l 366 724 l 366 720 l 359 709 l 352 699 q 338 677 344 687 q 313 630 323 652 q 317 618 315 625 l 317 616 l 316 614 q 269 530 300 575 q 262 513 263 521 q 245 468 258 488 q 226 421 235 453 q 220 402 224 414 l 213 382 l 213 375 q 282 522 262 469 q 290 515 288 517 l 286 504 l 281 494 q 273 473 277 481 q 260 446 268 462 l 247 420 l 233 392 q 218 363 224 375 q 216 351 216 357 q 216 342 216 347 q 233 270 222 313 l 239 246 l 245 223 q 257 176 253 195 q 268 111 262 154 q 267 102 268 108 l 267 97 l 266 92 l 266 81 l 267 76 l 267 73 l 268 69 q 262 68 263 69 l 258 76 l 254 83 q 246 96 250 90 q 231 132 239 107 q 225 145 229 141 q 222 134 222 140 l 222 129 q 224 121 222 125 l 226 113 q 231 96 228 106 l 233 92 l 235 87 q 238 77 237 81 q 230 81 231 81 q 227 85 229 82 l 226 87 l 224 90 q 221 54 221 75 l 221 39 q 229 -2 222 9 q 237 -1 233 -2 l 242 -1 l 246 0 l 251 0 q 264 -3 258 0 q 277 -76 275 -43 q 273 -98 277 -85 l 270 -109 q 267 -120 268 -115 q 262 -127 267 -124 q 253 -131 258 -130 q 228 -133 243 -132 l 203 -134 l 201 -134 l 198 -134 q 185 -105 190 -125 q 163 5 172 -56 l 159 26 l 155 48 q 149 92 151 75 q 145 155 145 118 l 144 168 l 144 181 q 147 208 144 197 l 143 219 q 138 205 138 206 q 140 193 138 201 l 141 181 l 142 176 l 142 171 q 136 161 142 165 l 134 168 l 132 174 q 128 189 130 182 q 116 166 123 178 l 117 155 l 119 145 q 121 123 120 132 l 123 105 l 126 87 l 135 24 l 141 -14 l 147 -52 l 144 -59 q 141 -54 142 -56 l 139 -48 q 136 -39 137 -43 q 124 26 127 2 q 120 56 122 37 l 119 72 l 117 87 l 113 114 l 109 141 l 106 154 q 104 166 105 161 q 108 181 104 173 q 119 205 112 191 q 123 221 123 214 q 121 232 123 227 q 119 241 120 235 l 117 245 l 115 251 l 114 250 l 112 248 q 109 245 110 246 q 108 250 108 248 q 111 267 108 258 l 114 277 q 117 288 116 284 q 104 313 114 304 q 90 332 96 320 q 85 342 88 336 l 80 353 q 60 395 68 376 q 52 415 56 403 l 43 435 q 40 449 40 442 q 43 463 40 456 l 43 468 q -52 631 -19 562 q -45 638 -51 633 l -41 633 l -37 629 l -31 628 l -24 627 q -21 624 -24 627 q -30 618 -25 621 l -29 616 l -28 614 q -26 611 -27 612 q 23 545 -3 585 q 45 509 31 531 l 67 474 l 71 472 l 71 475 l 71 477 q 69 481 70 479 l 62 494 q 55 508 57 503 l 38 545 l 21 581 q 4 605 14 596 q -13 626 -5 613 q -27 648 -18 635 l -41 669 q -47 678 -44 673 l -51 688 q -36 699 -47 699 q -17 676 -28 689 l -7 665 l 3 652 l 3 672 q 28 684 14 684 l 31 684 q 154 492 89 580 l 168 485 l 183 478 q 186 477 184 477 l 190 478 l 201 493 q 212 509 208 502 q 243 561 231 539 l 254 583 l 264 604 q 287 647 279 632 l 296 665 l 306 682 q 328 715 317 701 q 336 730 331 720 l 339 737 q 343 745 341 742 q 374 768 353 761 q 375 762 375 765 m 345 650 l 349 646 l 344 637 l 339 630 l 334 623 l 332 619 l 330 615 q 323 621 326 618 l 327 629 l 332 637 q 341 655 337 648 q 345 650 343 653 z "},"Z":{"ha":570,"x_min":-16,"x_max":602,"o":"m 342 -13 l 342 -16 l 381 -16 l 387 -15 l 392 -14 l 391 -13 l 342 -13 m 60 443 q 47 439 54 443 l 29 429 q 11 419 18 423 l 31 419 q 47 433 36 428 l 52 435 l 56 437 q 66 441 62 439 q 60 443 63 443 m 88 456 q 105 459 98 456 l 174 488 q 176 489 175 488 l 176 490 l 177 491 q 166 496 173 493 l 123 476 q 79 456 96 465 q 88 456 84 456 m 276 14 q 212 7 245 14 l 250 4 q 286 1 270 3 q 326 1 307 1 q 361 1 345 1 q 276 14 319 14 m 372 505 l 370 505 l 369 506 q 368 507 368 507 l 367 507 q 308 487 342 498 l 249 468 q 130 425 175 444 l 144 425 q 157 425 152 425 q 209 434 188 429 q 323 474 270 447 l 359 492 l 394 511 q 399 515 396 512 l 403 517 q 406 519 405 518 q 387 513 397 518 q 380 509 385 512 l 372 505 m 186 73 l 193 82 l 208 100 l 213 106 l 218 113 q 229 126 224 121 q 299 228 271 172 q 317 262 306 242 l 328 280 l 337 298 l 341 309 q 334 302 338 306 l 331 298 l 328 294 q 316 282 321 287 l 302 265 q 288 248 294 256 l 267 220 l 245 193 q 203 138 219 158 q 180 111 195 127 l 157 83 l 154 79 q 151 75 153 77 q 147 63 148 69 q 160 67 153 67 l 163 67 l 168 66 l 172 66 q 180 65 176 65 l 186 73 m 291 121 q 337 103 307 111 l 361 98 q 384 90 374 94 l 385 88 l 386 87 q 387 85 387 86 q 397 68 389 75 q 414 59 402 64 l 425 54 q 436 49 431 51 q 456 35 448 42 q 460 41 460 37 q 461 43 461 42 q 460 45 461 44 l 460 56 q 467 87 460 75 q 464 102 464 95 q 465 111 464 107 q 475 100 471 108 l 477 97 l 478 94 q 481 86 479 89 l 482 85 q 502 63 500 66 q 511 33 503 62 q 516 17 513 27 l 521 1 l 530 0 q 541 1 536 0 q 550 2 544 1 l 555 3 l 559 4 q 562 -2 562 1 q 557 -8 562 -5 l 550 -9 l 543 -9 q 526 -9 533 -9 l 526 -15 q 531 -49 526 -29 q 551 -71 535 -61 q 558 -74 554 -72 l 562 -75 l 566 -77 l 567 -79 l 568 -81 q 569 -88 568 -85 q 599 -119 576 -96 l 588 -119 q 578 -115 583 -117 l 572 -113 l 567 -110 q 568 -119 568 -115 q 564 -119 566 -119 q 559 -119 562 -119 l 555 -117 l 552 -115 l 545 -111 l 541 -109 l 538 -108 l 534 -109 l 530 -109 l 522 -111 q 493 -84 504 -99 q 428 -30 469 -51 q 422 -26 425 -28 l 418 -24 q 414 -22 416 -22 q 403 -23 410 -22 l 397 -24 l 390 -25 q 395 -28 391 -26 l 399 -29 q 408 -37 406 -32 l 399 -36 l 391 -35 q 376 -33 382 -34 q 336 -28 357 -28 q 309 -30 323 -28 q 295 -31 303 -31 l 275 -31 l 262 -30 q 254 -19 254 -25 q 255 -16 254 -18 q 281 -19 266 -19 l 287 -19 l 302 -18 l 318 -18 q 322 -12 321 -14 l 320 -9 l 318 -9 l 281 -7 l 245 -5 l 214 -3 l 182 -1 q 168 0 175 0 q 92 -24 126 0 q 64 -43 81 -31 l 50 -53 l 37 -62 q 8 -73 20 -73 l 4 -73 q -14 -50 -10 -62 q 32 6 -2 -24 q 22 11 26 9 q 27 18 25 18 q 41 16 30 18 q 82 50 73 28 l 76 57 l 70 64 q 74 76 71 70 l 77 81 l 81 87 q 87 98 83 92 l 90 104 l 92 111 l 100 111 l 108 111 l 120 127 l 133 144 q 117 165 124 155 l 117 173 l 117 174 q 118 176 118 175 q 140 195 129 182 q 149 206 143 199 l 157 218 q 219 289 192 264 q 223 288 221 288 q 248 303 237 288 q 270 330 257 314 l 281 345 q 292 359 288 354 l 286 358 l 280 357 l 279 358 l 279 359 q 276 361 277 360 l 280 372 q 285 383 283 379 q 298 403 291 395 l 307 410 q 315 417 312 414 q 336 425 326 425 q 391 498 368 467 q 387 496 389 497 l 382 494 q 376 492 378 493 l 324 465 q 199 422 268 436 q 170 418 187 420 l 140 415 l 121 414 l 100 412 q 90 409 96 411 l 80 404 l 71 398 l 66 393 l 63 388 q 48 395 54 389 q 38 410 44 399 l 12 408 l -14 406 q -16 411 -16 409 q -10 418 -16 416 l 5 426 l 22 434 q 27 437 24 435 l 31 439 l 34 441 q 22 444 29 443 l 15 446 l 9 448 q -13 460 -5 451 q -5 465 -10 462 q 12 456 1 459 q 21 454 16 455 l 30 453 q 41 452 35 452 q 64 458 53 452 q 98 474 78 465 l 116 482 l 134 490 q 139 494 136 491 l 141 494 l 143 496 q 147 498 145 497 q 122 505 134 502 q 92 496 113 496 l 85 496 l 81 505 l 80 511 l 77 516 q 69 519 75 517 l 59 524 q 57 532 57 528 l 57 538 l 58 541 q 58 544 58 543 q 58 546 58 545 l 61 549 q 76 550 67 549 l 84 551 l 92 552 q 107 553 100 553 q 123 551 116 553 q 143 549 131 549 l 153 548 l 163 547 l 180 546 l 195 545 q 210 544 202 544 q 280 554 239 544 q 334 569 302 559 q 380 583 363 577 q 389 587 384 585 l 393 590 l 397 593 l 402 589 l 407 585 l 410 585 q 412 585 411 585 q 447 602 431 591 q 467 615 454 608 l 488 627 q 505 640 497 633 q 527 652 513 646 q 539 656 532 654 l 551 661 q 566 665 557 663 l 574 667 l 583 669 q 595 656 590 667 l 596 652 l 598 648 q 602 640 600 644 q 597 617 600 627 l 581 612 l 573 610 l 566 608 l 561 601 l 556 594 q 548 581 551 586 l 537 576 l 528 573 q 507 559 515 568 l 498 547 l 488 536 q 501 524 498 528 q 507 507 507 516 l 503 503 l 500 499 q 492 492 495 494 q 474 482 484 484 l 457 459 l 441 437 q 408 392 421 410 q 381 350 397 376 l 368 329 l 355 309 q 326 258 341 288 l 312 233 l 299 207 q 245 130 277 166 q 223 103 235 119 l 212 88 l 201 74 q 197 67 199 72 l 196 62 l 194 58 l 203 59 l 212 60 l 233 62 q 251 64 245 63 q 254 67 252 65 l 256 68 l 258 71 q 251 73 256 71 l 245 75 q 257 104 245 90 q 273 131 266 115 q 279 144 276 136 l 286 158 q 353 292 321 243 q 380 330 363 307 l 395 349 l 409 368 q 417 380 412 373 l 421 387 l 425 393 l 429 391 l 431 389 l 434 388 l 432 385 l 431 380 q 427 374 429 377 l 376 305 q 339 246 350 269 l 330 228 l 321 210 q 303 174 310 188 q 292 146 298 163 l 289 140 l 286 132 q 280 117 283 123 q 291 121 288 119 m 481 134 l 477 132 l 473 130 q 450 144 456 138 q 446 157 446 149 q 447 162 446 159 q 481 134 469 161 m 533 570 l 534 567 l 534 564 l 535 560 q 528 551 532 557 l 522 543 q 505 528 513 532 q 506 537 506 536 q 513 553 507 545 q 519 559 515 555 l 524 566 q 528 568 526 567 l 530 569 l 533 570 z "},"a":{"ha":534,"x_min":-9,"x_max":587,"o":"m 192 435 l 188 437 l 184 429 q 181 421 182 425 l 181 418 l 182 416 l 182 414 l 184 414 l 192 435 m 206 463 l 214 478 q 227 509 222 496 q 235 527 231 517 l 241 546 q 243 551 242 548 l 243 553 l 243 556 q 204 475 221 518 l 203 472 l 201 469 q 198 463 199 465 q 197 456 197 459 q 199 447 197 451 l 206 463 m 433 275 l 429 275 q 421 269 423 273 l 437 229 l 453 188 q 486 106 475 134 q 465 189 485 116 q 437 277 444 261 q 433 275 435 276 m 318 320 l 317 331 q 313 353 315 344 l 309 375 l 305 396 l 301 418 l 297 441 l 295 452 l 294 463 q 286 486 291 476 q 283 479 285 483 l 280 473 q 275 460 277 465 l 252 408 q 229 355 239 376 q 215 316 222 338 l 201 277 q 199 269 199 275 l 197 264 q 197 258 197 260 q 252 274 220 264 l 265 278 l 278 283 q 303 291 294 288 q 319 309 313 302 l 318 320 m 497 -94 q 505 -102 499 -97 q 502 -96 503 -100 l 501 -94 l 500 -91 q 492 -82 497 -84 q 478 -56 490 -69 l 480 -63 q 483 -70 482 -67 q 492 -82 486 -78 q 497 -94 495 -92 m 174 191 q 139 83 154 117 l 138 80 l 137 77 q 134 73 136 75 q 117 35 124 58 q 111 15 115 28 l 108 5 l 105 -5 q 102 -10 104 -9 q 96 -14 102 -12 q 96 -5 96 -9 q 98 9 96 3 l 93 16 l 89 22 l 82 7 l 75 -7 l 62 -37 l 60 -43 l 57 -50 q 49 -63 52 -61 q 33 -68 46 -66 l 29 -79 l 24 -90 q 14 -113 18 -103 q 5 -108 9 -110 l 9 -95 l 13 -81 l 20 -56 q 17 -52 18 -54 l 16 -50 l 15 -48 q 11 -42 12 -44 l 17 -20 l 22 3 l 34 46 q 68 142 50 105 q 73 153 70 146 l 75 159 l 77 166 q 61 168 69 167 l 60 169 l 58 171 l 55 174 l 55 192 l 47 191 l 40 191 q 24 189 31 189 l 20 189 q -7 194 5 189 q -7 197 -7 195 l -9 200 q 101 235 26 223 q 108 254 107 241 l 109 283 q 112 313 111 300 l 113 328 q 119 342 115 336 q 120 328 120 336 q 119 301 120 317 q 117 279 117 287 l 117 274 q 119 258 117 265 q 127 321 124 289 l 129 345 q 132 370 130 359 q 142 417 135 397 l 143 421 q 144 425 144 424 q 151 431 147 429 q 158 427 153 430 q 140 369 144 404 l 139 354 l 137 339 q 136 326 136 332 q 138 309 136 317 l 157 356 l 159 359 l 160 363 q 172 422 172 384 q 170 441 172 430 l 168 461 l 168 462 l 170 463 q 174 467 172 465 l 176 458 l 177 450 q 180 435 178 441 q 185 441 183 437 l 186 444 l 188 448 q 228 545 207 500 l 240 571 l 252 597 q 257 609 254 602 l 258 612 l 259 614 q 260 619 260 617 q 260 626 260 622 l 259 633 q 258 644 258 640 q 262 648 260 646 l 265 650 l 268 652 q 275 662 274 656 q 279 673 277 667 l 280 680 l 282 686 q 290 688 285 688 l 295 690 l 300 691 q 323 736 308 705 l 323 733 q 321 718 323 726 l 319 713 l 318 709 q 315 700 316 704 l 319 703 l 322 709 q 323 703 323 706 l 323 698 l 330 694 l 333 692 l 336 690 q 376 806 361 736 l 380 806 l 384 807 l 386 791 q 387 777 387 783 q 379 779 385 777 l 372 755 q 365 732 368 743 q 345 687 355 707 q 348 682 346 686 q 350 679 349 680 l 352 675 l 351 669 l 351 663 q 348 649 349 654 q 329 591 342 618 q 324 570 324 581 q 328 551 324 561 q 338 522 332 540 l 342 507 l 347 492 l 348 489 l 349 487 q 351 484 349 484 q 355 477 353 481 l 357 473 l 359 469 q 361 463 359 467 l 363 460 l 365 457 q 405 313 376 390 l 411 312 l 416 312 q 425 317 421 313 q 355 576 372 478 l 359 574 q 362 572 361 573 q 369 547 366 558 q 399 429 383 480 l 434 322 l 436 317 l 453 321 l 470 325 l 490 330 l 509 335 q 513 336 511 336 q 526 332 519 336 q 527 320 526 328 l 527 313 q 528 305 528 309 q 515 296 527 299 q 460 283 494 292 q 455 281 458 283 l 452 281 l 448 279 l 463 231 l 476 182 q 505 83 494 119 q 519 90 512 90 q 525 89 522 90 l 528 82 l 530 75 q 535 61 534 68 q 538 39 538 50 q 538 31 538 35 l 534 26 q 528 20 530 22 q 534 1 530 12 l 538 -9 l 542 -18 q 554 -59 551 -41 q 547 -50 548 -51 l 536 -26 l 526 -2 l 524 1 l 523 5 q 516 10 521 9 l 515 8 l 515 7 q 514 4 514 5 l 514 3 q 519 -15 515 -7 q 522 -28 521 -20 l 523 -35 l 524 -41 q 526 -61 525 -49 l 526 -81 q 536 -119 528 -104 q 530 -123 534 -121 l 533 -130 l 580 -223 l 583 -229 q 585 -235 584 -232 q 587 -245 587 -240 l 587 -247 q 568 -216 578 -234 l 551 -185 q 514 -123 528 -146 l 520 -138 l 524 -145 l 525 -149 l 527 -153 q 519 -161 523 -157 q 500 -145 508 -157 l 496 -140 l 493 -136 q 486 -126 489 -129 q 473 -127 480 -127 l 467 -128 l 463 -129 q 447 -112 454 -123 l 445 -106 l 442 -102 q 437 -92 439 -96 l 435 -93 l 432 -94 q 424 -85 428 -91 l 421 -80 l 418 -75 l 412 -64 q 406 -54 409 -58 q 395 -31 399 -45 l 390 -18 q 386 -6 388 -11 q 383 1 385 -3 l 380 9 q 375 25 378 20 q 368 47 371 35 l 366 59 l 363 71 l 355 111 l 347 152 l 341 181 l 336 210 l 334 221 l 332 233 q 330 238 332 235 l 329 241 l 328 245 l 317 241 l 306 237 l 284 231 l 205 203 l 198 201 q 191 199 193 200 q 182 195 187 197 l 178 193 l 174 191 z "},"b":{"ha":621,"x_min":-74,"x_max":639,"o":"m 543 308 l 542 300 l 545 299 l 545 300 q 546 303 545 302 l 547 305 l 548 307 q 549 310 549 309 q 545 317 549 314 q 543 308 544 313 m 483 141 l 455 98 l 456 96 q 486 140 469 110 l 483 141 m 195 448 l 198 425 l 201 401 q 202 411 202 406 q 199 448 202 427 l 197 459 l 195 471 q 191 494 192 486 q 195 448 191 474 m 398 585 l 403 574 l 408 565 q 417 561 412 564 l 421 559 l 426 556 q 431 568 430 564 q 401 587 411 581 l 398 585 m 178 566 q 165 569 173 569 q 155 568 161 569 l 157 554 l 157 541 q 160 514 158 525 q 169 472 163 497 l 173 451 l 178 430 q 189 413 180 418 q 178 566 180 473 m 178 640 l 180 639 q 182 638 181 638 l 241 619 q 248 618 243 618 l 250 618 q 290 610 267 618 l 336 593 q 382 576 365 584 q 387 575 385 576 l 390 574 l 393 574 q 370 602 389 594 l 359 608 l 347 613 q 324 623 334 619 q 250 641 281 641 l 245 641 l 242 640 l 239 641 q 216 643 229 643 l 209 643 q 194 642 203 643 l 178 640 m 191 556 l 192 547 q 195 530 193 537 l 200 498 l 205 466 q 208 450 206 460 l 209 434 l 214 383 l 216 368 l 217 359 l 218 351 l 231 359 l 245 366 q 270 380 260 374 q 307 409 296 397 q 382 473 340 442 q 393 488 390 478 l 396 495 l 399 503 l 397 505 l 397 506 q 395 508 395 507 l 382 515 l 370 522 q 346 534 357 530 q 233 560 292 556 q 212 563 224 561 l 201 564 q 189 566 194 565 l 191 556 m 229 267 l 231 252 l 234 237 q 240 207 237 218 l 258 135 q 274 63 268 94 q 301 24 277 43 l 302 24 l 304 25 q 307 27 306 26 l 329 52 q 351 77 342 66 l 372 102 q 394 127 384 117 q 441 173 418 155 q 448 181 446 177 q 481 235 462 203 l 481 238 l 481 239 l 477 237 l 473 235 q 467 231 469 233 q 463 227 465 230 l 462 226 l 460 224 q 456 222 458 222 q 452 223 454 222 l 452 227 l 454 231 q 454 237 454 235 l 454 239 q 454 248 454 243 l 454 252 l 454 258 l 454 267 q 460 285 454 276 q 466 294 463 288 l 469 298 l 471 304 l 467 306 l 463 308 q 456 311 459 310 l 424 321 l 391 332 l 374 339 l 366 342 l 357 345 l 355 350 l 354 355 l 351 365 l 336 351 l 321 337 q 292 311 304 321 q 261 289 280 301 l 229 267 m 337 -111 l 337 -93 l 338 -75 q 342 -41 339 -62 l 345 -24 l 347 -7 q 324 -29 338 -16 l 302 -51 q 305 -68 303 -58 l 309 -85 q 307 -107 307 -94 l 307 -113 l 307 -126 l 307 -142 q 317 -193 307 -164 q 302 -177 308 -189 l 292 -157 q 281 -136 286 -144 q 274 -125 279 -131 l 266 -114 q 252 -81 255 -100 q 245 -70 250 -73 q 142 -104 206 -87 q 141 -100 141 -102 q 142 -98 141 -99 q 144 -97 142 -98 l 146 -96 q 191 -68 163 -86 l 214 -53 q 237 -39 227 -45 l 238 -38 l 239 -37 l 239 -25 q 232 -16 238 -19 q 227 -22 231 -18 l 225 -24 l 222 -28 q 205 -7 216 -18 q 194 1 201 -4 l 189 5 l 184 9 q 147 68 153 35 q 144 77 146 72 l 143 81 l 141 85 l 143 85 l 146 85 q 149 85 148 85 q 160 80 154 83 l 163 79 l 166 77 q 173 74 170 75 l 174 73 q 177 71 176 71 q 183 65 180 68 q 184 68 184 67 q 180 77 184 74 q 176 81 179 79 l 172 85 q 175 100 175 92 q 172 115 175 107 q 155 162 163 135 l 148 186 l 141 210 q 140 214 141 212 l 139 216 l 138 218 l 131 215 l 124 212 l 116 214 l 107 216 l 102 227 l 100 227 q 99 227 100 227 l 47 185 l -4 143 q -26 130 -15 134 q -64 106 -48 119 q -68 102 -65 104 l -71 101 l -74 99 q -71 109 -73 104 q -68 113 -70 111 l -65 116 l -41 140 l -16 165 l -12 170 l -7 176 q 2 186 -1 182 q 54 231 25 206 q 75 247 62 237 l 85 255 l 96 264 l 86 328 l 76 391 q 59 521 64 468 q 48 512 54 517 l 43 509 l 38 505 l 37 507 l 36 508 q 35 511 35 510 q 35 523 35 515 l 33 534 l 33 540 q 35 559 33 551 q 66 601 43 585 l 75 606 l 84 612 l 88 625 q 92 637 90 632 q 103 653 96 648 q 122 659 110 658 q 127 659 124 659 l 132 660 l 139 661 l 145 661 q 155 648 149 656 l 172 650 l 189 650 l 197 651 q 203 652 201 652 l 222 650 q 241 649 234 650 q 326 631 281 649 q 345 623 333 627 l 363 614 l 369 613 q 327 646 353 631 q 231 677 281 671 q 153 684 191 684 q 132 683 142 684 q 87 668 109 682 q 82 665 85 667 l 79 666 l 81 669 q 82 672 81 671 q 130 692 104 692 l 144 692 l 157 692 q 184 692 173 692 q 326 655 273 685 q 378 614 359 636 q 404 593 392 598 q 412 588 408 591 l 420 583 q 437 574 430 577 q 457 614 446 593 l 464 615 l 469 616 q 481 617 476 616 q 486 614 482 616 l 490 609 q 495 580 495 594 q 480 532 495 555 l 481 525 l 483 518 q 486 507 485 511 l 486 504 q 484 493 486 499 l 481 499 l 479 505 q 475 519 477 513 q 471 512 473 516 l 469 509 l 467 505 q 459 492 462 498 q 450 473 455 485 l 444 463 q 439 452 441 456 q 441 437 440 447 l 442 429 l 444 420 q 467 415 459 417 q 490 406 480 411 l 495 403 l 499 400 q 541 381 522 383 q 572 284 570 345 q 585 304 576 292 l 591 314 l 597 324 q 621 362 612 347 q 626 374 624 366 l 628 379 l 630 385 q 623 403 629 394 q 618 410 621 406 l 612 418 q 639 384 635 408 q 618 338 636 366 l 589 294 q 560 249 572 267 q 541 218 551 235 l 522 186 l 513 170 l 505 155 q 487 123 494 136 q 469 99 479 113 l 460 87 l 452 76 q 431 53 444 65 q 422 45 428 50 l 418 42 l 414 38 q 408 32 412 36 l 401 25 q 399 28 401 26 l 396 30 q 408 43 399 37 l 411 46 l 414 49 q 420 54 418 52 q 406 67 416 58 q 356 -15 366 32 q 347 -113 347 -57 l 347 -137 q 342 -146 345 -142 q 337 -111 338 -131 z "},"c":{"ha":523,"x_min":-33,"x_max":556,"o":"m 64 412 q 68 422 68 417 q 64 432 68 427 l 64 412 m 77 321 q 79 337 79 330 q 77 351 79 345 q 74 338 74 345 l 74 336 q 75 329 75 333 l 77 321 m 79 477 q 75 463 75 471 q 77 452 75 458 l 82 463 l 87 473 l 97 494 q 79 477 83 486 m 87 326 q 87 307 87 319 l 86 296 l 85 286 q 102 233 88 269 q 112 201 108 221 l 115 185 l 118 169 q 129 130 121 155 q 143 116 132 120 q 186 99 159 110 q 200 94 192 97 l 207 92 l 214 90 q 203 87 207 87 l 202 87 q 186 92 199 87 q 159 98 170 96 q 199 68 182 76 q 264 83 224 68 q 274 87 267 84 l 279 90 l 285 92 q 319 100 305 98 q 338 102 326 100 l 348 104 l 357 106 q 370 108 358 106 q 359 95 359 96 l 357 93 l 355 90 q 351 84 352 87 q 332 68 344 70 q 326 62 332 67 q 392 75 369 67 q 414 95 404 79 q 453 144 436 130 q 473 156 463 152 l 485 176 l 496 195 q 519 235 510 218 q 530 258 524 243 l 534 269 l 539 281 q 548 296 542 287 l 556 300 q 536 227 543 272 q 533 208 536 220 l 531 199 l 529 190 q 526 167 526 177 q 528 154 526 160 l 520 136 l 513 119 q 498 85 505 99 q 445 22 479 43 l 443 20 l 440 19 q 397 -14 422 12 q 359 -48 374 -37 q 341 -58 352 -53 l 332 -62 l 322 -66 q 319 -67 321 -67 q 313 -65 317 -67 l 325 -58 q 337 -52 332 -54 q 394 -3 365 -38 q 395 -2 395 -3 l 395 0 q 387 1 391 1 q 375 -1 382 1 q 366 -3 371 -1 l 356 -5 q 309 -30 336 -11 q 264 -54 281 -49 l 260 -56 l 256 -58 l 249 -56 l 241 -55 q 212 -42 229 -53 l 191 -28 q 170 -14 178 -20 q 153 -1 163 -9 l 143 5 l 134 12 q 127 9 132 12 q 59 71 98 27 q 29 110 41 92 q 18 133 20 125 q 30 123 24 132 l 33 120 l 35 117 q 41 112 38 113 q 26 147 37 127 l 14 167 q 1 188 7 178 q -3 198 -1 191 l -5 203 l -7 210 q -8 189 -8 198 l -10 189 l -12 192 l -14 195 q -16 201 -16 199 q -32 282 -29 252 q -33 307 -33 294 q -31 351 -33 328 q -1 466 -26 399 q 43 549 15 510 q 81 580 57 567 q 113 595 99 590 q 131 610 125 601 q 135 616 132 612 l 140 621 q 152 624 145 622 l 157 626 l 163 628 q 182 631 174 631 l 187 631 l 193 636 q 198 641 196 639 q 216 625 205 634 q 225 626 220 625 l 230 627 l 235 628 q 248 611 246 625 l 248 596 q 251 581 249 587 q 260 562 253 571 q 293 522 276 541 l 310 503 l 328 485 q 361 448 349 460 q 376 430 368 441 l 382 420 l 390 412 q 369 398 383 401 l 357 396 q 345 393 349 395 l 355 376 l 365 361 l 385 330 l 386 317 l 387 304 q 390 276 389 286 l 390 275 l 391 275 l 392 272 l 393 270 l 395 267 l 392 267 l 383 276 l 374 286 q 356 304 363 297 q 323 346 338 322 q 313 361 318 353 l 308 370 l 303 377 q 298 378 301 378 l 294 378 l 290 377 q 285 376 288 376 q 278 378 281 376 l 279 383 q 281 388 281 386 q 281 393 281 390 l 281 398 q 273 404 277 401 l 273 406 q 275 411 275 409 q 273 416 275 414 l 266 431 l 258 445 q 219 517 245 471 q 217 521 218 519 l 216 522 l 215 524 l 213 524 q 203 515 206 524 q 195 489 197 498 q 193 476 195 484 l 193 470 l 192 463 l 187 432 l 183 400 l 176 334 l 175 322 l 174 311 l 174 307 q 184 235 174 281 q 185 229 184 233 l 185 226 l 186 222 q 180 228 182 224 l 178 232 l 177 235 q 168 286 168 263 l 168 309 q 168 332 168 321 q 171 359 169 344 l 174 386 l 178 412 l 182 439 q 189 481 186 458 l 189 493 l 186 492 l 184 491 q 180 488 182 490 l 163 472 l 146 455 q 113 421 127 435 q 78 361 92 399 q 87 326 87 347 z "},"d":{"ha":555,"x_min":-37,"x_max":607,"o":"m 450 189 q 460 199 460 189 l 450 189 m 214 22 l 224 22 q 231 31 227 24 q 214 22 220 26 m 547 262 l 522 262 l 522 260 l 520 259 q 517 256 519 256 q 513 253 516 254 l 511 252 l 508 252 q 509 241 508 248 q 517 248 513 244 l 522 252 l 524 254 l 526 254 q 536 250 532 254 l 538 248 l 541 245 q 545 242 543 243 l 549 245 l 551 248 q 557 255 555 252 q 547 262 549 261 m 148 97 q 159 29 148 62 q 161 61 161 49 q 160 75 161 69 q 149 114 158 88 q 148 97 148 105 m 382 73 l 308 26 q 314 25 311 25 l 317 26 l 334 26 q 359 49 345 36 l 384 72 l 382 73 m 267 546 l 264 549 q 260 553 262 551 q 218 585 235 572 q 183 610 203 597 q 179 612 182 612 l 174 614 l 173 612 l 214 575 l 254 538 q 269 543 259 540 l 267 546 m 182 502 l 189 498 q 201 491 196 494 l 207 488 l 213 484 q 225 476 220 479 q 231 473 228 475 l 233 471 l 237 469 q 250 465 243 465 l 240 475 l 231 484 q 211 504 219 496 q 169 541 189 526 q 176 506 169 526 q 182 502 178 504 m 488 288 l 481 295 q 474 302 477 299 l 439 331 l 435 334 l 430 338 q 421 345 425 342 q 389 361 401 358 q 328 381 355 367 q 212 446 266 412 q 197 456 206 450 l 188 460 q 179 466 182 463 l 180 459 l 180 453 q 182 441 181 446 l 183 419 q 185 397 184 406 l 189 361 l 194 326 l 197 294 l 200 271 q 203 248 202 257 q 205 214 203 234 l 206 179 l 206 177 q 207 175 206 176 q 209 159 209 169 l 209 152 q 210 144 209 147 l 210 137 l 211 130 q 212 119 212 123 l 212 114 q 205 62 210 88 q 203 46 203 54 q 205 29 203 38 l 213 33 l 220 37 q 234 46 229 41 l 228 59 q 222 71 224 66 q 219 85 221 77 l 216 100 q 222 104 219 102 q 227 109 224 106 l 227 111 l 226 113 q 225 118 225 117 q 231 125 225 123 q 252 98 242 117 l 257 90 l 261 81 q 271 66 267 73 q 303 86 284 71 q 320 100 310 92 l 328 108 l 336 115 l 371 147 l 376 152 l 382 157 q 393 166 388 163 q 441 205 422 185 q 445 201 443 204 l 447 199 l 448 196 l 450 199 l 452 201 q 456 205 454 203 q 460 208 458 207 l 462 210 q 463 210 463 210 q 465 217 464 213 l 466 222 q 467 233 467 229 q 486 283 470 268 q 488 286 487 284 l 488 287 l 488 288 m 541 186 q 523 142 534 160 l 515 127 l 507 114 q 489 87 497 99 q 431 25 465 54 q 378 -14 399 -2 q 351 -29 366 -22 q 330 -47 334 -37 q 328 -50 330 -48 l 326 -52 q 316 -53 321 -52 q 312 -44 314 -48 l 302 -43 l 293 -43 l 293 -41 l 302 -37 l 311 -33 q 305 -25 310 -28 l 303 -24 l 301 -23 q 297 -21 298 -22 q 271 -36 281 -29 l 270 -36 l 269 -37 l 267 -36 l 264 -35 q 261 -34 262 -34 q 259 -35 260 -34 q 218 -45 245 -40 l 217 -47 l 216 -48 l 220 -50 l 224 -52 q 234 -56 231 -54 q 247 -71 243 -61 q 234 -81 242 -77 l 227 -85 l 219 -89 q 212 -90 216 -90 q 195 -85 205 -90 l 189 -83 l 183 -81 q 171 -76 176 -77 l 161 -69 l 152 -62 l 132 -46 l 129 -44 l 126 -41 l 90 -7 q 54 28 69 13 q 44 39 50 32 l 40 45 l 36 52 l 28 62 l 21 73 q 3 92 12 85 q -5 100 0 96 l -10 104 l -15 107 l -26 98 q -37 120 -37 106 l -37 121 q -22 153 -36 136 l -10 153 q 38 117 15 141 q 58 94 47 108 l 66 83 l 76 71 l 76 75 q 74 96 76 83 l 72 108 q 70 120 71 115 q 66 144 69 130 l 64 157 l 62 170 l 59 195 l 56 220 l 54 243 l 51 268 l 47 293 l 43 317 l 40 342 l 37 368 l 35 380 l 33 392 q 33 403 33 397 q 34 417 33 410 l 40 387 l 46 356 q 58 290 53 321 q 61 263 59 279 l 64 236 l 73 166 l 77 142 q 80 117 78 127 q 85 90 82 105 l 90 63 q 116 28 94 44 q 125 22 119 25 l 131 19 l 136 16 q 141 49 141 35 l 141 55 q 138 75 140 64 l 135 96 l 131 121 q 126 146 128 136 q 123 175 123 161 l 123 184 l 126 186 l 129 189 l 129 193 l 127 209 l 126 226 q 109 321 123 287 q 103 347 105 332 l 100 361 l 98 375 q 109 373 104 374 q 113 351 111 365 l 118 330 l 119 330 l 119 337 l 119 360 l 117 382 l 111 444 l 110 467 l 108 489 l 111 494 l 114 498 l 114 500 q 113 503 113 503 l 104 508 q 94 513 98 511 l 83 518 l 71 523 q 47 533 55 530 q 40 537 43 534 l 37 540 l 34 542 q 36 554 35 546 l 37 559 l 39 566 q 43 568 41 567 q 48 572 45 570 l 75 564 q 101 556 91 559 q 109 540 106 547 q 124 551 118 544 q 129 558 126 554 l 133 566 q 131 588 132 572 l 134 589 l 137 591 q 144 594 142 593 l 152 587 l 159 581 q 165 562 160 575 q 212 520 186 546 l 235 498 l 258 475 q 287 455 268 466 q 283 463 286 458 l 280 466 l 277 469 l 275 472 l 272 475 q 267 481 269 479 l 219 530 q 170 577 191 558 l 155 592 q 139 607 145 601 q 104 633 120 623 l 98 635 l 93 639 q 81 642 87 642 q 77 645 79 643 l 74 646 l 72 648 q 73 652 73 650 l 74 656 l 69 660 l 64 664 l 73 673 l 82 682 q 161 665 132 675 q 197 646 178 659 q 213 635 204 642 l 229 624 q 295 572 266 597 q 334 536 309 561 l 350 522 l 395 477 q 425 440 411 461 l 434 428 q 436 424 435 427 l 437 422 l 437 419 l 435 418 l 433 418 l 428 416 q 528 326 488 367 q 574 292 548 304 q 594 275 589 286 q 588 260 592 271 l 585 252 q 581 242 583 247 q 604 263 593 246 l 605 259 l 606 256 q 607 250 606 252 l 584 233 l 579 235 l 575 236 l 574 235 l 572 235 q 524 184 547 218 l 519 178 l 497 155 l 475 132 q 446 115 461 117 l 441 110 l 436 105 q 426 95 430 98 l 412 83 l 399 71 q 372 47 382 56 q 356 31 366 40 l 348 22 l 340 13 q 336 6 338 11 l 334 2 l 332 -2 q 336 -12 334 -5 l 341 -22 q 366 -3 351 -17 l 371 3 l 377 8 q 391 18 384 14 l 389 13 q 387 9 388 11 q 377 1 383 6 l 374 -1 l 372 -3 q 366 -8 368 -6 q 417 22 381 -8 q 471 76 448 49 q 534 191 515 130 q 541 186 538 189 m 61 374 l 72 305 l 82 237 q 100 98 94 156 l 97 102 q 96 106 96 104 q 90 137 92 122 l 85 163 l 81 191 l 74 239 l 71 263 l 67 287 l 63 314 l 58 341 q 56 368 57 353 l 56 371 l 56 373 l 57 374 l 61 374 z "},"e":{"ha":656,"x_min":-75,"x_max":749,"o":"m 198 36 l 209 36 q 218 40 212 36 q 210 43 213 43 l 210 43 q 198 36 206 43 m 195 87 q 198 87 197 87 q 203 88 200 87 l 206 90 q 210 92 208 92 q 201 141 207 109 q 198 113 200 130 l 197 100 l 195 87 m 749 -7 q 744 -12 749 -10 l 743 -12 l 741 -12 q 738 -13 739 -12 q 728 -27 734 -18 l 717 -26 l 706 -25 l 702 -24 l 697 -24 q 675 -27 686 -27 q 639 -19 655 -27 q 630 -17 635 -18 l 627 -16 l 625 -16 q 618 -15 621 -16 q 605 -18 614 -16 l 598 -20 l 591 -21 q 562 -26 574 -25 q 530 -27 545 -27 q 490 -24 509 -27 q 416 -9 463 -21 q 370 -5 397 -5 q 338 -6 355 -5 q 323 -9 332 -6 l 317 -12 l 310 -14 l 272 -25 l 235 -37 q 218 -21 223 -31 q 213 -11 216 -17 l 209 0 q 180 -9 197 -3 l 178 -7 l 176 -4 q 184 11 178 3 q 191 18 187 14 l 197 24 q 189 25 193 25 q 169 20 178 25 q 152 16 163 16 l 149 16 q 146 26 148 20 l 144 31 l 142 35 q 138 52 138 45 l 138 54 l 143 59 l 146 63 q 154 72 151 68 q 172 120 165 87 q 179 181 178 153 q 180 195 179 186 l 181 208 l 181 212 q 174 229 181 222 l 152 248 q 131 266 140 258 q 84 302 111 283 q 72 311 79 307 l 66 315 l 60 319 q 23 351 33 336 q 10 368 18 359 l 3 376 l -5 384 q -1 387 -4 387 q 2 386 1 387 q 56 376 26 380 q 82 366 70 374 q 115 345 96 357 l 146 323 q 154 319 147 323 q 153 323 154 321 l 153 326 q 151 330 152 328 q 138 372 145 347 l 125 415 q 99 500 110 468 q 83 546 93 517 l 68 591 q 50 615 62 606 q -19 673 9 644 q -71 759 -54 711 q -73 764 -72 761 l -74 768 l -75 771 l -73 772 l -71 772 q -66 773 -68 773 q -20 692 -42 718 q 52 625 3 665 q 24 680 44 652 q 17 688 21 684 l 10 696 q -11 709 1 707 l -13 713 q -15 717 -14 715 l -15 722 l -16 724 q -21 732 -17 727 l -27 739 q -35 757 -33 748 l -26 750 l -18 743 q 1 729 -8 736 l 4 730 l 8 732 q 17 736 13 734 q 40 722 28 733 q 92 642 72 693 l 101 619 l 109 597 q 112 593 110 595 l 113 590 l 115 587 q 126 591 123 590 l 125 597 l 123 604 q 121 616 121 611 q 120 625 120 621 q 122 640 120 633 l 123 640 q 131 635 127 640 l 132 633 l 134 631 q 138 629 136 629 l 138 628 l 140 628 q 149 629 144 629 q 203 604 174 629 q 247 564 228 585 q 294 534 267 544 q 389 509 338 517 q 445 505 414 505 q 483 506 463 505 q 564 519 530 509 l 581 524 l 597 528 l 601 529 q 606 530 604 530 l 608 530 q 637 540 622 530 q 667 553 646 547 l 665 545 q 606 485 633 502 q 564 469 589 473 q 484 458 519 460 l 473 458 l 460 457 q 437 456 446 456 q 420 458 431 456 l 404 459 q 395 456 399 459 l 400 454 l 406 452 q 417 450 413 450 l 418 450 q 455 437 434 450 q 440 427 451 430 l 436 426 l 432 425 q 425 420 428 422 q 408 400 414 407 l 402 401 l 397 401 q 387 404 391 403 q 299 453 338 424 q 271 474 288 462 l 243 495 l 235 501 l 227 507 l 220 513 q 214 517 217 515 l 196 526 l 178 536 q 176 527 176 532 q 177 521 176 524 l 184 520 l 189 520 q 194 513 193 517 l 194 505 q 205 404 195 460 q 214 372 208 393 q 224 326 220 354 q 241 293 228 305 q 256 279 248 288 l 269 266 l 270 266 q 269 264 269 265 l 269 264 q 286 241 275 250 l 288 241 q 289 243 289 242 l 289 243 l 288 247 q 339 196 316 219 l 345 203 q 349 208 348 205 q 401 265 369 232 q 445 288 425 275 q 427 269 437 278 q 404 245 418 260 l 393 233 l 380 220 q 410 222 391 222 q 395 191 408 201 q 338 163 372 171 q 319 161 330 161 q 305 162 313 161 q 285 151 296 151 q 273 154 279 151 q 266 155 271 155 l 262 156 l 258 156 l 258 153 q 262 121 258 139 l 265 104 q 269 86 268 93 q 291 75 277 79 l 296 74 l 302 73 q 313 69 309 71 q 328 72 319 71 l 342 74 q 371 78 359 76 l 389 80 l 408 81 l 412 81 q 420 80 417 81 q 427 71 424 78 l 431 64 l 434 58 q 429 46 434 52 l 427 43 l 425 41 q 422 35 423 37 l 432 34 l 441 33 q 461 32 454 32 l 519 30 l 576 28 l 586 28 l 596 26 q 616 26 608 26 q 646 27 629 26 l 675 28 q 679 30 677 28 q 680 28 680 28 q 698 21 688 25 l 699 20 q 743 -3 716 11 l 749 -7 m 283 261 l 283 257 q 284 248 283 253 q 274 262 278 254 q 283 261 279 262 z "},"f":{"ha":473,"x_min":-33,"x_max":505,"o":"m 178 248 l 178 254 q 179 256 179 255 q 178 257 179 256 q 177 259 178 258 l 175 260 l 174 262 l 174 256 q 176 253 174 255 l 177 251 l 178 248 m 188 250 l 202 250 q 189 256 191 255 q 189 253 189 254 l 189 252 l 188 250 m 256 270 q 247 266 250 270 q 252 264 249 264 q 255 265 253 264 q 258 267 256 266 l 260 269 l 262 269 q 256 270 259 270 m 110 283 q 113 281 112 282 q 117 281 115 281 q 122 282 119 281 q 118 283 120 283 l 114 285 q 108 286 111 286 l 110 283 m 77 581 l 47 581 l 47 578 l 77 578 l 77 581 m 189 277 l 191 277 l 192 277 l 195 278 l 195 285 q 189 291 193 289 l 189 277 m 208 237 q 203 235 206 235 l 200 234 l 197 234 q 188 228 191 233 q 189 221 188 226 q 208 237 203 229 m 210 264 l 210 260 l 224 255 l 227 256 l 229 257 l 235 260 q 222 265 230 264 q 216 264 220 265 l 210 264 m 180 277 l 180 289 l 179 300 q 171 307 179 307 q 172 300 172 304 l 173 296 l 173 292 q 175 277 173 282 l 180 277 m 110 617 l 112 612 q 115 604 114 607 q 126 591 119 595 l 134 591 l 140 590 q 154 591 149 590 q 125 617 140 604 l 121 618 l 118 619 q 109 622 113 621 l 110 617 m 198 517 q 181 519 190 518 q 178 515 180 517 l 176 512 l 174 510 q 173 505 173 508 q 179 484 173 496 q 203 402 193 452 q 203 394 203 399 l 203 376 q 195 390 197 381 l 194 397 q 193 405 193 402 l 188 420 l 184 435 q 174 466 178 454 l 174 460 l 173 455 l 170 351 l 170 335 q 176 348 176 339 l 177 355 q 178 361 177 359 q 180 374 180 366 l 180 389 q 187 383 186 385 q 186 363 186 376 l 184 345 l 188 342 l 191 338 l 191 308 l 201 300 l 210 293 q 229 277 221 284 q 296 290 259 277 q 361 323 338 303 q 367 322 363 323 l 368 321 l 370 321 q 375 320 373 321 q 381 322 378 321 l 385 324 l 389 326 q 400 329 395 329 q 406 328 403 329 l 408 326 l 409 325 l 412 321 l 412 306 q 389 292 404 298 l 376 288 l 364 283 l 333 269 l 301 256 q 292 251 297 254 l 287 248 l 281 245 l 284 232 l 287 218 q 273 206 282 212 l 265 201 l 257 197 q 224 180 244 190 l 208 172 l 191 163 l 188 161 l 186 159 l 185 158 l 188 142 l 192 124 l 195 106 q 202 69 200 85 q 203 49 203 61 l 203 37 l 203 26 q 178 61 188 40 q 170 81 174 70 l 167 90 l 164 100 l 163 95 q 164 90 163 92 l 166 74 l 168 58 q 175 26 171 39 q 187 -18 180 8 l 199 -61 q 200 -70 199 -64 l 202 -81 l 203 -94 l 203 -96 q 201 -107 203 -102 q 157 3 174 -56 l 136 3 q 139 29 139 18 q 137 48 139 39 q 134 33 136 45 q 127 46 127 38 l 125 58 l 124 69 l 124 83 l 130 134 l 132 151 l 128 153 l 125 154 q 117 157 121 156 q 55 190 85 162 l 52 193 l 47 196 q 41 203 43 200 q 33 217 34 212 q 28 241 31 221 l 18 253 q 8 264 12 260 l 3 270 l -3 275 q -14 286 -10 282 q -15 292 -15 289 q -14 296 -15 294 q -12 300 -14 298 l -10 304 q -5 321 -5 313 q -8 334 -5 328 q -11 347 -10 339 q -10 350 -11 347 l -9 352 l -8 354 l -4 350 l -1 346 q 5 338 3 340 q 16 340 9 339 q 90 289 52 315 q 100 298 96 294 q 109 296 104 297 l 113 296 l 117 295 q 118 310 118 301 l 118 352 l 115 354 l 113 356 q 107 359 109 358 l 81 372 l 55 385 l 52 387 q 48 388 50 387 q 44 395 45 391 l 52 395 l 79 382 l 106 370 q 111 368 108 369 l 114 367 q 117 365 116 366 q 111 442 117 399 q 104 480 108 458 l 98 518 l 94 519 l 92 519 l 85 520 q 24 545 52 526 q 12 554 18 548 q -6 565 5 560 l -26 573 l -33 589 l -31 591 q -28 593 -29 593 q -5 595 -19 593 l 7 597 l 18 599 q 24 600 21 600 q 30 599 26 600 l 35 598 l 41 598 l 56 597 l 72 597 q 75 598 73 597 l 75 599 l 77 600 l 73 614 l 71 627 q 85 637 76 633 l 101 643 l 105 642 l 109 641 q 117 640 113 640 l 119 640 q 131 645 126 640 q 201 636 161 636 q 248 639 223 636 q 290 646 275 642 l 296 648 q 302 650 300 649 q 314 659 310 654 q 317 661 315 660 l 319 661 l 321 661 q 323 653 323 658 q 323 647 323 650 l 321 644 l 321 640 l 321 638 q 321 633 321 635 q 282 616 307 621 q 260 613 275 615 l 250 612 l 238 610 q 248 608 242 609 l 254 607 l 258 606 q 275 603 269 604 l 290 601 q 304 600 298 600 q 332 604 315 600 l 354 609 l 376 614 q 418 623 401 621 l 432 626 l 446 629 q 473 635 461 632 q 483 637 478 637 q 505 628 494 637 l 505 616 l 501 608 l 498 600 q 490 583 494 591 q 443 563 479 568 q 365 557 404 557 l 351 557 q 324 553 340 557 l 311 549 l 298 545 l 275 538 l 252 532 q 205 522 226 526 q 197 516 198 522 l 198 517 m 221 92 l 224 92 l 227 65 l 229 38 l 227 37 l 220 37 q 216 79 216 61 q 216 93 216 87 q 221 92 218 92 m 197 516 l 203 513 l 203 510 q 194 479 203 488 q 191 486 191 481 q 192 489 191 487 l 193 491 l 193 493 q 195 498 195 496 q 196 507 195 501 l 198 517 l 197 516 z "},"g":{"ha":490,"x_min":-20,"x_max":543,"o":"m 165 509 l 165 508 q 169 513 167 511 q 172 519 170 515 q 178 528 176 526 q 165 509 165 525 m 205 578 l 210 580 q 217 589 216 583 q 212 589 215 589 q 205 588 209 589 l 195 584 q 200 576 197 580 q 205 578 202 578 m 146 471 l 135 448 q 134 444 134 447 l 134 439 l 138 439 q 142 438 140 438 q 157 493 153 465 l 146 471 m 131 144 l 130 151 q 128 164 128 159 l 126 183 l 125 202 q 124 206 125 204 l 123 210 q 116 239 117 223 l 115 252 l 114 264 l 114 272 q 115 290 114 283 q 116 302 116 294 l 116 307 l 117 313 q 118 326 117 319 l 119 332 l 119 338 q 109 347 111 345 q 97 349 106 348 q 98 335 98 343 l 97 321 q 100 294 97 304 l 102 286 q 104 277 103 280 l 104 274 q 100 258 104 265 q 100 256 100 258 l 100 253 l 102 241 q 103 230 102 235 q 119 153 111 189 q 132 137 121 142 l 131 144 m 335 38 l 323 35 l 311 32 q 286 27 296 28 q 261 26 273 26 q 225 30 241 26 q 169 52 191 39 l 161 55 q 178 29 165 41 q 190 20 182 26 l 196 16 l 203 12 q 184 9 192 10 q 189 4 186 7 l 193 -1 q 200 -10 197 -7 l 229 -10 l 243 -9 l 256 -8 q 345 39 302 -5 l 335 38 m 356 203 l 338 212 l 302 231 l 268 250 l 233 269 l 216 279 l 198 290 q 163 311 176 303 l 162 302 l 165 281 q 168 260 167 269 l 174 182 l 175 176 l 178 161 l 181 146 q 189 119 185 130 l 192 110 l 195 101 q 202 85 199 92 q 246 57 214 60 l 260 56 q 271 55 265 55 q 317 73 298 55 q 343 116 333 87 q 349 136 345 123 l 353 146 l 356 155 q 374 193 364 179 l 356 203 m 264 592 q 258 593 262 593 l 252 595 q 233 585 239 591 q 251 586 243 586 q 273 583 263 586 l 272 581 l 272 578 q 246 576 262 578 l 235 575 l 223 574 q 179 508 200 553 q 153 431 159 465 l 203 405 l 254 378 q 311 359 279 366 q 341 352 323 355 l 372 347 l 393 342 l 414 338 q 419 328 418 331 l 419 326 q 418 318 419 323 l 416 304 l 414 291 l 418 293 q 460 374 450 336 q 463 397 463 386 q 442 449 463 426 l 437 433 l 431 418 q 406 410 419 410 q 391 412 398 410 l 388 422 l 385 431 l 378 448 l 377 452 l 376 456 q 374 465 376 462 q 336 530 363 501 q 291 571 319 549 l 287 575 q 283 578 285 578 q 274 583 279 583 l 273 583 q 264 592 270 589 m 315 638 q 320 624 317 631 l 321 623 l 323 623 l 327 621 q 393 577 364 606 q 404 565 398 572 l 408 557 l 413 551 q 439 481 433 520 l 439 477 q 439 474 439 475 l 441 469 l 443 464 q 467 430 460 446 q 471 401 471 416 q 467 370 471 387 q 433 302 458 333 q 427 295 431 299 l 425 291 l 422 287 l 438 273 l 446 267 l 453 260 q 454 256 454 258 q 450 242 454 249 l 448 238 l 446 234 q 442 227 443 230 l 455 218 l 467 210 l 492 193 l 517 177 l 543 161 q 526 159 537 159 l 519 159 q 509 159 513 159 q 491 162 501 160 l 474 166 q 439 172 453 170 q 433 173 437 172 l 429 174 l 425 174 q 414 142 421 163 l 404 111 q 376 50 391 74 q 384 47 380 47 q 389 49 387 47 l 393 50 l 395 52 q 401 54 399 54 q 411 60 405 56 l 422 66 q 423 58 423 63 q 422 48 423 54 l 419 41 l 417 33 q 413 18 414 24 q 410 10 413 14 l 408 7 l 405 3 q 328 -38 380 -26 q 298 -43 309 -43 q 267 -55 287 -44 q 199 -75 233 -75 l 192 -75 q 145 -60 161 -73 q 107 -18 132 -37 q 99 -12 103 -16 l 96 -7 l 92 -3 q 92 0 92 -3 l 91 2 l 91 5 q 129 -11 106 -4 q 149 -16 136 -13 l 159 -18 l 170 -20 q 161 -12 162 -12 q 117 50 138 9 q 83 89 104 74 q 52 137 65 102 q 35 217 36 177 l 35 254 q 35 277 35 263 l 33 289 l 33 300 l 33 359 q 34 372 33 363 l 35 378 l 35 385 l 35 393 q 21 404 30 397 l 14 409 l 6 414 q -18 439 -10 427 q -19 446 -19 442 l -19 449 l -18 454 l -17 458 q -16 465 -16 462 q -20 476 -16 472 q -11 502 -16 490 q -6 503 -9 503 q 5 499 -1 503 q 26 486 14 494 l 47 475 l 50 473 l 52 473 l 54 471 l 55 477 l 57 483 l 60 494 q 100 583 75 549 q 208 651 143 640 q 243 654 222 654 q 260 653 251 654 q 274 651 266 653 l 281 649 l 288 647 q 301 643 294 646 l 315 638 z "},"h":{"ha":396,"x_min":-44,"x_max":427,"o":"m 156 251 q 146 254 151 253 l 145 251 q 144 248 144 249 q 145 241 144 248 q 156 251 150 245 m 242 530 q 243 522 242 525 q 252 458 247 486 q 254 442 252 451 l 257 427 q 258 424 258 425 l 260 421 l 264 422 q 255 479 262 446 l 249 509 q 243 537 245 526 l 242 530 m 151 321 q 157 319 153 320 l 159 318 l 161 317 q 172 313 165 315 l 176 311 l 182 310 q 192 305 186 308 l 201 300 l 205 303 l 210 307 q 214 315 213 311 l 201 318 l 189 321 q 164 329 174 326 q 151 332 157 332 q 143 330 147 332 q 151 321 146 324 m 248 418 q 236 504 237 459 q 235 521 236 511 l 233 537 q 220 614 225 587 q 215 641 218 625 l 210 667 q 209 673 210 669 l 209 679 l 217 679 q 227 642 227 656 q 233 606 228 623 l 231 629 q 230 653 231 644 l 230 702 q 239 697 237 698 q 238 680 238 688 q 253 542 238 623 q 255 549 254 545 q 254 555 255 551 q 252 585 252 568 l 252 600 l 251 615 l 250 655 q 249 694 249 677 q 252 758 249 725 q 255 770 252 762 l 257 776 l 260 783 l 267 783 l 273 784 l 287 784 q 296 770 291 778 l 306 756 q 308 742 307 751 l 310 726 q 326 701 326 720 l 326 697 l 323 675 l 322 652 l 322 607 q 325 576 323 594 l 328 546 l 330 528 l 332 510 q 334 493 332 503 l 335 488 l 336 484 q 338 474 337 478 q 352 494 343 481 l 359 505 l 366 514 q 397 549 381 536 q 408 552 399 550 l 408 550 l 409 548 l 409 546 q 404 528 409 538 q 347 436 373 471 l 347 425 q 347 414 347 418 q 354 393 349 402 q 356 386 356 390 q 355 382 356 384 q 355 374 355 378 q 355 364 355 369 l 357 356 l 358 347 q 360 333 359 341 l 361 319 q 365 275 364 291 l 367 245 q 368 215 368 228 q 367 193 368 205 l 366 171 q 365 164 365 168 q 367 148 365 157 l 370 137 l 372 126 q 408 -15 386 58 l 414 -35 q 420 -56 418 -47 q 424 -82 423 -66 l 424 -106 q 426 -130 425 -120 q 427 -136 427 -132 q 426 -144 427 -140 l 425 -153 l 423 -161 q 395 -127 408 -148 l 389 -118 q 384 -109 387 -113 q 356 -43 370 -89 l 353 -34 l 351 -24 q 344 -5 347 -13 l 344 -49 l 341 -49 l 338 -34 q 335 -18 336 -24 l 332 9 q 328 38 330 28 q 323 68 326 51 l 317 98 q 303 172 309 141 q 287 251 294 218 l 273 313 l 271 317 q 241 294 254 298 q 237 309 239 300 l 230 300 l 222 293 q 208 278 214 284 l 193 262 q 178 248 184 254 q 162 234 172 242 l 146 221 l 146 135 q 137 70 146 106 q 131 43 134 59 l 125 16 l 125 14 q 125 12 125 12 l 118 -8 l 115 -18 l 111 -29 q 106 -22 107 -26 l 105 -18 l 104 -14 l 100 12 l 94 38 l 93 46 l 92 54 q 89 69 90 63 q 86 130 86 105 q 76 187 85 165 q 73 192 75 189 l 69 197 q 58 227 58 210 q 54 299 57 256 q 53 315 54 305 l 52 322 l 51 331 q 41 334 49 334 q -31 350 7 336 q -37 353 -34 351 l -41 355 l -44 356 q -26 416 -41 383 q -15 418 -21 418 l -4 418 q 17 420 9 418 q 8 454 10 433 l 12 459 l 15 464 q 22 473 20 469 l 26 473 l 31 472 q 41 470 37 471 l 43 471 l 44 473 q 43 481 44 476 l 43 490 q 42 506 43 500 l 39 541 l 37 576 l 35 595 l 33 615 l 31 638 l 28 661 q 27 669 27 664 l 27 677 q 47 691 32 686 q 20 821 43 769 q 24 825 24 825 l 28 827 q 52 738 45 788 q 56 743 55 739 q 58 746 57 744 l 58 749 q 66 758 59 758 l 79 760 q 82 770 82 764 q 80 780 82 774 l 79 784 l 77 789 q 77 795 77 792 l 77 799 l 80 799 q 81 798 81 799 q 92 763 90 786 q 96 753 93 760 l 101 745 q 115 741 109 743 l 116 732 l 119 703 l 123 671 l 128 640 l 130 623 q 132 606 131 612 q 134 565 134 590 l 134 528 q 135 503 134 513 q 137 467 136 488 l 139 449 l 140 431 l 140 414 l 144 412 l 149 411 q 154 410 153 410 l 162 410 l 169 411 l 195 411 l 209 412 q 235 415 224 412 q 241 416 238 415 l 245 417 l 248 418 m 226 738 l 224 738 l 222 737 l 221 746 l 223 746 q 229 739 229 746 l 226 738 z "},"i":{"ha":248,"x_min":-27,"x_max":241,"o":"m 192 134 l 193 125 l 193 117 l 195 119 l 199 127 l 201 136 q 196 151 198 145 q 192 134 192 144 m 225 358 l 224 358 l 220 335 q 216 301 218 315 l 215 274 l 213 247 q 212 240 213 244 l 211 238 l 210 236 q 209 231 210 233 q 208 240 208 235 l 208 248 q 205 262 208 258 q 199 232 203 250 l 194 201 q 193 192 193 197 q 203 153 193 174 l 207 159 q 214 213 210 184 l 215 229 q 217 245 216 239 q 223 307 222 281 q 224 316 223 310 l 224 320 l 225 325 l 225 358 m 231 41 q 233 49 233 45 q 231 60 233 54 q 220 90 227 73 l 209 119 q 193 68 197 102 l 193 54 l 194 47 l 195 39 q 218 28 207 33 q 231 41 229 34 m 197 269 l 203 297 q 208 325 206 313 q 213 352 210 336 l 216 379 l 218 391 l 220 403 q 223 426 221 417 q 227 435 224 430 l 229 440 l 231 445 l 233 486 l 233 528 l 234 530 l 235 530 l 236 531 q 241 516 241 526 l 241 486 l 240 456 q 237 392 240 431 q 231 298 234 335 q 225 234 229 258 l 220 188 q 211 142 216 161 q 210 138 210 140 q 212 129 210 134 l 224 96 l 237 63 q 241 43 241 52 q 239 31 241 36 q 231 18 235 22 q 218 15 226 15 q 212 16 216 15 l 207 16 l 199 18 l 194 18 l 190 18 l 189 16 l 189 13 l 189 8 l 186 -23 l 183 -54 l 181 -77 l 180 -100 l 179 -107 l 179 -114 q 170 -119 175 -116 l 165 -121 l 160 -123 l 157 -121 l 153 -119 q 145 -114 149 -117 l 145 -96 q 144 -65 144 -83 l 142 -49 q 142 -32 142 -39 q 136 -50 138 -40 l 134 -59 q 132 -66 134 -64 q 132 -74 132 -70 l 132 -82 q 125 -96 131 -92 l 122 -94 q 119 -75 122 -86 l 116 -66 l 113 -58 l 110 -44 l 106 -31 q 102 -3 103 -15 q 96 61 100 34 q 94 101 94 78 l 94 161 q 82 201 94 182 q 22 314 45 259 q -15 418 0 363 q -27 486 -22 444 q -22 491 -24 488 q -9 477 -14 490 l -12 474 l -14 471 q 26 330 -14 428 q 93 205 65 231 l 94 221 q 91 236 93 230 q 89 245 90 240 l 87 256 q 85 301 85 274 l 84 324 l 83 347 q 82 382 83 361 l 81 400 l 80 417 l 83 421 l 87 425 q 94 433 92 430 l 94 447 l 92 460 q 91 490 92 477 q 92 508 91 496 l 92 517 l 92 526 l 93 553 l 93 580 q 92 585 93 582 l 90 589 l 88 591 q 107 602 95 600 l 113 602 l 130 602 l 133 650 q 137 696 136 680 q 152 716 143 705 l 171 716 q 182 693 177 703 l 182 682 q 183 676 183 679 q 182 670 183 673 q 186 642 182 656 q 191 610 191 629 q 192 576 192 597 l 192 543 l 195 280 l 195 269 l 197 269 z "},"j":{"ha":552,"x_min":-39,"x_max":548,"o":"m 362 538 l 361 542 l 359 545 q 351 534 355 540 q 366 530 353 534 q 362 538 364 534 m 532 486 l 530 485 l 530 347 q 539 374 539 359 l 539 406 q 536 437 539 424 q 534 461 535 447 l 533 473 l 532 486 m 399 234 l 397 232 l 395 230 q 392 226 393 228 q 370 170 374 191 q 350 119 366 146 q 332 94 343 108 l 321 82 l 311 70 l 304 62 l 296 53 q 281 36 286 42 l 277 31 q 273 25 275 28 q 271 17 271 21 q 272 12 271 14 q 286 6 282 7 q 298 11 290 6 q 346 46 326 26 q 372 81 367 66 q 370 91 370 87 l 370 92 q 373 102 370 95 q 382 145 382 126 q 384 153 382 149 q 386 161 385 157 l 389 172 l 393 182 q 397 208 397 192 l 398 221 l 399 234 m 297 -77 l 294 -79 q 289 -82 292 -81 q 257 -92 269 -90 q 236 -95 246 -95 q 208 -89 221 -95 q 191 -75 197 -84 q 169 -38 180 -60 l 159 -19 l 149 0 q 124 49 132 32 q 77 131 108 85 q 6 285 31 200 l 1 300 l -3 315 q -9 345 -7 332 q -11 353 -10 349 l -11 358 l -12 363 l -7 366 l -3 370 q 5 375 2 374 l 14 378 l 23 382 q 40 391 33 387 q 45 391 41 391 l 47 391 l 51 391 q 195 89 81 227 l 209 71 q 224 54 218 60 q 258 22 241 34 l 260 25 l 262 29 l 266 35 l 274 54 l 282 73 q 300 111 292 96 q 348 187 323 157 q 353 192 350 190 q 361 197 353 193 q 359 192 360 195 l 358 190 l 357 189 q 354 182 355 184 q 292 74 313 123 q 286 54 286 62 l 297 66 q 307 78 303 73 l 327 102 q 344 127 338 115 q 361 174 358 153 q 365 192 362 181 l 368 201 l 370 209 l 376 215 q 380 220 378 218 q 399 255 389 235 q 401 265 401 260 l 401 281 l 401 297 q 400 330 401 316 l 398 351 l 396 372 q 389 414 393 395 q 379 462 385 433 l 374 486 l 370 509 q 368 515 370 511 l 367 517 l 366 520 l 353 522 l 348 524 l 342 525 q 336 521 339 524 l 332 519 l 330 517 q 319 515 325 515 l 315 515 q 280 550 297 533 l 275 547 l 271 544 q 263 538 267 541 l 235 511 l 206 484 l 202 481 q 198 477 200 479 q 188 474 193 474 q 186 480 186 477 q 187 487 186 484 q 222 543 201 522 l 234 555 l 247 568 l 245 569 l 243 570 q 239 572 241 571 q 173 611 206 581 q 146 634 161 623 q 143 636 145 635 l 140 637 l 138 637 l 106 650 l 102 651 q 98 653 100 652 q 94 660 95 655 q 95 662 94 661 l 97 665 q 111 661 102 663 l 117 659 l 124 656 l 123 661 l 122 664 q 145 669 131 666 l 157 671 q 170 673 165 672 l 172 675 l 173 677 q 175 681 174 679 q 181 690 178 686 l 184 690 q 186 689 186 690 q 272 633 238 655 q 290 628 279 628 l 294 628 q 302 635 296 630 l 307 634 l 311 633 q 323 632 318 633 q 327 636 324 633 l 330 639 l 332 642 l 318 671 q 309 694 311 685 q 305 711 305 703 q 307 722 305 718 q 309 728 309 724 l 309 734 q 321 743 313 740 l 324 744 l 328 745 q 334 747 332 746 q 338 747 336 747 l 346 747 q 349 737 348 743 l 350 732 l 351 727 q 360 709 354 715 q 363 717 363 714 q 358 726 363 719 l 358 728 l 360 732 l 361 734 l 363 736 q 378 743 373 742 q 389 746 384 746 q 393 745 391 746 q 405 733 401 743 l 406 730 l 408 726 q 413 720 410 722 q 441 792 441 760 l 441 795 l 454 797 l 467 799 q 483 800 476 800 q 492 800 488 800 l 492 798 l 493 798 q 492 796 493 796 q 484 773 486 787 q 481 762 482 768 l 481 749 l 480 737 l 479 725 l 482 724 l 486 722 l 489 711 l 490 707 l 487 705 l 485 703 l 483 701 q 478 712 479 709 l 474 698 l 470 683 q 463 655 465 667 l 462 652 q 461 648 462 649 q 456 623 456 636 q 457 610 456 616 q 462 591 458 602 l 465 583 l 468 573 l 507 573 q 490 564 500 566 q 481 564 487 564 l 477 564 l 473 563 q 471 556 471 559 q 472 551 471 553 l 474 545 q 475 539 475 541 l 479 523 l 482 506 q 487 472 486 487 l 488 463 l 490 454 q 492 435 492 442 q 493 416 493 427 l 493 397 q 486 370 486 389 l 486 363 q 485 336 486 351 l 484 320 l 481 303 q 478 255 478 278 l 478 243 q 466 161 478 201 l 466 154 l 469 159 l 470 162 l 471 165 l 477 176 l 483 186 q 495 206 490 198 q 514 259 507 226 q 521 326 521 290 l 521 475 q 517 543 520 512 q 513 569 516 555 l 511 582 l 508 594 l 490 673 q 488 682 489 676 l 486 687 l 484 692 q 490 692 488 692 q 498 678 496 687 q 500 671 499 675 l 502 663 q 507 640 504 655 l 509 629 l 512 617 l 513 612 q 514 608 513 610 q 520 602 515 604 q 534 516 525 555 q 545 441 545 473 l 547 414 l 548 387 l 548 382 q 539 342 548 364 q 536 340 538 342 l 532 338 l 530 336 l 530 309 q 515 229 526 256 l 512 222 l 509 214 q 501 199 505 205 q 478 157 490 182 l 469 136 l 459 115 l 451 96 l 443 78 q 424 43 433 58 q 379 -2 406 14 l 363 -12 q 348 -21 355 -17 q 325 -33 338 -26 l 301 -44 q 295 -47 299 -45 l 291 -48 q 287 -50 289 -49 q 288 -44 288 -47 l 288 -42 l 289 -40 l 269 -39 q 248 -39 256 -39 q 246 -41 246 -40 q 250 -46 246 -43 l 255 -51 l 261 -55 q 273 -62 268 -60 q 286 -67 278 -65 l 292 -69 l 299 -71 l 300 -75 l 297 -77 m 5 192 l -3 201 q -10 211 -7 207 q -20 229 -14 218 l -25 238 l -30 247 q -33 260 -33 253 q -32 268 -33 264 l -30 266 l -28 264 q -25 261 -26 262 q -5 220 -16 243 l 7 194 l 5 192 m 146 -27 l 144 -29 q 142 -32 143 -31 l 136 -31 q 130 -28 132 -29 q 106 -12 118 -23 q 93 9 96 -1 l 96 9 l 98 9 q 101 9 100 9 q 147 -24 116 -12 q 146 -27 146 -26 m 12 182 l 26 182 q 41 171 37 176 q 47 155 45 166 q 12 182 27 170 m -34 302 q -28 298 -29 299 q -27 292 -28 296 l -28 291 l -30 290 l -32 290 q -39 298 -38 290 q -34 302 -37 300 z "},"k":{"ha":618,"x_min":-7,"x_max":752,"o":"m 100 258 l 96 260 l 92 252 l 94 250 l 100 258 m 205 239 l 205 234 l 205 229 q 205 220 205 223 l 210 190 l 214 159 q 221 76 220 122 q 222 48 221 64 l 223 34 l 224 20 q 219 14 222 17 l 214 7 l 214 -42 q 202 -70 208 -52 l 198 -85 q 192 -99 195 -93 l 191 -99 l 190 -100 l 189 -100 l 176 -71 l 174 -68 q 172 -65 172 -66 q 162 -50 165 -59 q 160 -41 161 -45 l 159 -32 l 158 -26 l 157 -21 q 157 -14 157 -17 l 157 -11 q 153 14 157 -1 l 151 26 q 149 37 149 33 l 148 47 l 146 57 q 144 77 144 70 q 140 105 144 89 l 136 119 l 133 134 q 127 153 131 141 l 125 159 l 123 164 q 120 175 121 170 q 119 170 120 173 l 119 165 q 118 156 118 159 l 117 156 q 110 160 113 156 l 109 162 l 108 164 q 104 168 106 166 q 100 165 103 167 l 97 164 l 94 163 q 100 102 100 130 q 99 79 100 90 q 92 100 92 88 q 84 161 92 124 q 66 169 76 161 q 48 178 60 174 q 33 193 41 185 l 33 202 q 41 205 36 203 l 44 207 l 47 208 q 68 239 57 223 l 67 244 l 66 250 q 64 260 65 256 l 33 371 q 3 482 15 438 q -5 529 -4 510 q -5 548 -5 536 l -7 557 l -7 567 q -6 574 -7 568 l -2 572 q 1 568 0 570 q 2 565 2 567 l 2 561 q 19 459 3 515 l 66 292 l 76 251 q 81 258 81 253 q 81 262 81 260 q 71 316 74 292 q 80 292 76 307 l 82 285 l 83 278 q 87 264 85 270 q 97 279 97 271 l 94 282 l 91 286 l 85 292 l 85 303 l 85 313 l 85 319 q 84 334 85 328 l 77 366 q 68 397 72 384 q 26 534 48 464 q 3 579 19 558 l -1 585 l -4 592 l -2 595 q 0 598 -1 597 l 9 587 l 17 574 q 33 550 27 561 l 32 553 l 31 555 q 30 561 31 559 l 30 600 q 33 607 31 602 l 35 611 q 38 616 37 614 l 36 626 l 33 637 q 28 661 30 650 q 26 671 26 667 l 26 674 q 28 682 26 679 q 30 704 30 690 l 30 721 l 29 738 q 24 771 28 757 q 24 776 24 773 l 24 781 q 26 787 24 782 q 35 768 30 779 l 39 758 l 43 747 q 64 712 53 724 q 75 715 71 714 l 77 712 q 79 710 78 711 q 90 681 85 698 l 98 651 l 103 630 l 106 619 l 109 608 l 117 608 l 121 607 l 125 607 q 130 604 127 606 l 132 602 l 134 600 l 134 596 q 132 585 132 590 q 134 577 132 581 q 136 563 135 572 l 136 556 q 138 549 137 552 q 147 507 141 534 l 157 465 l 166 427 l 174 388 q 176 381 175 385 l 177 378 l 178 374 l 181 376 l 183 378 q 187 382 186 380 l 199 397 l 212 411 q 237 440 227 429 q 274 490 258 464 l 278 496 l 281 502 l 288 515 l 295 528 q 309 553 303 543 q 324 576 315 563 l 332 589 l 340 600 q 366 611 356 607 l 371 620 l 376 628 q 385 645 382 638 q 409 666 391 656 q 411 665 410 666 l 412 665 l 413 665 q 414 652 414 659 q 405 614 414 634 q 396 587 400 603 l 393 573 l 390 559 q 389 551 389 555 q 391 541 389 546 q 392 534 392 538 q 385 515 392 525 l 365 487 l 345 459 l 309 410 l 273 361 q 285 348 277 355 l 292 342 l 300 337 l 324 319 l 349 300 q 399 264 382 277 q 416 250 406 258 l 424 241 l 433 233 q 429 233 431 233 q 425 234 427 233 q 422 235 424 235 l 420 237 l 387 260 l 355 283 q 324 306 342 292 l 309 317 l 292 329 l 296 319 q 299 309 298 313 l 302 306 l 304 304 l 307 302 q 315 295 312 298 q 334 275 322 288 l 342 265 l 351 256 q 393 212 367 239 l 399 210 q 389 239 395 221 q 400 227 395 235 q 404 222 401 224 l 406 219 l 408 216 l 414 208 l 420 198 q 448 172 430 184 l 460 165 l 471 157 q 494 141 485 148 l 497 138 l 500 134 q 506 128 503 130 q 591 70 551 96 l 614 55 l 635 41 q 680 11 663 23 q 724 -26 710 -10 q 727 -30 725 -28 l 730 -33 l 741 -39 l 752 -47 l 752 -52 l 751 -53 l 750 -53 l 749 -54 l 734 -47 q 720 -43 726 -44 q 688 -36 701 -37 q 629 -13 656 -33 q 587 15 614 -2 l 566 28 l 545 42 l 508 68 q 471 93 484 85 q 450 106 463 99 l 428 119 l 423 121 q 418 123 420 123 q 389 135 404 126 q 375 143 383 138 l 362 152 q 328 170 344 163 q 212 236 271 194 q 209 237 211 237 l 208 238 l 205 239 z "},"l":{"ha":475,"x_min":-7,"x_max":552,"o":"m 479 -52 q 493 -28 486 -42 l 498 -16 l 503 -5 q 505 0 505 -3 l 507 5 l 498 -4 l 489 -14 q 475 -33 480 -24 l 476 -36 l 477 -38 q 478 -42 478 -40 l 479 -52 m 184 38 q 202 31 191 35 l 220 23 q 256 11 240 14 l 254 13 l 252 14 l 250 16 q 248 18 248 17 q 161 64 212 46 l 155 66 l 148 68 q 135 73 140 71 q 111 87 120 79 q 110 81 110 83 q 111 77 110 79 l 112 75 l 113 73 q 115 70 114 71 l 132 62 l 150 54 q 184 38 170 43 m 140 210 q 134 188 134 195 q 139 175 134 180 q 140 192 140 182 l 140 201 l 140 210 m 146 229 l 146 186 q 148 175 146 181 l 149 163 q 155 173 155 168 l 158 191 l 160 208 q 164 242 163 228 q 166 281 165 259 l 168 319 l 168 353 l 168 416 l 166 416 l 162 371 l 159 332 l 155 294 q 153 281 155 289 l 151 268 l 149 248 q 146 229 147 237 m 550 82 l 519 13 q 488 -56 501 -28 q 485 -75 485 -64 l 485 -81 l 489 -87 q 493 -93 491 -90 q 505 -103 498 -100 q 509 -116 507 -104 l 505 -114 l 501 -112 l 495 -109 q 490 -113 492 -112 l 492 -119 l 494 -126 q 498 -138 496 -134 q 508 -152 502 -144 l 513 -159 l 519 -165 q 526 -172 521 -168 l 528 -175 l 532 -178 q 533 -182 533 -179 l 534 -185 q 534 -188 534 -186 l 530 -186 l 526 -184 l 519 -180 q 503 -171 511 -175 l 503 -178 l 503 -186 l 503 -201 q 504 -229 503 -217 q 508 -255 505 -239 l 512 -280 l 522 -340 q 524 -347 522 -342 l 526 -351 q 528 -355 527 -353 q 512 -340 517 -351 q 472 -235 496 -304 q 465 -218 470 -229 l 461 -210 l 458 -201 q 448 -167 452 -186 q 432 -142 444 -150 l 406 -127 l 380 -111 q 328 -82 351 -94 l 317 -76 l 305 -70 q 282 -58 291 -62 q 227 -33 261 -48 l 172 -9 l 120 16 l 83 33 l 45 50 q 30 60 39 53 l 12 72 l -7 84 q -4 98 -5 94 q 3 106 -3 100 l 9 106 q 35 102 21 106 q 50 96 41 100 l 58 92 l 65 89 l 68 96 q 69 102 69 100 l 69 120 q 67 138 69 131 q 66 156 66 146 l 66 174 q 62 199 66 186 q 22 336 41 258 q 16 361 19 346 l 14 375 l 12 388 q 9 395 11 391 l 8 400 q 7 405 7 403 q 14 410 9 406 l 16 405 l 17 401 q 20 393 19 396 q 68 208 29 326 l 71 213 q 72 217 72 216 l 73 231 q 72 246 73 240 q 63 337 68 291 l 59 370 l 54 404 l 53 423 l 51 443 l 50 454 l 48 466 q 45 488 46 479 q 41 553 43 519 q 27 636 40 595 q 34 641 29 637 l 37 644 l 41 647 l 41 680 q 45 712 43 698 l 45 720 l 43 728 q 43 734 43 731 q 45 746 43 741 q 54 726 51 739 l 56 720 l 57 715 q 61 706 59 710 q 68 688 65 699 l 71 678 q 73 669 72 672 l 98 667 q 100 678 100 671 l 100 710 q 102 717 101 713 l 104 723 q 108 735 106 730 q 119 739 111 739 l 125 739 q 131 742 128 739 l 133 739 l 134 735 q 137 730 136 732 l 142 716 l 146 702 q 154 673 152 686 l 155 665 l 157 656 q 158 639 158 646 q 159 608 159 625 q 158 572 159 591 q 155 494 157 531 l 152 448 l 149 402 l 147 372 l 146 342 l 143 296 q 144 290 143 294 q 153 361 151 326 q 155 387 153 372 l 157 401 l 158 414 l 159 417 l 160 450 l 162 482 l 165 511 q 167 538 166 529 q 168 556 168 545 l 168 565 l 168 574 q 172 606 169 588 q 174 609 172 607 l 176 611 l 177 613 l 180 608 q 177 557 177 587 l 176 439 q 177 402 177 419 q 176 372 177 385 q 173 265 176 317 q 171 231 172 250 l 168 197 q 165 186 167 193 l 164 181 l 163 176 l 162 165 l 161 161 l 161 155 l 168 150 l 176 145 l 192 136 l 199 131 l 207 126 q 222 117 215 121 q 263 81 245 106 q 309 40 279 58 q 401 -24 357 12 q 407 -28 403 -25 l 410 -31 l 412 -34 q 420 -38 413 -35 q 425 -41 421 -40 q 429 -42 427 -42 q 444 -39 435 -41 q 457 -32 450 -36 q 473 -19 465 -27 l 474 -20 l 479 -16 l 503 20 q 524 56 515 40 l 532 71 l 540 85 l 542 89 q 544 92 543 91 q 551 95 547 95 q 552 90 552 93 q 550 82 552 87 z "},"m":{"ha":690,"x_min":-8,"x_max":708,"o":"m 635 453 q 641 467 640 459 q 640 483 641 471 q 638 478 639 481 l 637 474 q 635 468 635 471 q 634 461 634 465 l 635 453 m 351 275 l 361 286 q 370 297 367 292 q 374 304 371 300 l 376 307 l 378 310 q 385 327 385 318 q 348 277 368 304 l 351 275 m 353 220 q 367 252 360 231 q 374 280 374 273 l 374 281 q 355 264 366 276 l 351 260 l 347 255 q 338 245 342 250 q 353 220 340 231 m 392 378 l 380 362 l 367 345 l 340 313 l 313 280 q 316 275 315 279 l 317 273 l 318 271 q 327 265 321 267 l 331 271 l 389 348 q 421 409 414 382 q 392 378 408 397 m 640 233 q 698 376 686 310 q 703 418 703 399 q 699 448 703 435 q 695 460 698 453 l 694 465 l 692 471 q 684 475 688 475 q 680 474 682 475 l 677 473 l 673 473 q 667 472 670 472 l 669 475 l 670 477 q 672 480 671 479 q 677 482 674 481 l 681 483 l 684 484 q 699 471 694 481 q 703 463 701 468 l 704 458 l 705 453 q 708 418 708 440 l 708 404 q 691 321 707 363 q 669 269 679 289 q 646 229 659 246 q 631 190 635 214 l 626 159 l 621 128 q 607 66 614 93 q 602 44 605 58 l 597 22 q 595 16 597 20 l 594 14 l 593 10 q 591 19 591 14 q 592 26 591 22 l 593 33 q 595 40 595 37 q 599 61 596 48 l 604 81 l 610 115 l 616 147 l 620 167 l 623 186 q 630 225 627 210 q 636 258 633 239 l 639 275 l 641 292 l 643 310 l 646 328 q 649 362 648 347 l 650 376 l 650 391 q 648 418 650 406 q 646 433 646 424 l 646 447 q 640 439 642 445 q 639 435 640 438 l 638 433 l 638 431 q 625 380 633 412 l 613 328 q 602 290 608 311 q 588 225 591 258 q 584 193 587 212 l 579 162 l 579 158 q 585 133 579 146 l 578 128 l 576 126 l 576 116 l 574 106 l 572 85 l 568 49 l 564 12 q 562 -11 563 4 l 562 -22 l 560 -34 l 557 -56 l 555 -79 l 551 -113 l 549 -131 l 546 -148 l 542 -180 l 539 -203 l 536 -226 l 534 -235 l 532 -245 q 530 -264 531 -256 q 521 -308 528 -283 q 517 -321 519 -313 l 515 -327 l 514 -333 l 512 -340 q 507 -346 510 -344 l 505 -344 l 503 -300 q 502 -257 503 -275 q 500 -226 502 -243 l 498 -210 l 497 -195 q 496 -178 496 -188 l 496 -167 l 498 -153 l 498 -138 l 498 -90 l 496 -89 l 493 -87 q 488 -84 490 -86 q 484 -79 486 -83 l 481 -73 l 476 -73 q 469 -72 472 -72 q 466 -66 467 -69 q 463 -62 465 -64 l 464 -51 l 465 -41 l 468 -20 q 471 10 470 0 l 473 33 q 475 56 473 47 l 477 74 l 479 92 q 488 127 483 112 l 492 140 q 496 153 494 149 q 505 203 505 180 l 507 208 l 508 206 l 509 204 q 511 201 511 202 l 513 184 l 514 168 l 517 132 l 519 132 l 523 155 l 526 179 q 536 254 532 218 l 537 275 l 539 296 l 542 322 l 545 349 l 545 353 l 547 385 q 549 416 547 403 q 551 437 549 424 l 553 449 l 553 460 q 554 470 554 464 l 554 481 l 551 479 l 549 477 q 545 472 547 474 q 492 383 514 420 q 489 376 490 379 q 487 369 487 372 l 487 366 q 484 348 487 357 l 481 338 l 477 328 q 458 280 467 298 q 389 172 424 205 l 389 170 q 397 155 389 163 q 407 143 403 148 q 414 127 412 136 q 427 91 416 114 l 431 83 l 434 75 q 441 57 439 64 l 438 59 q 434 62 435 60 l 425 70 q 416 77 420 74 q 396 90 406 85 q 388 93 393 91 l 386 94 l 383 94 q 378 96 380 96 l 370 104 l 365 109 l 361 114 q 341 134 349 125 q 338 135 340 134 l 335 137 l 327 141 l 326 142 q 324 142 325 142 q 319 142 321 142 q 310 145 314 142 q 305 150 308 146 l 303 153 l 301 155 q 279 182 292 166 l 269 197 l 258 210 l 249 222 l 239 233 q 221 255 229 246 q 210 266 217 260 l 204 271 l 198 275 l 198 279 q 194 303 198 294 q 173 325 189 317 q 178 326 175 326 l 182 327 q 189 329 186 328 q 171 359 184 345 q 159 372 166 364 l 152 378 l 145 384 l 144 382 l 142 380 q 140 376 140 377 q 139 366 139 370 q 140 359 139 362 q 142 337 142 348 q 140 315 142 326 q 139 311 139 313 l 139 292 l 138 279 q 136 253 138 263 q 133 219 133 237 q 134 192 133 206 q 136 156 136 176 l 136 138 l 136 81 q 137 71 136 77 l 138 66 l 138 60 l 138 60 q 130 68 132 60 l 125 88 l 121 109 l 117 123 l 114 130 l 112 138 q 104 127 106 133 q 102 121 103 124 l 101 115 l 93 111 l 88 102 l 83 95 q 74 79 78 85 l 71 81 l 66 84 l 63 81 l 60 77 q 58 45 59 64 l 57 30 l 56 14 q 69 17 64 16 q 60 8 62 9 q 49 5 57 7 q 47 25 47 11 q 48 47 47 39 q 50 57 50 52 q 48 64 50 61 q 47 69 47 67 l 47 74 q 50 87 50 79 q 49 94 50 90 l 47 103 l 47 127 q 47 153 47 141 q 43 189 45 168 l 38 224 l 31 280 q 27 306 31 289 l 23 332 l 16 387 l 12 414 l 8 442 l 6 453 q 4 463 5 459 q -3 486 0 479 q -8 506 -8 496 q -7 514 -8 510 l -5 514 q -1 513 -3 514 q 0 510 0 512 l 0 509 q 3 494 0 502 l 6 487 l 9 479 q 15 458 13 471 q 19 433 17 448 l 22 408 l 26 379 l 31 349 l 35 323 l 38 296 l 42 270 l 46 243 q 50 216 48 227 l 50 205 l 52 194 q 54 173 52 181 q 56 138 56 158 l 57 102 l 60 92 q 63 102 63 97 q 62 110 63 106 q 60 125 60 117 q 62 141 60 133 q 62 146 62 143 q 64 176 63 159 l 64 182 l 64 189 q 65 202 65 198 q 62 214 64 207 l 58 224 q 54 244 55 236 l 54 246 q 55 254 54 250 l 56 260 l 57 265 q 59 288 59 279 q 58 299 58 292 l 56 310 l 54 334 l 51 357 q 50 370 50 362 l 50 385 l 50 403 l 49 421 q 47 458 48 443 q 37 528 44 488 l 36 538 q 34 547 35 543 q 25 564 31 557 q 23 569 24 565 l 22 574 q 41 589 32 582 l 49 587 l 57 585 q 75 581 66 583 q 77 578 76 580 l 79 575 q 83 568 82 571 q 96 548 85 557 q 106 538 100 544 l 111 532 l 117 527 l 119 530 l 121 533 q 123 538 123 536 l 125 543 l 127 547 q 131 557 130 553 q 136 564 132 559 l 138 568 l 140 571 q 149 568 144 568 l 153 567 l 158 567 q 172 556 170 566 l 170 549 l 169 543 q 165 530 166 536 q 165 522 165 526 q 165 515 165 518 q 195 447 180 480 q 208 424 199 436 q 216 413 212 419 l 224 403 q 296 307 268 350 q 300 301 298 304 l 302 298 l 305 294 q 322 319 317 312 q 330 316 325 317 l 335 321 q 340 328 338 326 l 370 366 q 399 404 388 389 q 409 415 404 409 l 420 425 q 440 455 433 438 q 466 502 454 485 q 472 514 469 506 l 477 526 q 482 522 481 524 q 485 512 483 520 l 505 539 q 523 566 516 556 l 529 566 q 555 600 541 582 l 562 602 q 570 602 568 602 q 573 617 572 608 l 575 633 q 583 662 578 650 l 609 662 l 612 680 l 616 698 q 625 734 621 718 q 641 760 629 751 q 665 755 654 758 q 673 728 673 745 q 671 712 673 720 q 665 676 668 694 l 656 616 l 654 602 l 652 588 l 651 578 l 650 569 q 647 549 648 557 q 646 537 647 544 l 644 525 q 642 509 642 515 q 643 500 642 504 q 645 491 644 496 l 646 486 l 648 481 l 652 482 l 657 484 q 659 479 659 481 q 657 475 659 477 l 656 473 l 654 472 q 652 469 652 470 l 654 452 l 655 435 q 656 422 656 430 l 656 386 q 655 349 656 364 q 653 327 655 340 l 652 316 l 650 305 l 644 256 l 642 244 l 640 233 z "},"n":{"ha":571,"x_min":-45,"x_max":557,"o":"m 115 174 l 116 174 l 117 180 l 117 189 l 116 194 l 115 193 l 115 174 m 431 372 l 433 372 l 433 391 l 431 391 l 431 372 m 434 396 l 436 396 l 436 415 l 434 415 l 434 396 m 52 447 q 56 429 52 435 q 59 444 59 438 l 59 446 q 54 462 58 453 q 52 447 52 454 m 406 217 l 406 220 l 406 224 q 404 238 406 233 l 392 264 l 380 290 q 402 220 391 250 q 401 213 401 214 l 406 209 l 406 217 m 68 488 q 63 528 68 509 q 58 549 61 536 l 54 569 q 50 558 50 564 l 50 530 l 49 503 q 66 458 49 487 q 68 488 68 473 m 329 366 l 329 321 l 338 308 q 347 294 343 300 q 370 267 358 279 q 355 320 367 293 q 344 344 351 330 l 338 355 l 332 367 l 329 366 m 283 447 l 286 443 l 290 439 q 298 430 294 434 q 325 397 321 421 q 331 379 327 389 l 335 370 l 340 362 q 346 351 342 358 l 349 346 l 353 340 q 353 346 353 343 q 351 356 353 351 l 339 391 l 328 427 l 326 431 l 328 435 q 329 439 328 437 l 322 452 l 315 467 l 301 496 l 303 495 l 305 494 q 307 492 307 493 q 338 439 327 473 q 351 399 343 425 l 363 360 q 379 313 371 334 q 391 283 385 300 l 404 254 q 408 249 404 254 q 409 260 408 254 l 410 271 q 412 292 412 283 l 415 319 l 418 347 l 420 365 l 421 382 l 425 413 l 428 444 l 429 451 l 431 458 q 433 473 433 468 l 433 481 l 433 486 q 432 492 432 490 q 438 505 436 496 q 439 513 439 507 l 441 521 l 450 557 l 458 595 l 462 608 q 464 621 463 616 q 467 669 466 642 l 469 715 l 471 762 l 472 795 q 474 827 473 814 l 475 842 l 477 857 q 485 886 479 874 l 487 887 l 490 887 q 492 880 492 884 q 492 874 492 878 l 490 871 l 490 868 l 490 862 q 492 859 490 861 l 494 858 l 495 857 l 495 842 q 519 838 503 841 q 534 841 528 841 q 556 831 547 841 l 556 817 l 557 802 q 554 773 557 785 q 551 745 552 762 l 549 731 l 547 717 l 543 688 l 538 660 l 534 627 l 529 593 l 524 568 l 520 543 q 518 526 519 536 l 517 508 l 514 489 l 511 470 l 511 467 l 511 463 l 509 446 l 508 429 q 505 372 506 404 l 504 354 l 503 337 q 500 302 503 317 q 499 278 499 294 l 498 266 l 498 254 q 497 246 498 251 l 496 242 l 496 238 q 497 234 496 237 l 498 231 l 500 229 l 501 234 l 502 258 l 503 282 q 505 330 503 311 q 506 346 505 337 l 506 361 q 510 393 507 380 q 511 396 511 394 l 511 400 q 516 458 511 420 l 517 467 l 518 477 q 520 497 519 490 q 526 532 523 513 l 534 567 q 541 600 536 581 q 549 612 543 607 l 550 610 l 550 608 q 551 606 551 607 q 550 604 551 605 q 538 558 543 584 l 534 534 l 530 511 q 526 479 528 498 l 524 463 l 522 448 l 514 362 l 514 361 l 511 244 l 511 242 q 512 233 511 239 q 522 301 517 262 l 526 335 l 530 370 q 549 509 541 458 q 553 500 553 502 q 548 469 550 488 l 544 439 l 542 422 l 539 406 q 535 377 536 391 l 534 358 q 532 339 532 346 l 528 311 l 524 282 l 522 269 l 520 256 l 514 215 l 508 174 q 505 140 506 161 q 501 82 502 102 q 505 66 501 75 q 507 52 507 60 q 506 45 507 49 q 499 46 503 45 l 498 43 l 496 39 q 495 32 495 35 l 495 28 q 493 8 495 19 l 488 -15 q 482 -61 482 -43 q 483 -71 482 -66 l 487 -71 q 491 -70 489 -70 l 493 -72 l 494 -75 q 498 -81 496 -79 l 494 -86 l 492 -88 l 501 -112 l 511 -136 q 513 -146 513 -140 q 512 -155 513 -150 q 507 -152 509 -155 q 506 -149 507 -151 l 505 -148 l 505 -146 q 497 -129 502 -140 l 490 -111 q 477 -100 486 -102 l 474 -119 l 471 -138 l 469 -149 l 467 -158 l 463 -177 l 459 -197 q 455 -213 458 -203 l 451 -229 q 446 -262 446 -248 q 439 -275 446 -262 l 437 -266 l 437 -237 q 435 -207 437 -223 l 433 -187 l 431 -168 l 431 -167 q 430 -165 431 -165 q 425 -140 425 -155 l 425 -115 q 425 -48 425 -79 l 425 -42 l 426 -37 q 427 -28 427 -32 l 427 -25 q 426 -12 427 -20 l 424 3 q 419 7 422 4 l 416 9 l 413 12 l 412 16 l 411 20 q 409 29 410 26 l 408 35 l 406 40 q 401 50 404 46 q 387 71 395 59 l 374 91 l 370 95 l 368 100 q 361 109 364 105 l 342 132 q 321 155 330 145 q 294 189 304 172 q 231 293 253 256 q 203 342 220 312 l 174 391 q 171 395 174 393 l 169 398 l 167 401 l 165 399 l 164 396 q 163 391 163 393 q 157 326 160 363 l 157 285 q 157 258 157 269 q 154 233 156 248 l 153 220 l 151 207 l 151 204 l 148 146 l 144 100 q 139 54 142 73 q 138 42 138 49 l 139 31 q 127 27 134 27 q 118 30 123 27 l 113 71 l 111 71 l 111 59 l 111 43 l 109 30 l 108 22 l 108 15 l 107 8 l 107 2 q 99 -1 103 -1 l 98 -1 q 93 -1 96 -1 l 89 1 l 83 -1 l 77 -4 q 65 -1 75 -3 l 64 2 l 64 4 q 62 9 62 7 l 61 18 l 60 26 q 58 44 60 37 q 56 58 57 49 l 56 65 l 55 72 q 46 100 53 89 l 47 107 l 47 115 l 49 130 l 50 146 l 51 162 l 52 166 l 52 170 l 52 304 l 52 308 l 52 313 l 49 317 l 47 319 l 46 321 l 46 357 q 47 372 47 366 q 46 385 47 380 l 45 406 l 43 426 q 41 458 41 445 l 41 467 q 33 505 41 486 q 25 522 30 512 l 15 538 q -43 663 -26 606 l -43 664 l -43 665 q -45 668 -45 667 l -45 669 q -41 674 -45 672 q -37 668 -38 672 l -35 665 l -34 661 q 5 571 -20 614 q 22 542 11 559 l 31 527 l 39 511 l 39 516 l 40 520 l 40 539 l 41 551 q 42 576 41 566 q 54 611 45 593 l 58 610 q 62 608 60 609 q 59 590 59 600 q 60 580 59 585 q 62 566 60 574 l 64 559 l 66 553 l 69 587 l 66 596 q 64 606 64 602 q 78 623 68 614 l 86 630 q 94 637 91 635 l 104 637 l 127 610 l 138 596 l 149 583 q 156 588 153 583 l 157 589 l 158 591 q 161 595 159 593 q 157 606 159 599 l 159 608 q 161 610 160 609 q 168 610 165 610 q 188 604 179 610 q 202 582 201 595 l 202 579 q 201 572 202 576 l 200 567 l 199 562 l 198 558 l 197 554 l 195 541 l 194 534 l 193 526 q 295 372 247 456 q 298 382 298 377 q 298 386 298 384 l 297 389 l 296 391 q 295 397 295 395 q 296 409 296 402 l 296 419 q 289 434 293 425 l 283 448 l 283 447 z "},"o":{"ha":498,"x_min":-39,"x_max":490,"o":"m 39 426 l 40 426 l 40 448 l 39 448 l 39 426 m 328 -98 q 345 -81 339 -93 q 328 -98 332 -90 m 102 413 l 102 495 q 98 463 98 481 l 98 454 q 100 433 98 446 l 100 423 l 102 413 m 434 304 l 434 309 q 431 319 433 314 l 430 325 q 428 331 429 328 q 427 309 428 321 l 427 298 l 426 288 q 425 270 425 278 q 427 248 425 257 q 434 304 434 287 m 275 566 l 277 568 l 218 595 l 218 595 l 216 595 l 221 581 l 275 566 m 437 377 q 435 399 437 387 l 433 411 q 429 422 431 417 q 429 427 429 424 l 429 430 l 428 432 q 422 441 427 439 l 422 425 l 423 418 l 424 410 q 425 396 425 401 l 425 394 q 437 355 425 376 l 437 377 m 202 618 l 209 614 l 216 609 q 245 595 233 598 q 193 641 220 625 l 192 637 l 191 634 q 187 627 189 629 q 202 618 194 623 m 448 149 l 444 142 q 437 130 440 135 l 414 96 l 391 62 l 387 54 q 433 109 415 79 q 452 154 452 137 l 452 155 l 448 149 m 276 556 l 255 561 l 234 566 l 227 568 l 226 566 l 247 555 l 269 543 q 312 519 294 529 q 276 556 302 550 m 415 -3 q 414 -5 414 -3 l 414 -9 q 461 104 461 28 l 461 106 q 415 -3 444 52 m 182 87 l 197 57 l 210 27 q 225 14 215 17 q 248 2 237 11 q 259 -3 254 -3 q 272 3 266 -3 q 282 16 279 9 q 298 38 290 29 q 321 73 313 52 q 340 125 332 96 q 367 303 367 212 l 367 369 q 363 435 366 406 q 355 459 362 450 q 311 505 336 485 q 242 545 290 522 q 209 568 220 556 l 205 572 l 202 575 q 179 551 186 571 q 170 511 171 530 l 168 499 l 166 487 q 164 462 164 471 l 163 429 l 163 396 q 166 330 163 358 q 168 304 168 321 l 168 292 l 170 278 l 176 215 q 192 139 180 179 q 200 119 195 131 l 205 109 l 210 98 l 207 94 l 204 89 q 198 79 201 84 q 183 92 189 87 l 182 87 m 67 582 l 70 581 l 73 578 l 75 581 q 76 585 76 583 q 102 634 83 608 l 109 642 q 115 650 113 647 l 126 666 l 132 674 l 138 683 l 140 683 q 153 678 146 683 q 160 673 156 677 l 167 667 l 172 671 l 178 673 q 191 680 185 677 q 216 689 204 686 q 224 690 220 690 q 245 682 234 690 q 273 669 257 674 q 309 647 292 664 l 324 632 l 332 625 l 340 616 q 374 625 358 625 q 380 624 376 625 q 391 608 388 620 q 410 529 406 562 q 416 481 413 505 q 418 475 416 479 l 420 469 l 435 475 q 448 480 444 478 q 458 473 454 478 q 462 465 460 471 q 479 412 473 432 q 484 386 483 399 q 486 369 484 378 l 488 360 l 489 351 q 490 335 490 345 l 490 326 l 490 318 q 481 250 490 286 q 481 245 481 248 l 480 239 q 488 231 484 235 l 486 217 l 484 203 q 479 177 481 187 q 471 110 471 140 l 471 99 q 459 37 471 68 q 424 -13 450 10 q 378 -60 391 -42 q 326 -113 349 -98 q 311 -121 320 -117 l 303 -125 l 296 -129 q 290 -127 295 -129 l 291 -123 q 292 -119 292 -121 l 310 -102 q 327 -84 320 -92 q 365 -52 347 -64 q 406 -1 390 -33 q 452 112 431 48 l 452 118 l 451 119 q 383 37 433 81 q 372 22 375 30 q 311 -46 353 -17 q 278 -77 288 -62 q 272 -83 277 -80 l 269 -86 l 265 -89 l 254 -85 l 243 -80 q 246 -72 245 -77 l 248 -63 q 258 -49 251 -54 q 252 -47 254 -47 q 246 -49 249 -47 l 244 -51 l 243 -52 q 239 -55 241 -54 l 218 -55 l 214 -52 l 212 -50 l 210 -47 l 211 -40 l 212 -36 l 212 -31 l 210 -30 l 207 -28 l 201 -24 l 194 -20 q 186 -14 189 -17 q 176 3 176 -6 q 180 14 176 8 l 174 28 l 168 43 q 154 71 161 59 q 148 69 151 70 l 143 68 q 133 80 134 72 q 130 96 132 90 l 128 102 l 126 107 q 121 117 124 114 q 86 186 98 151 l 82 191 l 82 185 l 83 180 q 84 176 84 178 q 81 168 84 172 l 79 173 l 78 178 q 75 186 76 183 q 62 228 70 203 l 55 248 l 48 269 q 44 287 45 277 l 42 296 l 41 306 q 37 354 38 326 l 37 403 q 35 408 37 406 l 35 287 l 26 287 l 26 402 q 28 429 26 412 l 30 444 l 31 457 q 37 504 33 479 l 42 528 q 47 553 45 543 q 54 569 50 559 l 58 577 l 62 586 q 67 582 64 584 m 193 -80 q 145 -65 168 -80 q 102 -18 122 -51 q 62 69 82 16 q 50 109 56 85 q 47 118 48 113 l 46 127 q 33 170 44 142 l 13 217 l -7 264 q -34 347 -28 315 l -36 358 q -38 369 -37 365 q -39 377 -39 373 q -37 392 -39 385 q -33 401 -35 397 l -30 406 l -26 410 q -22 416 -25 413 l -20 419 l -18 422 l -16 419 l -14 416 q -33 378 -31 399 l -31 372 l -30 366 q -28 351 -28 357 q -12 295 -24 328 q 13 235 -1 270 l 38 175 q 40 171 39 174 l 41 168 l 43 165 q 44 174 44 170 q 43 182 44 178 l 42 186 l 41 190 q 39 197 39 195 l 37 208 l 34 220 q 31 242 31 233 l 31 261 q 37 263 34 262 l 42 265 l 43 264 l 43 262 q 44 260 44 261 q 43 250 43 256 q 47 224 43 239 l 49 215 l 51 206 q 54 189 53 195 q 66 149 57 172 l 74 130 q 81 111 78 119 q 123 7 100 50 q 159 -43 143 -28 q 177 -55 166 -48 l 186 -62 q 196 -68 192 -66 q 197 -70 197 -69 l 198 -71 l 199 -73 q 203 -79 202 -77 q 193 -80 198 -80 m 197 469 l 197 466 q 198 463 198 465 q 197 460 198 462 q 195 445 196 454 l 194 437 l 193 429 q 187 393 191 407 l 183 402 q 186 445 184 421 l 189 458 q 197 472 190 467 l 197 469 z "}}}
